<?xml version="1.0" standalone="no"?>
<!DOCTYPE svg PUBLIC "-//W3C//DTD SVG 1.1//EN" "http://www.w3.org/Graphics/SVG/1.1/DTD/svg11.dtd" >
<svg>
<metadata>
Created by FontForge 20090622 at Sat Jan 23 09:15:41 2016
 By deploy user
Font Design Owned by UEFACopyright: Design copyright (c) 2014 by The Entente (AS&#38;EH) / Colophon Foundry.
</metadata>
<defs>
<font id="EuropaNuovaBold" horiz-adv-x="612" >
  <font-face 
    font-family="EuropaNuovaBold"
    font-weight="400"
    font-stretch="normal"
    units-per-em="1000"
    panose-1="2 0 0 0 0 0 0 0 0 0"
    ascent="800"
    descent="-200"
    x-height="514"
    cap-height="700"
    bbox="-38 -294 1310 976"
    underline-thickness="50"
    underline-position="-50"
    unicode-range="U+000D-U+FB02"
  />
<missing-glyph horiz-adv-x="243" 
 />
    <glyph glyph-name="fi" unicode="fi" horiz-adv-x="593" 
d="M403 0v415h-174v-415h-124v415h-72v99h72v28q0 88 46 131t119 43q27 0 60 -5v-108q-21 7 -42 7q-26 0 -42.5 -16t-16.5 -48v-32h298v-514h-124zM399 585v129h132v-129h-132z" />
    <glyph glyph-name="fl" unicode="fl" horiz-adv-x="583" 
d="M393 0v522q0 43 -23 65.5t-59 22.5t-59 -22.5t-23 -61.5v-12h102v-99h-102v-415h-124v415h-72v99h72v14q0 87 56.5 137.5t149.5 50.5t149.5 -50t56.5 -138v-528h-124z" />
    <glyph glyph-name=".notdef" horiz-adv-x="243" 
 />
    <glyph glyph-name=".null" horiz-adv-x="0" 
 />
    <glyph glyph-name="nonmarkingreturn" horiz-adv-x="333" 
 />
    <glyph glyph-name="NULL" horiz-adv-x="0" 
 />
    <glyph glyph-name="NULL" horiz-adv-x="0" 
 />
    <glyph glyph-name="CR" unicode="&#xd;" horiz-adv-x="243" 
 />
    <glyph glyph-name="space" unicode=" " horiz-adv-x="243" 
 />
    <glyph glyph-name="exclam" unicode="!" horiz-adv-x="255" 
d="M62 0v122h126v-122h-126zM59 592v108h132v-108l-21 -401h-90z" />
    <glyph glyph-name="quotedbl" unicode="&#x22;" horiz-adv-x="384" 
d="M213 636v64h118v-64l-15 -171h-88zM53 636v64h118v-64l-15 -171h-88z" />
    <glyph glyph-name="numbersign" unicode="#" horiz-adv-x="691" 
d="M82 522h110l31 178h115l-31 -178h138l31 178h115l-31 -178h112l-19 -108h-112l-23 -128h110l-19 -108h-110l-31 -178h-115l31 178h-138l-31 -178h-115l31 178h-112l19 108h112l23 128h-110zM288 414l-23 -128h138l23 128h-138z" />
    <glyph glyph-name="dollar" unicode="$" horiz-adv-x="681" 
d="M299 -110v98q-101 14 -162 78t-75 162l129 25q22 -120 108 -149v204q-99 17 -155.5 71t-56.5 138q0 83 59.5 135t152.5 62v96h84v-97q93 -11 148 -66t67 -139l-121 -24q-8 44 -33 73t-61 41v-189q123 -18 177 -66t54 -135q0 -89 -63 -151.5t-168 -71.5v-95h-84zM484 197
q0 65 -101 94v-193q45 7 73 33.5t28 65.5zM217 520q0 -66 82 -93v175q-37 -7 -59.5 -28t-22.5 -54z" />
    <glyph glyph-name="percent" unicode="%" horiz-adv-x="939" 
d="M223 312q-81 0 -131.5 54.5t-50.5 147.5t50.5 147.5t131.5 54.5t131 -54.5t50 -147.5t-50 -147.5t-131 -54.5zM223 630q-41 0 -65 -30.5t-24 -85.5t24 -85.5t65 -30.5t65 30.5t24 85.5t-24 85.5t-65 30.5zM172 0l483 700h112l-483 -700h-112zM717 -16q-81 0 -131.5 54.5
t-50.5 147.5t50.5 147.5t131.5 54.5t131 -54.5t50 -147.5t-50 -147.5t-131 -54.5zM717 302q-41 0 -65 -30.5t-24 -85.5t24 -85.5t65 -30.5t65 30.5t24 85.5t-24 85.5t-65 30.5z" />
    <glyph glyph-name="ampersand" unicode="&#x26;" horiz-adv-x="702" 
d="M55 205q0 125 147 206q-51 66 -51 138q0 70 49 118.5t128 48.5q78 0 126.5 -42t48.5 -107q0 -59 -35 -102.5t-104 -80.5l117 -141q20 58 20 126h107q0 -125 -50 -219l125 -150h-140l-51 61q-83 -77 -201 -77q-106 0 -171 59t-65 162zM303 98q69 0 119 48l-157 189
q-86 -50 -86 -125q0 -50 33.5 -81t90.5 -31zM263 557q0 -46 39 -98q54 26 71 47t17 52q0 29 -18.5 46.5t-47.5 17.5q-27 0 -44 -18.5t-17 -46.5z" />
    <glyph glyph-name="quotesingle" unicode="'" horiz-adv-x="224" 
d="M53 636v64h118v-64l-15 -171h-88z" />
    <glyph glyph-name="parenleft" unicode="(" horiz-adv-x="334" 
d="M173 771h111q-86 -209 -86 -421t86 -421h-111q-107 203 -107 421t107 421z" />
    <glyph glyph-name="parenright" unicode=")" horiz-adv-x="334" 
d="M50 771h111q107 -203 107 -421t-107 -421h-111q86 209 86 421t-86 421z" />
    <glyph glyph-name="asterisk" unicode="*" horiz-adv-x="402" 
d="M251 394l-50 103l-50 -103l-81 59l81 78l-111 16l31 95l100 -54l-20 112h100l-20 -112l100 54l31 -95l-111 -16l81 -78z" />
    <glyph glyph-name="plus" unicode="+" horiz-adv-x="568" 
d="M41 249v110h188v188h110v-188h188v-110h-188v-188h-110v188h-188z" />
    <glyph glyph-name="comma" unicode="," horiz-adv-x="244" 
d="M53 0v136h136v-136q0 -66 -38.5 -97.5t-97.5 -31.5v73q57 0 58 56h-58z" />
    <glyph glyph-name="hyphen" unicode="-" horiz-adv-x="386" 
d="M41 233v110h304v-110h-304z" />
    <glyph glyph-name="period" unicode="." horiz-adv-x="244" 
d="M53 0v136h136v-136h-136z" />
    <glyph glyph-name="slash" unicode="/" horiz-adv-x="553" 
d="M21 0l380 700h128l-380 -700h-128z" />
    <glyph glyph-name="zero" unicode="0" horiz-adv-x="714" 
d="M666 350q0 -169 -87 -267.5t-222 -98.5t-222 98.5t-87 267.5t87 267.5t222 98.5t222 -98.5t87 -267.5zM536 350q0 120 -50 185t-129 65t-129 -65t-50 -185t50 -185t129 -65t129 65t50 185z" />
    <glyph glyph-name="one" unicode="1" horiz-adv-x="393" 
d="M50 448v142l142 110h130v-700h-130v558z" />
    <glyph glyph-name="two" unicode="2" horiz-adv-x="604" 
d="M62 0v37q0 118 57 186.5t173 127.5q64 33 90.5 66t26.5 80q0 48 -31.5 78.5t-83.5 30.5q-45 0 -78.5 -28t-33.5 -74q0 -15 4 -30l-115 -48q-15 33 -15 75q0 88 64.5 151.5t173.5 63.5q116 0 180.5 -58t64.5 -150q0 -78 -39 -135t-126 -103q-86 -46 -123 -82.5t-38 -77.5
h343v-110h-494z" />
    <glyph glyph-name="three" unicode="3" horiz-adv-x="621" 
d="M48 208l125 30q7 -64 43 -101t99 -37q52 0 87.5 33.5t35.5 89.5q0 63 -36 97t-97 34q-40 0 -70 -15l-61 79l191 176h-289v106h449v-99l-159 -145q83 -11 140.5 -70.5t57.5 -159.5q0 -106 -69 -174t-184 -68q-113 0 -180.5 64.5t-82.5 159.5z" />
    <glyph glyph-name="four" unicode="4" horiz-adv-x="618" 
d="M44 135v112l314 453h131v-453h88v-112h-88v-135h-124v135h-321zM185 247h180v264z" />
    <glyph glyph-name="five" unicode="5" horiz-adv-x="632" 
d="M62 340l55 360h408v-106h-309l-27 -158q59 41 139 41q108 0 171 -66.5t63 -174.5q0 -111 -69.5 -181.5t-184.5 -70.5q-110 0 -173.5 57t-80.5 145l120 31q32 -117 136 -117q57 0 91.5 36t34.5 100q0 62 -35 97.5t-93 35.5q-87 0 -141 -77z" />
    <glyph glyph-name="six" unicode="6" horiz-adv-x="622" 
d="M50 313q0 194 82.5 298.5t204.5 104.5q175 0 220 -164l-107 -34q-25 86 -115 86q-62 0 -104.5 -53t-53.5 -144q25 28 69.5 46.5t89.5 18.5q100 0 167.5 -64t67.5 -181q0 -108 -73 -175.5t-184 -67.5q-115 0 -189.5 84.5t-74.5 244.5zM318 364q-56 0 -92.5 -37t-36.5 -100
t36.5 -100t92.5 -37t92 36.5t36 100.5t-36 100.5t-92 36.5z" />
    <glyph glyph-name="seven" unicode="7" horiz-adv-x="524" 
d="M478 608l-220 -608h-128l211 592h-302v108h439v-92z" />
    <glyph glyph-name="eight" unicode="8" horiz-adv-x="618" 
d="M564 206q0 -106 -72 -164t-183 -58t-183 58t-72 164q0 60 35 107t84 69q-32 17 -60.5 57.5t-28.5 87.5q0 88 64.5 138.5t160.5 50.5t160.5 -50.5t64.5 -138.5q0 -47 -28.5 -87.5t-60.5 -57.5q49 -22 84 -69t35 -107zM434 208q0 53 -33.5 83.5t-91.5 30.5t-91.5 -30.5
t-33.5 -83.5t33.5 -83.5t91.5 -30.5t91.5 30.5t33.5 83.5zM415 522q0 43 -28.5 68.5t-77.5 25.5t-77.5 -25.5t-28.5 -68.5t28.5 -68.5t77.5 -25.5t77.5 25.5t28.5 68.5z" />
    <glyph glyph-name="nine" unicode="9" horiz-adv-x="622" 
d="M572 387q0 -195 -80 -299t-207 -104q-175 0 -220 164l107 34q25 -86 116 -86q61 0 104 53t53 144q-23 -27 -67 -46t-92 -19q-97 0 -166 65t-69 180q0 108 73 175.5t184 67.5q120 0 192 -83.5t72 -245.5zM304 336q56 0 92.5 37t36.5 100t-36.5 100t-92.5 37t-92 -36.5
t-36 -100.5t36 -100.5t92 -36.5z" />
    <glyph glyph-name="colon" unicode=":" horiz-adv-x="242" 
d="M53 331v136h136v-136h-136zM53 0v136h136v-136h-136z" />
    <glyph glyph-name="semicolon" unicode=";" horiz-adv-x="242" 
d="M53 0v136h136v-136q0 -66 -38.5 -97.5t-97.5 -31.5v73q57 0 58 56h-58zM53 331v136h136v-136h-136z" />
    <glyph glyph-name="less" unicode="&#x3c;" horiz-adv-x="532" 
d="M48 277v102l433 218v-122l-302 -147l302 -147v-122z" />
    <glyph glyph-name="equal" unicode="=" horiz-adv-x="568" 
d="M41 151v110h486v-110h-486zM41 357v110h486v-110h-486z" />
    <glyph glyph-name="greater" unicode="&#x3e;" horiz-adv-x="532" 
d="M484 379v-102l-433 -218v122l302 147l-302 147v122z" />
    <glyph glyph-name="question" unicode="?" horiz-adv-x="544" 
d="M327 191h-108v42q0 66 18 111.5t68 77.5q72 46 72 109q0 33 -29.5 54.5t-72.5 21.5q-40 0 -70.5 -25.5t-30.5 -65.5q0 -21 5 -36l-117 -45q-14 39 -14 72q0 86 61 147.5t167 61.5q104 0 166.5 -47.5t62.5 -125.5q0 -62 -28 -103.5t-91 -84.5q-33 -23 -46 -55t-13 -82v-27
zM209 0v122h126v-122h-126z" />
    <glyph glyph-name="at" unicode="@" horiz-adv-x="808" 
d="M538 537h69l-47 -285q-1 -7 -1 -10q0 -22 25 -22q44 0 73.5 42.5t29.5 122.5q0 117 -78 184.5t-191 67.5q-111 0 -196.5 -79t-85.5 -205q0 -134 81.5 -211t193.5 -77q58 0 100 12t93 40l37 -75q-117 -58 -236 -58q-154 0 -256.5 103.5t-102.5 257.5q0 87 33 159.5
t87 117.5t119.5 69.5t133.5 24.5q82 0 150 -28t111 -74t66 -102.5t23 -117.5q0 -115 -58.5 -183.5t-136.5 -68.5q-74 0 -80 71q-19 -31 -54.5 -51t-76.5 -20q-76 0 -122 51.5t-46 130.5q0 99 59 162.5t154 63.5q40 0 69 -16.5t42 -41.5zM406 472q-54 0 -88 -42.5t-34 -105.5
q0 -45 23.5 -74.5t62.5 -29.5q56 0 92 46.5t36 104.5q0 46 -25.5 73.5t-66.5 27.5z" />
    <glyph glyph-name="A" unicode="A" horiz-adv-x="728" 
d="M10 0l285 700h138l285 -700h-147l-57 147h-300l-57 -147h-147zM364 539l-106 -276h212z" />
    <glyph glyph-name="B" unicode="B" horiz-adv-x="673" 
d="M75 0v700h308q89 0 152.5 -47t63.5 -132q0 -92 -84 -150q50 -22 81 -63.5t31 -95.5q0 -101 -72.5 -156.5t-172.5 -55.5h-307zM205 302v-186h183q49 0 79 23.5t30 69.5t-30 69.5t-79 23.5h-183zM205 590v-176h170q44 0 71 22.5t27 65.5t-27.5 65.5t-70.5 22.5h-170z" />
    <glyph glyph-name="C" unicode="C" horiz-adv-x="714" 
d="M558 251l125 -26q-25 -113 -103 -177t-195 -64q-148 0 -241.5 99.5t-93.5 266.5q0 166 94.5 266t241.5 100q118 0 196.5 -59.5t98.5 -166.5l-128 -26q-16 64 -59.5 100t-107.5 36q-91 0 -148.5 -66t-57.5 -184q0 -116 58 -183t149 -67q68 0 110.5 41t60.5 110z" />
    <glyph glyph-name="D" unicode="D" horiz-adv-x="702" 
d="M306 0h-231v700h231q153 0 249.5 -91.5t96.5 -258.5t-96.5 -258.5t-249.5 -91.5zM312 116q94 0 152 59.5t58 174.5t-58 174.5t-152 59.5h-107v-468h107z" />
    <glyph glyph-name="E" unicode="E" horiz-adv-x="600" 
d="M75 0v700h466v-116h-336v-174h310v-114h-310v-180h344v-116h-474z" />
    <glyph glyph-name="F" unicode="F" horiz-adv-x="603" 
d="M75 0v700h486v-116h-356v-173h332v-116h-332v-295h-130z" />
    <glyph glyph-name="G" unicode="G" horiz-adv-x="765" 
d="M367 259v106h342v-225q-118 -156 -310 -156q-149 0 -249 101t-100 265q0 163 102 264.5t247 101.5q123 0 202.5 -60t100.5 -158l-123 -34q-16 64 -64.5 100t-116.5 36q-88 0 -153 -67.5t-65 -182.5q0 -114 65.5 -182t163.5 -68q107 0 178 89v70h-220z" />
    <glyph glyph-name="H" unicode="H" horiz-adv-x="698" 
d="M75 0v700h130v-289h288v289h130v-700h-130v295h-288v-295h-130z" />
    <glyph glyph-name="I" unicode="I" horiz-adv-x="280" 
d="M75 0v700h130v-700h-130z" />
    <glyph glyph-name="J" unicode="J" horiz-adv-x="583" 
d="M391 229v471h130v-465q0 -118 -62 -184.5t-172 -66.5q-98 0 -160.5 52.5t-75.5 148.5l121 25q12 -58 40 -84t74 -26q51 0 78 34.5t27 94.5z" />
    <glyph glyph-name="K" unicode="K" horiz-adv-x="640" 
d="M75 0v700h130v-290l244 290h157l-285 -333l309 -367h-164l-261 310v-310h-130z" />
    <glyph glyph-name="L" unicode="L" horiz-adv-x="597" 
d="M75 0v700h130v-584h346v-116h-476z" />
    <glyph glyph-name="M" unicode="M" horiz-adv-x="870" 
d="M435 144l211 556h149v-700h-126v440l-167 -440h-134l-167 440v-440h-126v700h149z" />
    <glyph glyph-name="N" unicode="N" horiz-adv-x="724" 
d="M218 700l305 -494v494h126v-700h-143l-305 494v-494h-126v700h143z" />
    <glyph glyph-name="O" unicode="O" horiz-adv-x="772" 
d="M722 350q0 -167 -93.5 -266.5t-242.5 -99.5t-242.5 99.5t-93.5 266.5t93.5 266.5t242.5 99.5t242.5 -99.5t93.5 -266.5zM592 350q0 118 -57.5 184t-148.5 66t-148.5 -66t-57.5 -184t57.5 -184t148.5 -66t148.5 66t57.5 184z" />
    <glyph glyph-name="P" unicode="P" horiz-adv-x="627" 
d="M75 0v700h262q110 0 179.5 -59.5t69.5 -166.5t-69.5 -166.5t-179.5 -59.5h-132v-248h-130zM205 584v-220h126q60 0 92.5 28t32.5 82t-32.5 82t-92.5 28h-126z" />
    <glyph glyph-name="Q" unicode="Q" horiz-adv-x="772" 
d="M722 350q0 -143 -71 -239l67 -67l-76 -77l-69 69q-81 -52 -187 -52q-149 0 -242.5 99.5t-93.5 266.5t93.5 266.5t242.5 99.5t242.5 -99.5t93.5 -266.5zM391 219l76 77l92 -93q33 61 33 147q0 118 -57.5 184t-148.5 66t-148.5 -66t-57.5 -184t57.5 -184t148.5 -66
q56 0 99 25z" />
    <glyph glyph-name="R" unicode="R" horiz-adv-x="668" 
d="M466 0l-146 262h-115v-262h-130v700h263q108 0 178.5 -60t70.5 -159q0 -75 -34.5 -120t-97.5 -76l160 -285h-149zM205 584v-206h135q55 0 86 27t31 76t-31 76t-86 27h-135z" />
    <glyph glyph-name="S" unicode="S" horiz-adv-x="683" 
d="M483 197q0 48 -40 74t-132 36q-104 11 -164.5 66.5t-60.5 143.5q0 91 72 145t178 54q114 0 181 -56.5t81 -151.5l-121 -24q-11 58 -51 90t-93 32q-49 0 -83 -22.5t-34 -63.5q0 -42 36 -67.5t120 -36.5q128 -17 184.5 -67.5t56.5 -140.5q0 -95 -71.5 -159.5t-188.5 -64.5
q-124 0 -200 66.5t-92 177.5l129 25q28 -155 165 -155q56 0 92 27.5t36 71.5z" />
    <glyph glyph-name="T" unicode="T" horiz-adv-x="620" 
d="M28 584v116h564v-116h-217v-584h-130v584h-217z" />
    <glyph glyph-name="U" unicode="U" horiz-adv-x="696" 
d="M66 266v434h130v-440q0 -72 41 -116t111 -44t111 44t41 116v440h130v-434q0 -138 -79.5 -210t-202.5 -72t-202.5 71.5t-79.5 210.5z" />
    <glyph glyph-name="V" unicode="V" horiz-adv-x="706" 
d="M353 167l193 533h146l-268 -700h-142l-268 700h146z" />
    <glyph glyph-name="W" unicode="W" horiz-adv-x="1004" 
d="M293 182l134 518h150l134 -522l142 522h140l-206 -700h-146l-139 534l-139 -534h-146l-206 700h140z" />
    <glyph glyph-name="X" unicode="X" horiz-adv-x="659" 
d="M199 700l130 -215l131 215h156l-210 -331l232 -369h-156l-153 249l-152 -249h-156l231 369l-210 331h157z" />
    <glyph glyph-name="Y" unicode="Y" horiz-adv-x="642" 
d="M256 0v255l-248 445h149l164 -305l164 305h149l-248 -445v-255h-130z" />
    <glyph glyph-name="Z" unicode="Z" horiz-adv-x="604" 
d="M54 584v116h497v-93l-351 -491h361v-116h-517v93l353 491h-343z" />
    <glyph glyph-name="bracketleft" unicode="[" horiz-adv-x="313" 
d="M71 -160v860h200v-104h-88v-652h88v-104h-200z" />
    <glyph glyph-name="backslash" unicode="\" horiz-adv-x="553" 
d="M152 700l380 -700h-128l-380 700h128z" />
    <glyph glyph-name="bracketright" unicode="]" horiz-adv-x="313" 
d="M242 700v-860h-200v104h88v652h-88v104h200z" />
    <glyph glyph-name="asciicircum" unicode="^" horiz-adv-x="522" 
d="M213 700h96l194 -272h-121l-121 169l-121 -169h-121z" />
    <glyph glyph-name="underscore" unicode="_" horiz-adv-x="501" 
d="M15 -119v103h471v-103h-471z" />
    <glyph glyph-name="grave" unicode="`" horiz-adv-x="339" 
d="M282 565h-96l-129 143h147z" />
    <glyph glyph-name="a" unicode="a" horiz-adv-x="636" 
d="M466 514h104v-514h-104l-14 60q-60 -76 -157 -76q-102 0 -175.5 74.5t-73.5 198.5q0 123 74.5 198t173.5 75q103 0 158 -72zM313 416q-61 0 -102 -44t-41 -115t41 -115t102 -44t102 44t41 115t-41 115t-102 44z" />
    <glyph glyph-name="b" unicode="b" horiz-adv-x="630" 
d="M66 0v700h124v-244q65 74 161 74t164.5 -74.5t68.5 -198.5t-73.5 -198.5t-174.5 -74.5q-49 0 -89 22.5t-64 53.5l-12 -60h-105zM320 416q-61 0 -100.5 -43.5t-39.5 -115.5t39.5 -115.5t100.5 -43.5t100.5 43.5t39.5 115.5t-39.5 115.5t-100.5 43.5z" />
    <glyph glyph-name="c" unicode="c" horiz-adv-x="591" 
d="M424 192l119 -41q-57 -167 -236 -167q-111 0 -186 74.5t-75 198.5t75.5 198.5t186.5 74.5q93 0 154.5 -46.5t77.5 -133.5l-114 -23q-10 39 -42 64t-77 25q-62 0 -99.5 -44.5t-37.5 -114.5t38 -114.5t99 -44.5q89 0 117 94z" />
    <glyph glyph-name="d" unicode="d" horiz-adv-x="630" 
d="M564 700v-700h-104l-14 60q-60 -76 -154 -76q-102 0 -174 74.5t-72 198.5q0 123 73 198t170 75q100 0 151 -67v237h124zM310 416q-61 0 -100.5 -44t-39.5 -115t39.5 -115t100.5 -44t100.5 44t39.5 115t-39.5 115t-100.5 44z" />
    <glyph glyph-name="e" unicode="e" horiz-adv-x="606" 
d="M556 222h-386q7 -59 44 -93.5t94 -34.5q92 0 127 82l115 -38q-31 -74 -94 -114t-148 -40q-120 0 -191 76.5t-71 196.5q0 118 76.5 195.5t186.5 77.5q107 0 177 -68.5t70 -193.5v-46zM309 426q-52 0 -87 -30t-48 -81h262q-15 111 -127 111z" />
    <glyph glyph-name="f" unicode="f" horiz-adv-x="354" 
d="M33 415v99h72v28q0 88 46 131t119 43q27 0 60 -5v-108q-21 7 -42 7q-26 0 -42.5 -16t-16.5 -48v-32h102v-99h-102v-415h-124v415h-72z" />
    <glyph glyph-name="g" unicode="g" horiz-adv-x="622" 
d="M289 530q93 0 151 -68l12 52h104v-465q0 -119 -72 -185t-180 -66q-185 0 -240 149l109 40q38 -83 132 -83q55 0 92 34.5t37 94.5v38q-53 -71 -148 -71q-97 0 -168.5 71.5t-71.5 193.5q0 123 71.5 194t171.5 71zM309 114q61 0 97 41t36 110t-36 110t-97 41
q-62 0 -99.5 -41t-37.5 -110t37.5 -110t99.5 -41z" />
    <glyph glyph-name="h" unicode="h" horiz-adv-x="621" 
d="M190 700v-253q24 35 68.5 59t99.5 24q93 0 145 -54.5t52 -152.5v-323h-124v297q0 59 -28.5 90t-82.5 31q-56 0 -93 -44t-37 -112v-262h-124v700h124z" />
    <glyph glyph-name="i" unicode="i" horiz-adv-x="256" 
d="M66 0v514h124v-514h-124zM62 585v129h132v-129h-132z" />
    <glyph glyph-name="j" unicode="j" horiz-adv-x="261" 
d="M195 514v-539q0 -91 -44.5 -134t-118.5 -43q-21 0 -46 5v105q20 -6 35 -6q24 0 37 16t13 44v552h124zM67 585v129h132v-129h-132z" />
    <glyph glyph-name="k" unicode="k" horiz-adv-x="551" 
d="M66 0v700h124v-377l163 191h156l-204 -232l227 -282h-156l-186 229v-229h-124z" />
    <glyph glyph-name="l" unicode="l" horiz-adv-x="256" 
d="M66 0v700h124v-700h-124z" />
    <glyph glyph-name="m" unicode="m" horiz-adv-x="886" 
d="M178 514l12 -64q21 34 58.5 57t86.5 23q109 0 146 -85q54 85 159 85q85 0 132.5 -47t47.5 -140v-343h-124v315q0 48 -23.5 75.5t-65.5 27.5q-51 0 -77 -37.5t-26 -93.5v-287h-124v324q0 94 -84 94q-49 0 -77.5 -38t-28.5 -110v-270h-124v514h112z" />
    <glyph glyph-name="n" unicode="n" 
d="M178 514l12 -66q23 33 67 57.5t99 24.5q89 0 139.5 -52.5t50.5 -146.5v-331h-124v305q0 52 -27 82.5t-77 30.5q-56 0 -92 -43.5t-36 -112.5v-262h-124v514h112z" />
    <glyph glyph-name="o" unicode="o" horiz-adv-x="620" 
d="M310 -16q-111 0 -187.5 74.5t-76.5 198.5t76.5 198.5t187.5 74.5t187.5 -74.5t76.5 -198.5t-76.5 -198.5t-187.5 -74.5zM310 416q-62 0 -100 -44.5t-38 -114.5t38 -114.5t100 -44.5t100 44.5t38 114.5t-38 114.5t-100 44.5z" />
    <glyph glyph-name="p" unicode="p" horiz-adv-x="630" 
d="M66 -186v700h105l14 -59q23 31 65 53t96 22q100 0 169 -74t69 -199t-72 -199t-177 -74q-44 0 -84 17.5t-61 47.5v-235h-124zM320 98q61 0 100.5 43.5t39.5 115.5t-39.5 115.5t-100.5 43.5t-100.5 -43.5t-39.5 -115.5t39.5 -115.5t100.5 -43.5z" />
    <glyph glyph-name="q" unicode="q" horiz-adv-x="630" 
d="M564 514v-700h-124v237q-51 -67 -149 -67q-101 0 -173 74.5t-72 198.5t72.5 198.5t173.5 74.5q100 0 156 -71l12 55h104zM310 98q61 0 100.5 44t39.5 115t-39.5 115t-100.5 44t-100.5 -44t-39.5 -115t39.5 -115t100.5 -44z" />
    <glyph glyph-name="r" unicode="r" horiz-adv-x="387" 
d="M361 522l-22 -111q-18 7 -41 7q-45 0 -76.5 -40.5t-31.5 -100.5v-277h-124v514h112l12 -67q16 37 48.5 60t79.5 23q25 0 43 -8z" />
    <glyph glyph-name="s" unicode="s" horiz-adv-x="549" 
d="M373 152q0 29 -24.5 44t-87.5 22q-86 10 -135 51.5t-49 109.5q0 70 56 110.5t141 40.5q89 0 140.5 -43.5t62.5 -117.5l-112 -19q-6 40 -31 61.5t-63 21.5q-34 0 -56 -14t-22 -39q0 -56 112 -68q187 -20 187 -153q0 -76 -56.5 -125.5t-149.5 -49.5q-98 0 -160 52t-71 136
l114 22q10 -50 36.5 -76t79.5 -26q40 0 64 15.5t24 44.5z" />
    <glyph glyph-name="t" unicode="t" horiz-adv-x="382" 
d="M117 646h124v-132h98v-99h-98v-241q0 -72 59 -72q20 0 41 7v-109q-24 -8 -67 -8q-71 0 -114 40t-43 125v258h-76v99h76v132z" />
    <glyph glyph-name="u" unicode="u" 
d="M430 0l-10 66q-59 -82 -156 -82q-94 0 -146 54.5t-52 157.5v318h124v-303q0 -53 26.5 -84t77.5 -31q59 0 93.5 43t34.5 113v262h124v-514h-116z" />
    <glyph glyph-name="v" unicode="v" horiz-adv-x="580" 
d="M570 514l-217 -514h-126l-217 514h138l142 -349l142 349h138z" />
    <glyph glyph-name="w" unicode="w" horiz-adv-x="816" 
d="M470 514l105 -342l103 342h127l-168 -514h-121l-108 362l-108 -362h-121l-168 514h127l103 -342l105 342h124z" />
    <glyph glyph-name="x" unicode="x" horiz-adv-x="511" 
d="M169 514l86 -139l86 139h142l-156 -242l171 -272h-143l-100 166l-100 -166h-142l172 272l-156 242h140z" />
    <glyph glyph-name="y" unicode="y" horiz-adv-x="570" 
d="M209 -34l17 44l-209 504h142l130 -336l128 336h140l-236 -587q-52 -129 -162 -129q-50 0 -90 20l31 113q26 -12 51 -12q40 0 58 47z" />
    <glyph glyph-name="z" unicode="z" horiz-adv-x="499" 
d="M49 417v97h404v-89l-275 -327h286v-98h-427v90l277 327h-265z" />
    <glyph glyph-name="braceleft" unicode="{" horiz-adv-x="380" 
d="M132 127q0 50 -19 70.5t-59 20.5h-19v104h19q40 0 59 20.5t19 70.5v95q0 96 38.5 144t134.5 48h34v-104h-25q-70 0 -70 -79v-142q0 -81 -70 -105q70 -24 70 -105v-142q0 -79 70 -79h25v-104h-34q-96 0 -134.5 48t-38.5 144v95z" />
    <glyph glyph-name="bar" unicode="|" horiz-adv-x="254" 
d="M71 -160v860h112v-860h-112z" />
    <glyph glyph-name="braceright" unicode="}" horiz-adv-x="380" 
d="M248 127v-95q0 -96 -38.5 -144t-134.5 -48h-34v104h25q70 0 70 79v142q0 81 70 105q-70 24 -70 105v142q0 79 -70 79h-25v104h34q96 0 134.5 -48t38.5 -144v-95q0 -50 19 -70.5t59 -20.5h19v-104h-19q-40 0 -59 -20.5t-19 -70.5z" />
    <glyph glyph-name="asciitilde" unicode="~" horiz-adv-x="459" 
d="M134 275h-93q0 65 32 103t88 38q35 0 71.5 -23.5t57.5 -23.5q15 0 25 12t10 30h93q0 -65 -32 -103t-88 -38q-35 0 -71.5 23.5t-57.5 23.5q-15 0 -25 -12t-10 -30z" />
    <glyph glyph-name="exclamdown" unicode="&#xa1;" horiz-adv-x="255" 
d="M203 514v-122h-126v122h126zM206 -78v-108h-132v108l21 401h90z" />
    <glyph glyph-name="cent" unicode="&#xa2;" horiz-adv-x="591" 
d="M262 640h84v-113q78 -9 128.5 -54t65.5 -123l-114 -23q-17 64 -80 83v-307q56 16 78 89l119 -41q-52 -149 -197 -165v-96h-84v98q-95 15 -155.5 86.5t-60.5 182.5q0 110 60.5 181.5t155.5 87.5v114zM170 257q0 -56 25 -96.5t67 -55.5v304q-43 -15 -67.5 -55.5
t-24.5 -96.5z" />
    <glyph glyph-name="sterling" unicode="&#xa3;" horiz-adv-x="613" 
d="M31 289v102h60q-16 52 -16 109q0 97 69.5 156.5t168.5 59.5q192 0 234 -166l-122 -41q-9 39 -39 65t-73 26q-49 0 -78 -30.5t-29 -82.5q0 -49 9 -96h247v-102h-230q1 -6 1 -19q0 -82 -41 -145q40 18 83 18q31 0 70 -21.5t61 -21.5q24 0 48.5 20t36.5 47l97 -59
q-59 -124 -186 -124q-49 0 -100.5 20.5t-80.5 20.5q-19 0 -38.5 -6t-33.5 -13t-40 -22l-74 79q27 33 42 54.5t27.5 57.5t12.5 77q0 15 -2 37h-84z" />
    <glyph glyph-name="currency" unicode="&#xa4;" horiz-adv-x="640" 
d="M203 165l-73 -73l-75 75l72 73q-28 50 -28 117t28 117l-72 73l75 75l73 -73q52 29 117 29t117 -29l73 73l75 -75l-72 -73q28 -50 28 -117t-28 -117l72 -73l-75 -75l-73 73q-52 -29 -117 -29t-117 29zM320 474q-49 0 -80.5 -32t-31.5 -85t31.5 -85t80.5 -32t80.5 32
t31.5 85t-31.5 85t-80.5 32z" />
    <glyph glyph-name="yen" unicode="&#xa5;" horiz-adv-x="642" 
d="M103 263v88h102l-205 349h148l173 -312l173 312h148l-205 -349h102v-88h-153v-57h153v-88h-153v-118h-130v118h-153v88h153v57h-153z" />
    <glyph glyph-name="brokenbar" unicode="&#xa6;" horiz-adv-x="262" 
d="M187 348h-112v352h112v-352zM75 192h112v-352h-112v352z" />
    <glyph glyph-name="section" unicode="&#xa7;" horiz-adv-x="621" 
d="M560 254q0 -83 -76 -132q52 -52 52 -130q0 -88 -66.5 -141t-159.5 -53q-106 0 -166 49.5t-77 136.5l123 24q22 -96 120 -96q39 0 70 20t31 56q0 33 -36 59t-107 37q-102 15 -154.5 61t-52.5 115q0 83 75 132q-51 53 -51 130q0 88 66.5 141t159.5 53q106 0 166 -49.5
t77 -136.5l-123 -24q-22 96 -120 96q-39 0 -70 -20t-31 -56q0 -33 36 -59t107 -37q102 -15 154.5 -61t52.5 -115zM290 324q-32 3 -64 14q-33 -26 -33 -60q0 -35 29 -56.5t109 -31.5q32 -4 64 -14q33 26 33 60q0 35 -29 56.5t-109 31.5z" />
    <glyph glyph-name="dieresis" unicode="&#xa8;" horiz-adv-x="386" 
d="M224 592v116h112v-116h-112zM50 592v116h112v-116h-112z" />
    <glyph glyph-name="copyright" unicode="&#xa9;" horiz-adv-x="284" 
d="M41 615q0 42 29.5 71.5t71.5 29.5t71.5 -29.5t29.5 -71.5t-29.5 -71.5t-71.5 -29.5t-71.5 29.5t-29.5 71.5zM53 615q0 -37 26 -63t63 -26t63 26t26 63t-26 63t-63 26t-63 -26t-26 -63zM185 594l11 -6q-17 -38 -54 -38q-25 0 -42.5 18t-17.5 47q0 30 17 47.5t43 17.5
q44 0 54 -41l-11 -4q-10 33 -43 33q-21 0 -34.5 -14.5t-13.5 -38.5q0 -23 14 -38t35 -15q27 0 42 32z" />
    <glyph glyph-name="ordfeminine" unicode="&#xaa;" horiz-adv-x="400" 
d="M333 705h73v-360h-73l-10 42q-41 -53 -110 -53q-72 0 -123 52t-51 139q0 86 52.5 138.5t121.5 52.5q73 0 110 -51zM226 636q-43 0 -71.5 -31t-28.5 -80t28.5 -80t71.5 -31t71.5 31t28.5 80t-28.5 80t-71.5 31z" />
    <glyph glyph-name="guillemotleft" unicode="&#xab;" horiz-adv-x="524" 
d="M367 457h124l-134 -188l134 -188h-124l-134 188zM184 457h124l-134 -188l134 -188h-124l-134 188z" />
    <glyph glyph-name="logicalnot" unicode="&#xac;" horiz-adv-x="525" 
d="M41 310v110h443v-262h-127v152h-316z" />
    <glyph glyph-name="registered" unicode="&#xae;" horiz-adv-x="284" 
d="M41 615q0 42 29.5 71.5t71.5 29.5t71.5 -29.5t29.5 -71.5t-29.5 -71.5t-71.5 -29.5t-71.5 29.5t-29.5 71.5zM53 615q0 -37 26 -63t63 -26t63 26t26 63t-26 63t-63 26t-63 -26t-26 -63zM177 552l-28 49h-36v-49h-12v126h44q20 0 32.5 -10.5t12.5 -28.5q0 -29 -29 -36
l29 -51h-13zM113 666v-53h33q32 0 32 26q0 13 -9.5 20t-22.5 7h-33z" />
    <glyph glyph-name="macron" unicode="&#xaf;" horiz-adv-x="416" 
d="M84 594v90h248v-90h-248z" />
    <glyph glyph-name="degree" unicode="&#xb0;" horiz-adv-x="394" 
d="M42 560q0 65 44.5 110.5t109.5 45.5q66 0 111 -45.5t45 -110.5q0 -64 -45 -109t-111 -45q-65 0 -109.5 45t-44.5 109zM115 560q0 -35 23 -59.5t58 -24.5q36 0 59.5 24.5t23.5 59.5q0 36 -23.5 61t-59.5 25t-58.5 -24.5t-22.5 -61.5z" />
    <glyph glyph-name="plusminus" unicode="&#xb1;" horiz-adv-x="568" 
d="M41 0v110h486v-110h-486zM41 371v110h188v188h110v-188h188v-110h-188v-188h-110v188h-188z" />
    <glyph glyph-name="twosuperior" unicode="&#xb2;" horiz-adv-x="342" 
d="M47 350v23q0 59 30 95.5t91 68.5q25 13 34 26.5t9 33.5q0 17 -11.5 28t-31.5 11q-18 0 -30 -10.5t-12 -29.5q0 -6 1 -12l-77 -26q-9 18 -9 40q0 44 34 77t91 33q63 0 95.5 -29t32.5 -78q0 -40 -20 -68t-65 -52q-58 -32 -60 -60h152v-71h-254z" />
    <glyph glyph-name="threesuperior" unicode="&#xb3;" horiz-adv-x="321" 
d="M31 452l78 20q10 -54 54 -54q18 0 32 13t14 34t-13.5 34.5t-34.5 13.5q-14 0 -28 -8l-39 53l81 74h-132v68h227v-60l-72 -62q41 -7 66.5 -36t25.5 -77q0 -56 -34.5 -89.5t-92.5 -33.5t-91.5 31t-40.5 79z" />
    <glyph glyph-name="acute" unicode="&#xb4;" horiz-adv-x="341" 
d="M154 565h-96l78 143h147z" />
    <glyph glyph-name="mu" unicode="&#xb5;" 
d="M66 -186v700h124v-303q0 -53 27 -84t78 -31q59 0 93 43t34 113v262h124v-514h-116l-10 66q-59 -82 -155 -82q-40 0 -75 11v-181h-124z" />
    <glyph glyph-name="paragraph" unicode="&#xb6;" horiz-adv-x="634" 
d="M461 -186v798h-68v-798h-98v482h-23q-103 0 -165.5 54t-62.5 149t62 148t166 53h287v-886h-98z" />
    <glyph glyph-name="periodcentered" unicode="&#xb7;" horiz-adv-x="242" 
d="M53 282v136h136v-136h-136z" />
    <glyph glyph-name="cedilla" unicode="&#xb8;" horiz-adv-x="327" 
d="M70 -79l27 113h74l-42 -83q19 15 47 15q37 0 59 -22t22 -60q0 -40 -27.5 -63t-71.5 -23q-59 0 -85 47l54 36q7 -24 31 -24q11 0 19 7t8 20t-8.5 20t-19.5 7q-17 0 -26 -16z" />
    <glyph glyph-name="onesuperior" unicode="&#xb9;" horiz-adv-x="246" 
d="M35 543v97l77 60h86v-350h-86v253z" />
    <glyph glyph-name="ordmasculine" unicode="&#xba;" horiz-adv-x="453" 
d="M228 334q-78 0 -131.5 52t-53.5 139t53.5 139t131.5 52t131 -52t53 -139t-53 -139t-131 -52zM228 636q-43 0 -70 -31t-27 -80t27 -80t70 -31t69.5 31t26.5 80t-26.5 80t-69.5 31z" />
    <glyph glyph-name="guillemotright" unicode="&#xbb;" horiz-adv-x="524" 
d="M33 457h124l134 -188l-134 -188h-124l134 188zM216 457h124l134 -188l-134 -188h-124l134 188z" />
    <glyph glyph-name="onequarter" unicode="&#xbc;" horiz-adv-x="748" 
d="M57 0l483 700h112l-483 -700h-112zM41 543v97l77 60h86v-350h-86v253zM399 57v72l160 221h84v-221h45v-72h-45v-57h-81v57h-163zM488 129h74v103z" />
    <glyph glyph-name="onehalf" unicode="&#xbd;" horiz-adv-x="761" 
d="M54 0l483 700h112l-483 -700h-112zM41 543v97l77 60h86v-350h-86v253zM457 0v23q0 59 30 95.5t91 68.5q25 13 34 26.5t9 33.5q0 17 -11.5 28t-31.5 11q-18 0 -30 -10.5t-12 -29.5q0 -6 1 -12l-77 -26q-9 18 -9 40q0 44 34 77t91 33q63 0 95.5 -29t32.5 -78q0 -40 -20 -68
t-65 -52q-58 -32 -60 -60h152v-71h-254z" />
    <glyph glyph-name="threequarters" unicode="&#xbe;" horiz-adv-x="787" 
d="M106 0l483 700h112l-483 -700h-112zM438 57v72l160 221h84v-221h45v-72h-45v-57h-81v57h-163zM527 129h74v103zM46 452l78 20q10 -54 54 -54q18 0 32 13t14 34t-13.5 34.5t-34.5 13.5q-14 0 -28 -8l-39 53l81 74h-132v68h227v-60l-72 -62q41 -7 66.5 -36t25.5 -77
q0 -56 -34.5 -89.5t-92.5 -33.5t-91.5 31t-40.5 79z" />
    <glyph glyph-name="questiondown" unicode="&#xbf;" horiz-adv-x="544" 
d="M224 323h108v-42q0 -66 -18 -111.5t-68 -77.5q-72 -46 -72 -109q0 -33 29.5 -54.5t72.5 -21.5q40 0 70.5 25.5t30.5 65.5q0 21 -5 36l117 45q14 -38 14 -72q0 -86 -61 -147.5t-167 -61.5q-104 0 -166.5 47.5t-62.5 125.5q0 62 28 103.5t91 84.5q33 23 46 55t13 82v27z
M342 514v-122h-126v122h126z" />
    <glyph glyph-name="Agrave" unicode="&#xc0;" horiz-adv-x="728" 
d="M10 0l285 700h138l285 -700h-147l-57 147h-300l-57 -147h-147zM364 539l-106 -276h212zM437 751h-96l-129 143h147z" />
    <glyph glyph-name="Aacute" unicode="&#xc1;" horiz-adv-x="728" 
d="M10 0l285 700h138l285 -700h-147l-57 147h-300l-57 -147h-147zM364 539l-106 -276h212zM388 751h-96l78 143h147z" />
    <glyph glyph-name="Acircumflex" unicode="&#xc2;" horiz-adv-x="728" 
d="M10 0l285 700h138l285 -700h-147l-57 147h-300l-57 -147h-147zM364 539l-106 -276h212zM291 751h-95l122 143h92l122 -143h-95l-73 61z" />
    <glyph glyph-name="Atilde" unicode="&#xc3;" horiz-adv-x="728" 
d="M10 0l285 700h138l285 -700h-147l-57 147h-300l-57 -147h-147zM364 539l-106 -276h212zM287 753h-74q0 52 25.5 83t70.5 31q30 0 57 -17.5t44 -17.5q12 0 21 9t10 24h74q0 -52 -25.5 -83t-70.5 -31q-30 0 -57 17.5t-44 17.5q-12 0 -21 -9t-10 -24z" />
    <glyph glyph-name="Adieresis" unicode="&#xc4;" horiz-adv-x="728" 
d="M10 0l285 700h138l285 -700h-147l-57 147h-300l-57 -147h-147zM364 539l-106 -276h212zM395 778v116h112v-116h-112zM221 778v116h112v-116h-112z" />
    <glyph glyph-name="Aring" unicode="&#xc5;" horiz-adv-x="728" 
d="M10 0l285 700h138l285 -700h-147l-57 147h-300l-57 -147h-147zM364 539l-106 -276h212zM254 866q0 46 31.5 78t78.5 32t78.5 -32t31.5 -78t-31.5 -78t-78.5 -32t-78.5 32t-31.5 78zM322 866q0 -18 12 -30t30 -12t30 12t12 30t-12 30t-30 12t-30 -12t-12 -30z" />
    <glyph glyph-name="AE" unicode="&#xc6;" horiz-adv-x="968" 
d="M443 0v147h-222l-64 -147h-147l324 700h575v-116h-336v-174h310v-114h-310v-180h344v-116h-474zM414 584l-142 -321h171v321h-29z" />
    <glyph glyph-name="Ccedilla" unicode="&#xc7;" horiz-adv-x="714" 
d="M302 -79l16 69q-121 21 -194.5 117t-73.5 243q0 166 94.5 266t241.5 100q118 0 196.5 -59.5t98.5 -166.5l-128 -26q-16 64 -59.5 100t-107.5 36q-91 0 -148.5 -66t-57.5 -184q0 -116 58 -183t149 -67q68 0 110.5 41t60.5 110l125 -26q-25 -113 -103 -177t-195 -64h-7
l-17 -33q20 15 47 15q37 0 59 -22t22 -60q0 -40 -27.5 -63t-71.5 -23q-59 0 -85 47l54 36q7 -24 31 -24q11 0 19 7t8 20t-8.5 20t-19.5 7q-17 0 -26 -16z" />
    <glyph glyph-name="Egrave" unicode="&#xc8;" horiz-adv-x="600" 
d="M75 0v700h466v-116h-336v-174h310v-114h-310v-180h344v-116h-474zM387 751h-96l-129 143h147z" />
    <glyph glyph-name="Eacute" unicode="&#xc9;" horiz-adv-x="600" 
d="M75 0v700h466v-116h-336v-174h310v-114h-310v-180h344v-116h-474zM325 751h-96l78 143h147z" />
    <glyph glyph-name="Ecircumflex" unicode="&#xca;" horiz-adv-x="600" 
d="M75 0v700h466v-116h-336v-174h310v-114h-310v-180h344v-116h-474zM239 751h-95l122 143h92l122 -143h-95l-73 61z" />
    <glyph glyph-name="Edieresis" unicode="&#xcb;" horiz-adv-x="600" 
d="M75 0v700h466v-116h-336v-174h310v-114h-310v-180h344v-116h-474zM344 778v116h112v-116h-112zM170 778v116h112v-116h-112z" />
    <glyph glyph-name="Igrave" unicode="&#xcc;" horiz-adv-x="288" 
d="M82 0v700h130v-700h-130zM220 751h-96l-129 143h147z" />
    <glyph glyph-name="Iacute" unicode="&#xcd;" horiz-adv-x="288" 
d="M76 0v700h130v-700h-130zM164 751h-96l78 143h147z" />
    <glyph glyph-name="Icircumflex" unicode="&#xce;" horiz-adv-x="292" 
d="M81 0v700h130v-700h-130zM73 751h-95l122 143h92l122 -143h-95l-73 61z" />
    <glyph glyph-name="Idieresis" unicode="&#xcf;" horiz-adv-x="294" 
d="M82 0v700h130v-700h-130zM178 778v116h112v-116h-112zM4 778v116h112v-116h-112z" />
    <glyph glyph-name="Eth" unicode="&#xd0;" horiz-adv-x="719" 
d="M14 295v110h78v295h231q153 0 249.5 -91.5t96.5 -258.5t-96.5 -258.5t-249.5 -91.5h-231v295h-78zM329 116q94 0 152 59.5t58 174.5t-58 174.5t-152 59.5h-107v-179h149v-110h-149v-179h107z" />
    <glyph glyph-name="Ntilde" unicode="&#xd1;" horiz-adv-x="724" 
d="M218 700l305 -494v494h126v-700h-143l-305 494v-494h-126v700h143zM285 753h-74q0 52 25.5 83t70.5 31q30 0 57 -17.5t44 -17.5q12 0 21 9t10 24h74q0 -52 -25.5 -83t-70.5 -31q-30 0 -57 17.5t-44 17.5q-12 0 -21 -9t-10 -24z" />
    <glyph glyph-name="Ograve" unicode="&#xd2;" horiz-adv-x="772" 
d="M722 350q0 -167 -93.5 -266.5t-242.5 -99.5t-242.5 99.5t-93.5 266.5t93.5 266.5t242.5 99.5t242.5 -99.5t93.5 -266.5zM592 350q0 118 -57.5 184t-148.5 66t-148.5 -66t-57.5 -184t57.5 -184t148.5 -66t148.5 66t57.5 184zM449 751h-96l-129 143h147z" />
    <glyph glyph-name="Oacute" unicode="&#xd3;" horiz-adv-x="772" 
d="M722 350q0 -167 -93.5 -266.5t-242.5 -99.5t-242.5 99.5t-93.5 266.5t93.5 266.5t242.5 99.5t242.5 -99.5t93.5 -266.5zM592 350q0 118 -57.5 184t-148.5 66t-148.5 -66t-57.5 -184t57.5 -184t148.5 -66t148.5 66t57.5 184zM420 751h-96l78 143h147z" />
    <glyph glyph-name="Ocircumflex" unicode="&#xd4;" horiz-adv-x="772" 
d="M722 350q0 -167 -93.5 -266.5t-242.5 -99.5t-242.5 99.5t-93.5 266.5t93.5 266.5t242.5 99.5t242.5 -99.5t93.5 -266.5zM592 350q0 118 -57.5 184t-148.5 66t-148.5 -66t-57.5 -184t57.5 -184t148.5 -66t148.5 66t57.5 184zM313 751h-95l122 143h92l122 -143h-95l-73 61z
" />
    <glyph glyph-name="Otilde" unicode="&#xd5;" horiz-adv-x="772" 
d="M722 350q0 -167 -93.5 -266.5t-242.5 -99.5t-242.5 99.5t-93.5 266.5t93.5 266.5t242.5 99.5t242.5 -99.5t93.5 -266.5zM592 350q0 118 -57.5 184t-148.5 66t-148.5 -66t-57.5 -184t57.5 -184t148.5 -66t148.5 66t57.5 184zM309 753h-74q0 52 25.5 83t70.5 31
q30 0 57 -17.5t44 -17.5q12 0 21 9t10 24h74q0 -52 -25.5 -83t-70.5 -31q-30 0 -57 17.5t-44 17.5q-12 0 -21 -9t-10 -24z" />
    <glyph glyph-name="Odieresis" unicode="&#xd6;" horiz-adv-x="772" 
d="M722 350q0 -167 -93.5 -266.5t-242.5 -99.5t-242.5 99.5t-93.5 266.5t93.5 266.5t242.5 99.5t242.5 -99.5t93.5 -266.5zM592 350q0 118 -57.5 184t-148.5 66t-148.5 -66t-57.5 -184t57.5 -184t148.5 -66t148.5 66t57.5 184zM417 778v116h112v-116h-112zM243 778v116h112
v-116h-112z" />
    <glyph glyph-name="multiply" unicode="&#xd7;" horiz-adv-x="544" 
d="M139 93l-78 78l133 133l-133 133l78 78l133 -133l133 133l78 -78l-133 -133l133 -133l-78 -78l-133 133z" />
    <glyph glyph-name="Oslash" unicode="&#xd8;" horiz-adv-x="772" 
d="M722 350q0 -167 -93.5 -266.5t-242.5 -99.5q-80 0 -148 31l-47 -80l-73 42l49 83q-117 101 -117 290q0 167 93.5 266.5t242.5 99.5q80 0 148 -31l47 80l73 -42l-49 -83q117 -101 117 -290zM592 350q0 112 -52 178l-241 -409q38 -19 87 -19q91 0 148.5 66t57.5 184z
M180 350q0 -112 52 -178l241 409q-38 19 -87 19q-91 0 -148.5 -66t-57.5 -184z" />
    <glyph glyph-name="Ugrave" unicode="&#xd9;" horiz-adv-x="696" 
d="M66 266v434h130v-440q0 -72 41 -116t111 -44t111 44t41 116v440h130v-434q0 -138 -79.5 -210t-202.5 -72t-202.5 71.5t-79.5 210.5zM411 751h-96l-129 143h147z" />
    <glyph glyph-name="Uacute" unicode="&#xda;" horiz-adv-x="696" 
d="M66 266v434h130v-440q0 -72 41 -116t111 -44t111 44t41 116v440h130v-434q0 -138 -79.5 -210t-202.5 -72t-202.5 71.5t-79.5 210.5zM378 751h-96l78 143h147z" />
    <glyph glyph-name="Ucircumflex" unicode="&#xdb;" horiz-adv-x="696" 
d="M66 266v434h130v-440q0 -72 41 -116t111 -44t111 44t41 116v440h130v-434q0 -138 -79.5 -210t-202.5 -72t-202.5 71.5t-79.5 210.5zM275 751h-95l122 143h92l122 -143h-95l-73 61z" />
    <glyph glyph-name="Udieresis" unicode="&#xdc;" horiz-adv-x="696" 
d="M66 266v434h130v-440q0 -72 41 -116t111 -44t111 44t41 116v440h130v-434q0 -138 -79.5 -210t-202.5 -72t-202.5 71.5t-79.5 210.5zM379 778v116h112v-116h-112zM205 778v116h112v-116h-112z" />
    <glyph glyph-name="Yacute" unicode="&#xdd;" horiz-adv-x="642" 
d="M256 0v255l-248 445h149l164 -305l164 305h149l-248 -445v-255h-130zM347 751h-96l78 143h147z" />
    <glyph glyph-name="Thorn" unicode="&#xde;" horiz-adv-x="627" 
d="M75 0v700h130v-124h132q110 0 179.5 -59.5t69.5 -166.5t-69.5 -166.5t-179.5 -59.5h-132v-124h-130zM205 460v-220h126q60 0 92.5 28t32.5 82t-32.5 82t-92.5 28h-126z" />
    <glyph glyph-name="germandbls" unicode="&#xdf;" horiz-adv-x="569" 
d="M66 0v518q0 90 60 144t152 54t146 -45.5t54 -118.5q0 -50 -27 -88.5t-69 -58.5q62 -22 103.5 -70.5t41.5 -126.5q0 -101 -65 -162.5t-164 -61.5q-46 0 -74 10v106q22 -10 62 -10q49 0 83 30t34 90q0 65 -37 99t-99 34h-27v101h21q42 0 70 23.5t28 62.5q0 36 -21.5 57
t-57.5 21q-41 0 -65.5 -27t-24.5 -72v-509h-124z" />
    <glyph glyph-name="agrave" unicode="&#xe0;" horiz-adv-x="636" 
d="M466 514h104v-514h-104l-14 60q-60 -76 -157 -76q-102 0 -175.5 74.5t-73.5 198.5q0 123 74.5 198t173.5 75q103 0 158 -72zM313 416q-61 0 -102 -44t-41 -115t41 -115t102 -44t102 44t41 115t-41 115t-102 44zM381 565h-96l-129 143h147z" />
    <glyph glyph-name="aacute" unicode="&#xe1;" horiz-adv-x="636" 
d="M466 514h104v-514h-104l-14 60q-60 -76 -157 -76q-102 0 -175.5 74.5t-73.5 198.5q0 123 74.5 198t173.5 75q103 0 158 -72zM313 416q-61 0 -102 -44t-41 -115t41 -115t102 -44t102 44t41 115t-41 115t-102 44zM339 565h-96l78 143h147z" />
    <glyph glyph-name="acircumflex" unicode="&#xe2;" horiz-adv-x="636" 
d="M466 514h104v-514h-104l-14 60q-60 -76 -157 -76q-102 0 -175.5 74.5t-73.5 198.5q0 123 74.5 198t173.5 75q103 0 158 -72zM313 416q-61 0 -102 -44t-41 -115t41 -115t102 -44t102 44t41 115t-41 115t-102 44zM251 565h-95l122 143h92l122 -143h-95l-73 61z" />
    <glyph glyph-name="atilde" unicode="&#xe3;" horiz-adv-x="636" 
d="M466 514h104v-514h-104l-14 60q-60 -76 -157 -76q-102 0 -175.5 74.5t-73.5 198.5q0 123 74.5 198t173.5 75q103 0 158 -72zM313 416q-61 0 -102 -44t-41 -115t41 -115t102 -44t102 44t41 115t-41 115t-102 44zM238 567h-74q0 52 25.5 83t70.5 31q30 0 57 -17.5t44 -17.5
q12 0 21 9t10 24h74q0 -52 -25.5 -83t-70.5 -31q-30 0 -57 17.5t-44 17.5q-12 0 -21 -9t-10 -24z" />
    <glyph glyph-name="adieresis" unicode="&#xe4;" horiz-adv-x="636" 
d="M466 514h104v-514h-104l-14 60q-60 -76 -157 -76q-102 0 -175.5 74.5t-73.5 198.5q0 123 74.5 198t173.5 75q103 0 158 -72zM313 416q-61 0 -102 -44t-41 -115t41 -115t102 -44t102 44t41 115t-41 115t-102 44zM346 592v116h112v-116h-112zM172 592v116h112v-116h-112z
" />
    <glyph glyph-name="aring" unicode="&#xe5;" horiz-adv-x="636" 
d="M466 514h104v-514h-104l-14 60q-60 -76 -157 -76q-102 0 -175.5 74.5t-73.5 198.5q0 123 74.5 198t173.5 75q103 0 158 -72zM313 416q-61 0 -102 -44t-41 -115t41 -115t102 -44t102 44t41 115t-41 115t-102 44zM202 680q0 46 31.5 78t78.5 32t78.5 -32t31.5 -78
t-31.5 -78t-78.5 -32t-78.5 32t-31.5 78zM270 680q0 -18 12 -30t30 -12t30 12t12 30t-12 30t-30 12t-30 -12t-12 -30z" />
    <glyph glyph-name="ae" unicode="&#xe6;" horiz-adv-x="1016" 
d="M966 222h-386q7 -59 44 -93.5t94 -34.5q92 0 127 82l115 -38q-31 -74 -94 -114t-148 -40q-39 0 -79.5 16.5t-66.5 41.5l-9 -42h-97l-14 60q-60 -76 -157 -76q-102 0 -175.5 74.5t-73.5 198.5q0 123 74.5 198t173.5 75q103 0 158 -72l14 56h97l9 -47q22 28 64.5 45.5
t88.5 17.5q103 0 172 -68.5t69 -193.5v-46zM313 416q-61 0 -102 -44t-41 -115t41 -115t102 -44t102 44t41 115t-41 115t-102 44zM719 426q-52 0 -87 -30t-48 -81h262q-15 111 -127 111z" />
    <glyph glyph-name="ccedilla" unicode="&#xe7;" horiz-adv-x="591" 
d="M225 -79l17 71q-87 20 -141.5 90t-54.5 175q0 124 75.5 198.5t186.5 74.5q93 0 154.5 -46.5t77.5 -133.5l-114 -23q-10 39 -42 64t-77 25q-62 0 -99.5 -44.5t-37.5 -114.5t38 -114.5t99 -44.5q89 0 117 94l119 -41q-57 -167 -236 -167h-7l-16 -33q20 15 47 15
q37 0 59 -22t22 -60q0 -40 -27.5 -63t-71.5 -23q-59 0 -85 47l54 36q7 -24 31 -24q11 0 19 7t8 20t-8.5 20t-19.5 7q-17 0 -26 -16z" />
    <glyph glyph-name="egrave" unicode="&#xe8;" horiz-adv-x="606" 
d="M556 222h-386q7 -59 44 -93.5t94 -34.5q92 0 127 82l115 -38q-31 -74 -94 -114t-148 -40q-120 0 -191 76.5t-71 196.5q0 118 76.5 195.5t186.5 77.5q107 0 177 -68.5t70 -193.5v-46zM309 426q-52 0 -87 -30t-48 -81h262q-15 111 -127 111zM373 565h-96l-129 143h147z" />
    <glyph glyph-name="eacute" unicode="&#xe9;" horiz-adv-x="606" 
d="M556 222h-386q7 -59 44 -93.5t94 -34.5q92 0 127 82l115 -38q-31 -74 -94 -114t-148 -40q-120 0 -191 76.5t-71 196.5q0 118 76.5 195.5t186.5 77.5q107 0 177 -68.5t70 -193.5v-46zM309 426q-52 0 -87 -30t-48 -81h262q-15 111 -127 111zM333 565h-96l78 143h147z" />
    <glyph glyph-name="ecircumflex" unicode="&#xea;" horiz-adv-x="606" 
d="M556 222h-386q7 -59 44 -93.5t94 -34.5q92 0 127 82l115 -38q-31 -74 -94 -114t-148 -40q-120 0 -191 76.5t-71 196.5q0 118 76.5 195.5t186.5 77.5q107 0 177 -68.5t70 -193.5v-46zM309 426q-52 0 -87 -30t-48 -81h262q-15 111 -127 111zM235 565h-95l122 143h92
l122 -143h-95l-73 61z" />
    <glyph glyph-name="edieresis" unicode="&#xeb;" horiz-adv-x="606" 
d="M556 222h-386q7 -59 44 -93.5t94 -34.5q92 0 127 82l115 -38q-31 -74 -94 -114t-148 -40q-120 0 -191 76.5t-71 196.5q0 118 76.5 195.5t186.5 77.5q107 0 177 -68.5t70 -193.5v-46zM309 426q-52 0 -87 -30t-48 -81h262q-15 111 -127 111zM341 592v116h112v-116h-112z
M167 592v116h112v-116h-112z" />
    <glyph glyph-name="igrave" unicode="&#xec;" horiz-adv-x="262" 
d="M71 0v514h124v-514h-124zM206 565h-96l-129 143h147z" />
    <glyph glyph-name="iacute" unicode="&#xed;" horiz-adv-x="262" 
d="M67 0v514h124v-514h-124zM153 565h-96l78 143h147z" />
    <glyph glyph-name="icircumflex" unicode="&#xee;" horiz-adv-x="262" 
d="M69 0v514h124v-514h-124zM58 565h-95l122 143h92l122 -143h-95l-73 61z" />
    <glyph glyph-name="idieresis" unicode="&#xef;" horiz-adv-x="268" 
d="M72 0v514h124v-514h-124zM165 592v116h112v-116h-112zM-9 592v116h112v-116h-112z" />
    <glyph glyph-name="eth" unicode="&#xf0;" horiz-adv-x="638" 
d="M271 544l-25 69l49 17q-42 22 -95 40l34 85q108 -29 182 -82l95 33l26 -68l-57 -20q112 -120 112 -308q0 -144 -78.5 -235t-199.5 -91q-116 0 -192 77t-76 195q0 117 75.5 195.5t180.5 78.5q48 0 90 -21.5t66 -59.5q-26 74 -88 130zM316 414q-61 0 -102.5 -44t-41.5 -114
q0 -69 41.5 -112.5t102.5 -43.5t102.5 43t41.5 112q0 70 -41.5 114.5t-102.5 44.5z" />
    <glyph glyph-name="ntilde" unicode="&#xf1;" 
d="M178 514l12 -66q23 33 67 57.5t99 24.5q89 0 139.5 -52.5t50.5 -146.5v-331h-124v305q0 52 -27 82.5t-77 30.5q-56 0 -92 -43.5t-36 -112.5v-262h-124v514h112zM238 567h-74q0 52 25.5 83t70.5 31q30 0 57 -17.5t44 -17.5q12 0 21 9t10 24h74q0 -52 -25.5 -83t-70.5 -31
q-30 0 -57 17.5t-44 17.5q-12 0 -21 -9t-10 -24z" />
    <glyph glyph-name="ograve" unicode="&#xf2;" horiz-adv-x="620" 
d="M310 -16q-111 0 -187.5 74.5t-76.5 198.5t76.5 198.5t187.5 74.5t187.5 -74.5t76.5 -198.5t-76.5 -198.5t-187.5 -74.5zM310 416q-62 0 -100 -44.5t-38 -114.5t38 -114.5t100 -44.5t100 44.5t38 114.5t-38 114.5t-100 44.5zM373 565h-96l-129 143h147z" />
    <glyph glyph-name="oacute" unicode="&#xf3;" horiz-adv-x="620" 
d="M310 -16q-111 0 -187.5 74.5t-76.5 198.5t76.5 198.5t187.5 74.5t187.5 -74.5t76.5 -198.5t-76.5 -198.5t-187.5 -74.5zM310 416q-62 0 -100 -44.5t-38 -114.5t38 -114.5t100 -44.5t100 44.5t38 114.5t-38 114.5t-100 44.5zM344 565h-96l78 143h147z" />
    <glyph glyph-name="ocircumflex" unicode="&#xf4;" horiz-adv-x="620" 
d="M310 -16q-111 0 -187.5 74.5t-76.5 198.5t76.5 198.5t187.5 74.5t187.5 -74.5t76.5 -198.5t-76.5 -198.5t-187.5 -74.5zM310 416q-62 0 -100 -44.5t-38 -114.5t38 -114.5t100 -44.5t100 44.5t38 114.5t-38 114.5t-100 44.5zM237 565h-95l122 143h92l122 -143h-95l-73 61z
" />
    <glyph glyph-name="otilde" unicode="&#xf5;" horiz-adv-x="620" 
d="M310 -16q-111 0 -187.5 74.5t-76.5 198.5t76.5 198.5t187.5 74.5t187.5 -74.5t76.5 -198.5t-76.5 -198.5t-187.5 -74.5zM310 416q-62 0 -100 -44.5t-38 -114.5t38 -114.5t100 -44.5t100 44.5t38 114.5t-38 114.5t-100 44.5zM233 567h-74q0 52 25.5 83t70.5 31
q30 0 57 -17.5t44 -17.5q12 0 21 9t10 24h74q0 -52 -25.5 -83t-70.5 -31q-30 0 -57 17.5t-44 17.5q-12 0 -21 -9t-10 -24z" />
    <glyph glyph-name="odieresis" unicode="&#xf6;" horiz-adv-x="620" 
d="M310 -16q-111 0 -187.5 74.5t-76.5 198.5t76.5 198.5t187.5 74.5t187.5 -74.5t76.5 -198.5t-76.5 -198.5t-187.5 -74.5zM310 416q-62 0 -100 -44.5t-38 -114.5t38 -114.5t100 -44.5t100 44.5t38 114.5t-38 114.5t-100 44.5zM341 592v116h112v-116h-112zM167 592v116h112
v-116h-112z" />
    <glyph glyph-name="divide" unicode="&#xf7;" horiz-adv-x="568" 
d="M41 208v110h486v-110h-486zM216 390v136h136v-136h-136zM216 0v136h136v-136h-136z" />
    <glyph glyph-name="oslash" unicode="&#xf8;" horiz-adv-x="620" 
d="M310 -16q-53 0 -104 19l-39 -66l-69 40l40 67q-92 77 -92 213q0 124 76.5 198.5t187.5 74.5q53 0 104 -19l39 66l69 -40l-40 -67q92 -77 92 -213q0 -124 -76.5 -198.5t-187.5 -74.5zM310 416q-62 0 -100 -44.5t-38 -114.5q0 -65 30 -105l152 257q-20 7 -44 7zM448 257
q0 65 -30 105l-152 -257q20 -7 44 -7q62 0 100 44.5t38 114.5z" />
    <glyph glyph-name="ugrave" unicode="&#xf9;" 
d="M430 0l-10 66q-59 -82 -156 -82q-94 0 -146 54.5t-52 157.5v318h124v-303q0 -53 26.5 -84t77.5 -31q59 0 93.5 43t34.5 113v262h124v-514h-116zM369 565h-96l-129 143h147z" />
    <glyph glyph-name="uacute" unicode="&#xfa;" 
d="M430 0l-10 66q-59 -82 -156 -82q-94 0 -146 54.5t-52 157.5v318h124v-303q0 -53 26.5 -84t77.5 -31q59 0 93.5 43t34.5 113v262h124v-514h-116zM342 565h-96l78 143h147z" />
    <glyph glyph-name="ucircumflex" unicode="&#xfb;" 
d="M430 0l-10 66q-59 -82 -156 -82q-94 0 -146 54.5t-52 157.5v318h124v-303q0 -53 26.5 -84t77.5 -31q59 0 93.5 43t34.5 113v262h124v-514h-116zM233 565h-95l122 143h92l122 -143h-95l-73 61z" />
    <glyph glyph-name="udieresis" unicode="&#xfc;" 
d="M430 0l-10 66q-59 -82 -156 -82q-94 0 -146 54.5t-52 157.5v318h124v-303q0 -53 26.5 -84t77.5 -31q59 0 93.5 43t34.5 113v262h124v-514h-116zM334 592v116h112v-116h-112zM160 592v116h112v-116h-112z" />
    <glyph glyph-name="yacute" unicode="&#xfd;" horiz-adv-x="570" 
d="M209 -34l17 44l-209 504h142l130 -336l128 336h140l-236 -587q-52 -129 -162 -129q-50 0 -90 20l31 113q26 -12 51 -12q40 0 58 47zM310 565h-96l78 143h147z" />
    <glyph glyph-name="thorn" unicode="&#xfe;" horiz-adv-x="630" 
d="M66 -186v886h124v-235q58 65 156 65q100 0 169 -74t69 -199t-72 -199t-177 -74q-95 0 -145 65v-235h-124zM320 98q61 0 100.5 43.5t39.5 115.5t-39.5 115.5t-100.5 43.5t-100.5 -43.5t-39.5 -115.5t39.5 -115.5t100.5 -43.5z" />
    <glyph glyph-name="ydieresis" unicode="&#xff;" horiz-adv-x="570" 
d="M209 -34l17 44l-209 504h142l130 -336l128 336h140l-236 -587q-52 -129 -162 -129q-50 0 -90 20l31 113q26 -12 51 -12q40 0 58 47zM316 592v116h112v-116h-112zM142 592v116h112v-116h-112z" />
    <glyph glyph-name="Amacron" unicode="&#x100;" horiz-adv-x="728" 
d="M10 0l285 700h138l285 -700h-147l-57 147h-300l-57 -147h-147zM364 539l-106 -276h212zM240 780v90h248v-90h-248z" />
    <glyph glyph-name="amacron" unicode="&#x101;" horiz-adv-x="636" 
d="M466 514h104v-514h-104l-14 60q-60 -76 -157 -76q-102 0 -175.5 74.5t-73.5 198.5q0 123 74.5 198t173.5 75q103 0 158 -72zM313 416q-61 0 -102 -44t-41 -115t41 -115t102 -44t102 44t41 115t-41 115t-102 44zM192 594v90h248v-90h-248z" />
    <glyph glyph-name="Abreve" unicode="&#x102;" horiz-adv-x="728" 
d="M10 0l285 700h138l285 -700h-147l-57 147h-300l-57 -147h-147zM364 539l-106 -276h212zM364 763q-58 0 -91 32t-33 91h86q0 -46 38 -46t38 46h86q0 -59 -33 -91t-91 -32z" />
    <glyph glyph-name="abreve" unicode="&#x103;" horiz-adv-x="636" 
d="M466 514h104v-514h-104l-14 60q-60 -76 -157 -76q-102 0 -175.5 74.5t-73.5 198.5q0 123 74.5 198t173.5 75q103 0 158 -72zM313 416q-61 0 -102 -44t-41 -115t41 -115t102 -44t102 44t41 115t-41 115t-102 44zM320 577q-58 0 -91 32t-33 91h86q0 -46 38 -46t38 46h86
q0 -59 -33 -91t-91 -32z" />
    <glyph glyph-name="Aogonek" unicode="&#x104;" horiz-adv-x="728" 
d="M639 0h-68l-57 147h-300l-57 -147h-147l285 700h138l285 -700q-48 -26 -48 -59q0 -13 8 -21t21 -8q7 0 19 4l7 -66q-20 -10 -48 -10q-38 0 -63 21.5t-25 57.5q0 48 50 81zM364 539l-106 -276h212z" />
    <glyph glyph-name="aogonek" unicode="&#x105;" horiz-adv-x="636" 
d="M491 0h-25l-14 60q-60 -76 -157 -76q-102 0 -175.5 74.5t-73.5 198.5q0 123 74.5 198t173.5 75q103 0 158 -72l14 56h104v-514q-48 -26 -48 -59q0 -13 8 -21t21 -8q7 0 19 4l7 -66q-20 -10 -48 -10q-38 0 -63 21.5t-25 57.5q0 48 50 81zM313 416q-61 0 -102 -44t-41 -115
t41 -115t102 -44t102 44t41 115t-41 115t-102 44z" />
    <glyph glyph-name="Cacute" unicode="&#x106;" horiz-adv-x="714" 
d="M558 251l125 -26q-25 -113 -103 -177t-195 -64q-148 0 -241.5 99.5t-93.5 266.5q0 166 94.5 266t241.5 100q118 0 196.5 -59.5t98.5 -166.5l-128 -26q-16 64 -59.5 100t-107.5 36q-91 0 -148.5 -66t-57.5 -184q0 -116 58 -183t149 -67q68 0 110.5 41t60.5 110zM419 751
h-96l78 143h147z" />
    <glyph glyph-name="cacute" unicode="&#x107;" horiz-adv-x="591" 
d="M424 192l119 -41q-57 -167 -236 -167q-111 0 -186 74.5t-75 198.5t75.5 198.5t186.5 74.5q93 0 154.5 -46.5t77.5 -133.5l-114 -23q-10 39 -42 64t-77 25q-62 0 -99.5 -44.5t-37.5 -114.5t38 -114.5t99 -44.5q89 0 117 94zM329 565h-96l78 143h147z" />
    <glyph glyph-name="Ccircumflex" unicode="&#x108;" horiz-adv-x="714" 
d="M558 251l125 -26q-25 -113 -103 -177t-195 -64q-148 0 -241.5 99.5t-93.5 266.5q0 166 94.5 266t241.5 100q118 0 196.5 -59.5t98.5 -166.5l-128 -26q-16 64 -59.5 100t-107.5 36q-91 0 -148.5 -66t-57.5 -184q0 -116 58 -183t149 -67q68 0 110.5 41t60.5 110zM313 751
h-95l122 143h92l122 -143h-95l-73 61z" />
    <glyph glyph-name="ccircumflex" unicode="&#x109;" horiz-adv-x="591" 
d="M424 192l119 -41q-57 -167 -236 -167q-111 0 -186 74.5t-75 198.5t75.5 198.5t186.5 74.5q93 0 154.5 -46.5t77.5 -133.5l-114 -23q-10 39 -42 64t-77 25q-62 0 -99.5 -44.5t-37.5 -114.5t38 -114.5t99 -44.5q89 0 117 94zM232 565h-95l122 143h92l122 -143h-95l-73 61z
" />
    <glyph glyph-name="Cdotaccent" unicode="&#x10a;" horiz-adv-x="714" 
d="M558 251l125 -26q-25 -113 -103 -177t-195 -64q-148 0 -241.5 99.5t-93.5 266.5q0 166 94.5 266t241.5 100q118 0 196.5 -59.5t98.5 -166.5l-128 -26q-16 64 -59.5 100t-107.5 36q-91 0 -148.5 -66t-57.5 -184q0 -116 58 -183t149 -67q68 0 110.5 41t60.5 110zM320 771
v129h132v-129h-132z" />
    <glyph glyph-name="cdotaccent" unicode="&#x10b;" horiz-adv-x="591" 
d="M424 192l119 -41q-57 -167 -236 -167q-111 0 -186 74.5t-75 198.5t75.5 198.5t186.5 74.5q93 0 154.5 -46.5t77.5 -133.5l-114 -23q-10 39 -42 64t-77 25q-62 0 -99.5 -44.5t-37.5 -114.5t38 -114.5t99 -44.5q89 0 117 94zM241 585v129h132v-129h-132z" />
    <glyph glyph-name="Ccaron" unicode="&#x10c;" horiz-adv-x="714" 
d="M558 251l125 -26q-25 -113 -103 -177t-195 -64q-148 0 -241.5 99.5t-93.5 266.5q0 166 94.5 266t241.5 100q118 0 196.5 -59.5t98.5 -166.5l-128 -26q-16 64 -59.5 100t-107.5 36q-91 0 -148.5 -66t-57.5 -184q0 -116 58 -183t149 -67q68 0 110.5 41t60.5 110zM218 894
h95l73 -61l73 61h95l-122 -143h-92z" />
    <glyph glyph-name="ccaron" unicode="&#x10d;" horiz-adv-x="591" 
d="M424 192l119 -41q-57 -167 -236 -167q-111 0 -186 74.5t-75 198.5t75.5 198.5t186.5 74.5q93 0 154.5 -46.5t77.5 -133.5l-114 -23q-10 39 -42 64t-77 25q-62 0 -99.5 -44.5t-37.5 -114.5t38 -114.5t99 -44.5q89 0 117 94zM138 708h95l73 -61l73 61h95l-122 -143h-92z
" />
    <glyph glyph-name="Dcaron" unicode="&#x10e;" horiz-adv-x="702" 
d="M306 0h-231v700h231q153 0 249.5 -91.5t96.5 -258.5t-96.5 -258.5t-249.5 -91.5zM312 116q94 0 152 59.5t58 174.5t-58 174.5t-152 59.5h-107v-468h107zM75 894h95l73 -61l73 61h95l-122 -143h-92z" />
    <glyph glyph-name="dcaron" unicode="&#x10f;" horiz-adv-x="747" 
d="M625 598v102h112v-102q0 -55 -31.5 -81t-80.5 -26v58q47 0 47 49h-47zM564 700v-700h-104l-14 60q-60 -76 -154 -76q-102 0 -174 74.5t-72 198.5q0 123 73 198t170 75q100 0 151 -67v237h124zM310 416q-61 0 -100.5 -44t-39.5 -115t39.5 -115t100.5 -44t100.5 44
t39.5 115t-39.5 115t-100.5 44z" />
    <glyph glyph-name="Dcroat" unicode="&#x110;" horiz-adv-x="719" 
d="M14 295v110h78v295h231q153 0 249.5 -91.5t96.5 -258.5t-96.5 -258.5t-249.5 -91.5h-231v295h-78zM329 116q94 0 152 59.5t58 174.5t-58 174.5t-152 59.5h-107v-179h149v-110h-149v-179h107z" />
    <glyph glyph-name="dcroat" unicode="&#x111;" horiz-adv-x="633" 
d="M307 573v81h133v46h124v-46h56v-81h-56v-573h-104l-13 60q-60 -76 -155 -76q-102 0 -174 74.5t-72 198.5q0 123 73 198t170 75q100 0 151 -67v110h-133zM310 416q-61 0 -100.5 -44t-39.5 -115t39.5 -115t100.5 -44t100.5 44t39.5 115t-39.5 115t-100.5 44z" />
    <glyph glyph-name="Emacron" unicode="&#x112;" horiz-adv-x="600" 
d="M75 0v700h466v-116h-336v-174h310v-114h-310v-180h344v-116h-474zM193 780v90h248v-90h-248z" />
    <glyph glyph-name="emacron" unicode="&#x113;" horiz-adv-x="606" 
d="M556 222h-386q7 -59 44 -93.5t94 -34.5q92 0 127 82l115 -38q-31 -74 -94 -114t-148 -40q-120 0 -191 76.5t-71 196.5q0 118 76.5 195.5t186.5 77.5q107 0 177 -68.5t70 -193.5v-46zM309 426q-52 0 -87 -30t-48 -81h262q-15 111 -127 111zM186 594v90h248v-90h-248z" />
    <glyph glyph-name="Ebreve" unicode="&#x114;" horiz-adv-x="600" 
d="M75 0v700h466v-116h-336v-174h310v-114h-310v-180h344v-116h-474zM321 763q-58 0 -91 32t-33 91h86q0 -46 38 -46t38 46h86q0 -59 -33 -91t-91 -32z" />
    <glyph glyph-name="ebreve" unicode="&#x115;" horiz-adv-x="606" 
d="M556 222h-386q7 -59 44 -93.5t94 -34.5q92 0 127 82l115 -38q-31 -74 -94 -114t-148 -40q-120 0 -191 76.5t-71 196.5q0 118 76.5 195.5t186.5 77.5q107 0 177 -68.5t70 -193.5v-46zM309 426q-52 0 -87 -30t-48 -81h262q-15 111 -127 111zM308 577q-58 0 -91 32t-33 91
h86q0 -46 38 -46t38 46h86q0 -59 -33 -91t-91 -32z" />
    <glyph glyph-name="Edotaccent" unicode="&#x116;" horiz-adv-x="600" 
d="M75 0v700h466v-116h-336v-174h310v-114h-310v-180h344v-116h-474zM246 771v129h132v-129h-132z" />
    <glyph glyph-name="edotaccent" unicode="&#x117;" horiz-adv-x="606" 
d="M556 222h-386q7 -59 44 -93.5t94 -34.5q92 0 127 82l115 -38q-31 -74 -94 -114t-148 -40q-120 0 -191 76.5t-71 196.5q0 118 76.5 195.5t186.5 77.5q107 0 177 -68.5t70 -193.5v-46zM309 426q-52 0 -87 -30t-48 -81h262q-15 111 -127 111zM244 585v129h132v-129h-132z
" />
    <glyph glyph-name="Eogonek" unicode="&#x118;" horiz-adv-x="601" 
d="M75 0v700h466v-116h-336v-174h310v-114h-310v-180h344v-116q-48 -26 -48 -59q0 -13 8 -21t21 -8q7 0 19 4l7 -66q-20 -10 -48 -10q-38 0 -63 21.5t-25 57.5q0 48 50 81h-395z" />
    <glyph glyph-name="eogonek" unicode="&#x119;" horiz-adv-x="606" 
d="M556 222h-386q7 -58 44.5 -93t93.5 -35q92 0 127 82l115 -38q-39 -99 -138 -138q-22 -9 -35 -25t-13 -34q0 -13 8 -21t21 -8q7 0 19 4l7 -66q-20 -10 -48 -10q-38 0 -63 21.5t-25 57.5q0 38 29 65q-121 0 -193.5 76.5t-72.5 196.5q0 118 76.5 195.5t186.5 77.5
q107 0 177 -68.5t70 -193.5v-46zM309 426q-52 0 -87 -30t-48 -81h262q-15 111 -127 111z" />
    <glyph glyph-name="Ecaron" unicode="&#x11a;" horiz-adv-x="600" 
d="M75 0v700h466v-116h-336v-174h310v-114h-310v-180h344v-116h-474zM147 894h95l73 -61l73 61h95l-122 -143h-92z" />
    <glyph glyph-name="ecaron" unicode="&#x11b;" horiz-adv-x="606" 
d="M556 222h-386q7 -59 44 -93.5t94 -34.5q92 0 127 82l115 -38q-31 -74 -94 -114t-148 -40q-120 0 -191 76.5t-71 196.5q0 118 76.5 195.5t186.5 77.5q107 0 177 -68.5t70 -193.5v-46zM309 426q-52 0 -87 -30t-48 -81h262q-15 111 -127 111zM143 708h95l73 -61l73 61h95
l-122 -143h-92z" />
    <glyph glyph-name="Gcircumflex" unicode="&#x11c;" horiz-adv-x="765" 
d="M367 259v106h342v-225q-118 -156 -310 -156q-149 0 -249 101t-100 265q0 163 102 264.5t247 101.5q123 0 202.5 -60t100.5 -158l-123 -34q-16 64 -64.5 100t-116.5 36q-88 0 -153 -67.5t-65 -182.5q0 -114 65.5 -182t163.5 -68q107 0 178 89v70h-220zM329 751h-95
l122 143h92l122 -143h-95l-73 61z" />
    <glyph glyph-name="gcircumflex" unicode="&#x11d;" horiz-adv-x="622" 
d="M289 530q93 0 151 -68l12 52h104v-465q0 -119 -72 -185t-180 -66q-185 0 -240 149l109 40q38 -83 132 -83q55 0 92 34.5t37 94.5v38q-53 -71 -148 -71q-97 0 -168.5 71.5t-71.5 193.5q0 123 71.5 194t171.5 71zM309 114q61 0 97 41t36 110t-36 110t-97 41
q-62 0 -99.5 -41t-37.5 -110t37.5 -110t99.5 -41zM235 565h-95l122 143h92l122 -143h-95l-73 61z" />
    <glyph glyph-name="Gbreve" unicode="&#x11e;" horiz-adv-x="765" 
d="M367 259v106h342v-225q-118 -156 -310 -156q-149 0 -249 101t-100 265q0 163 102 264.5t247 101.5q123 0 202.5 -60t100.5 -158l-123 -34q-16 64 -64.5 100t-116.5 36q-88 0 -153 -67.5t-65 -182.5q0 -114 65.5 -182t163.5 -68q107 0 178 89v70h-220zM401 763
q-58 0 -91 32t-33 91h86q0 -46 38 -46t38 46h86q0 -59 -33 -91t-91 -32z" />
    <glyph glyph-name="gbreve" unicode="&#x11f;" horiz-adv-x="622" 
d="M289 530q93 0 151 -68l12 52h104v-465q0 -119 -72 -185t-180 -66q-185 0 -240 149l109 40q38 -83 132 -83q55 0 92 34.5t37 94.5v38q-53 -71 -148 -71q-97 0 -168.5 71.5t-71.5 193.5q0 123 71.5 194t171.5 71zM309 114q61 0 97 41t36 110t-36 110t-97 41
q-62 0 -99.5 -41t-37.5 -110t37.5 -110t99.5 -41zM299 577q-58 0 -91 32t-33 91h86q0 -46 38 -46t38 46h86q0 -59 -33 -91t-91 -32z" />
    <glyph glyph-name="Gdotaccent" unicode="&#x120;" horiz-adv-x="765" 
d="M367 259v106h342v-225q-118 -156 -310 -156q-149 0 -249 101t-100 265q0 163 102 264.5t247 101.5q123 0 202.5 -60t100.5 -158l-123 -34q-16 64 -64.5 100t-116.5 36q-88 0 -153 -67.5t-65 -182.5q0 -114 65.5 -182t163.5 -68q107 0 178 89v70h-220zM333 771v129h132
v-129h-132z" />
    <glyph glyph-name="gdotaccent" unicode="&#x121;" horiz-adv-x="622" 
d="M289 530q93 0 151 -68l12 52h104v-465q0 -119 -72 -185t-180 -66q-185 0 -240 149l109 40q38 -83 132 -83q55 0 92 34.5t37 94.5v38q-53 -71 -148 -71q-97 0 -168.5 71.5t-71.5 193.5q0 123 71.5 194t171.5 71zM309 114q61 0 97 41t36 110t-36 110t-97 41
q-62 0 -99.5 -41t-37.5 -110t37.5 -110t99.5 -41zM240 585v129h132v-129h-132z" />
    <glyph glyph-name="uni0122" unicode="&#x122;" horiz-adv-x="765" 
d="M353 -178v116h122v-116q0 -59 -34 -87.5t-88 -28.5v63q52 0 52 53h-52zM367 259v106h342v-225q-118 -156 -310 -156q-149 0 -249 101t-100 265q0 163 102 264.5t247 101.5q123 0 202.5 -60t100.5 -158l-123 -34q-16 64 -64.5 100t-116.5 36q-88 0 -153 -67.5t-65 -182.5
q0 -114 65.5 -182t163.5 -68q107 0 178 89v70h-220z" />
    <glyph glyph-name="uni0123" unicode="&#x123;" horiz-adv-x="622" 
d="M354 694v-108h-116v108q0 58 33 86t83 28v-61q-48 0 -50 -53h50zM289 530q93 0 151 -68l12 52h104v-465q0 -119 -72 -185t-180 -66q-185 0 -240 149l109 40q38 -83 132 -83q55 0 92 34.5t37 94.5v38q-53 -71 -148 -71q-97 0 -168.5 71.5t-71.5 193.5q0 123 71.5 194
t171.5 71zM309 114q61 0 97 41t36 110t-36 110t-97 41q-62 0 -99.5 -41t-37.5 -110t37.5 -110t99.5 -41z" />
    <glyph glyph-name="Hcircumflex" unicode="&#x124;" horiz-adv-x="698" 
d="M75 0v700h130v-289h288v289h130v-700h-130v295h-288v-295h-130zM276 751h-95l122 143h92l122 -143h-95l-73 61z" />
    <glyph glyph-name="hcircumflex" unicode="&#x125;" horiz-adv-x="621" 
d="M190 700v-253q24 35 68.5 59t99.5 24q93 0 145 -54.5t52 -152.5v-323h-124v297q0 59 -28.5 90t-82.5 31q-56 0 -93 -44t-37 -112v-262h-124v700h124zM162 751h-95l122 143h92l122 -143h-95l-73 61z" />
    <glyph glyph-name="Hbar" unicode="&#x126;" horiz-adv-x="694" 
d="M-2 505v92h75v103h130v-103h288v103h130v-103h75v-92h-75v-505h-130v295h-288v-295h-130v505h-75zM203 411h288v94h-288v-94z" />
    <glyph glyph-name="hbar" unicode="&#x127;" horiz-adv-x="626" 
d="M195 700v-46h139v-81h-139v-126q24 35 68.5 59t99.5 24q93 0 145 -54.5t52 -152.5v-323h-124v297q0 59 -28.5 90t-82.5 31q-56 0 -93 -44t-37 -112v-262h-124v573h-56v81h56v46h124z" />
    <glyph glyph-name="Itilde" unicode="&#x128;" horiz-adv-x="294" 
d="M82 0v700h130v-700h-130zM70 753h-74q0 52 25.5 83t70.5 31q30 0 57 -17.5t44 -17.5q12 0 21 9t10 24h74q0 -52 -25.5 -83t-70.5 -31q-30 0 -57 17.5t-44 17.5q-12 0 -21 -9t-10 -24z" />
    <glyph glyph-name="itilde" unicode="&#x129;" horiz-adv-x="266" 
d="M71 0v514h124v-514h-124zM56 567h-74q0 52 25.5 83t70.5 31q30 0 57 -17.5t44 -17.5q12 0 21 9t10 24h74q0 -52 -25.5 -83t-70.5 -31q-30 0 -57 17.5t-44 17.5q-12 0 -21 -9t-10 -24z" />
    <glyph glyph-name="Imacron" unicode="&#x12a;" horiz-adv-x="290" 
d="M80 0v700h130v-700h-130zM21 780v90h248v-90h-248z" />
    <glyph glyph-name="imacron" unicode="&#x12b;" horiz-adv-x="268" 
d="M72 0v514h124v-514h-124zM10 594v90h248v-90h-248z" />
    <glyph glyph-name="Ibreve" unicode="&#x12c;" horiz-adv-x="290" 
d="M80 0v700h130v-700h-130zM145 763q-58 0 -91 32t-33 91h86q0 -46 38 -46t38 46h86q0 -59 -33 -91t-91 -32z" />
    <glyph glyph-name="ibreve" unicode="&#x12d;" horiz-adv-x="268" 
d="M72 0v514h124v-514h-124zM134 577q-58 0 -91 32t-33 91h86q0 -46 38 -46t38 46h86q0 -59 -33 -91t-91 -32z" />
    <glyph glyph-name="Iogonek" unicode="&#x12e;" horiz-adv-x="281" 
d="M75 0v700h130v-700q-48 -26 -48 -59q0 -13 8 -21t21 -8q7 0 19 4l7 -66q-20 -10 -48 -10q-38 0 -63 21.5t-25 57.5q0 48 50 81h-51z" />
    <glyph glyph-name="iogonek" unicode="&#x12f;" horiz-adv-x="257" 
d="M66 0v514h124v-514q-48 -26 -48 -59q0 -13 8 -21t21 -8q7 0 19 4l7 -66q-20 -10 -48 -10q-38 0 -63 21.5t-25 57.5q0 48 50 81h-45zM62 585v129h132v-129h-132z" />
    <glyph glyph-name="Idotaccent" unicode="&#x130;" horiz-adv-x="288" 
d="M84 0v700h130v-700h-130zM74 771v129h132v-129h-132z" />
    <glyph glyph-name="dotlessi" unicode="&#x131;" horiz-adv-x="256" 
d="M66 0v514h124v-514h-124z" />
    <glyph glyph-name="IJ" unicode="&#x132;" horiz-adv-x="820" 
d="M75 0v700h130v-700h-130zM628 229v471h130v-465q0 -118 -62 -184.5t-172 -66.5q-98 0 -160.5 52.5t-75.5 148.5l121 25q12 -58 40 -84t74 -26q51 0 78 34.5t27 94.5z" />
    <glyph glyph-name="ij" unicode="&#x133;" horiz-adv-x="500" 
d="M66 0v514h124v-514h-124zM62 585v129h132v-129h-132zM434 514v-539q0 -91 -44.5 -134t-118.5 -43q-21 0 -46 5v105q20 -6 35 -6q24 0 37 16t13 44v552h124zM306 585v129h132v-129h-132z" />
    <glyph glyph-name="Jcircumflex" unicode="&#x134;" horiz-adv-x="586" 
d="M391 229v471h130v-465q0 -118 -62 -184.5t-172 -66.5q-98 0 -160.5 52.5t-75.5 148.5l121 25q12 -58 40 -84t74 -26q51 0 78 34.5t27 94.5zM383 751h-95l122 143h92l122 -143h-95l-73 61z" />
    <glyph glyph-name="jcircumflex" unicode="&#x135;" horiz-adv-x="263" 
d="M193 514v-539q0 -91 -44.5 -134t-118.5 -43q-21 0 -46 5v105q20 -6 35 -6q24 0 37 16t13 44v552h124zM57 565h-95l122 143h92l122 -143h-95l-73 61z" />
    <glyph glyph-name="uni0136" unicode="&#x136;" horiz-adv-x="640" 
d="M272 -178v116h122v-116q0 -59 -34 -87.5t-88 -28.5v63q52 0 52 53h-52zM75 0v700h130v-290l244 290h157l-285 -333l309 -367h-164l-261 310v-310h-130z" />
    <glyph glyph-name="uni0137" unicode="&#x137;" horiz-adv-x="551" 
d="M220 -178v116h122v-116q0 -59 -34 -87.5t-88 -28.5v63q52 0 52 53h-52zM66 0v700h124v-377l163 191h156l-204 -232l227 -282h-156l-186 229v-229h-124z" />
    <glyph glyph-name="kgreenlandic" unicode="&#x138;" horiz-adv-x="551" 
d="M66 514h124v-191l163 191h156l-204 -232l227 -282h-156l-186 229v-229h-124v514z" />
    <glyph glyph-name="Lacute" unicode="&#x139;" horiz-adv-x="598" 
d="M75 0v700h130v-584h346v-116h-476zM171 751h-96l78 143h147z" />
    <glyph glyph-name="lacute" unicode="&#x13a;" horiz-adv-x="260" 
d="M66 0v700h124v-700h-124zM162 751h-96l78 143h147z" />
    <glyph glyph-name="uni013B" unicode="&#x13b;" horiz-adv-x="597" 
d="M257 -178v116h122v-116q0 -59 -34 -87.5t-88 -28.5v63q52 0 52 53h-52zM75 0v700h130v-584h346v-116h-476z" />
    <glyph glyph-name="uni013C" unicode="&#x13c;" horiz-adv-x="256" 
d="M67 -178v116h122v-116q0 -59 -34 -87.5t-88 -28.5v63q52 0 52 53h-52zM66 0v700h124v-700h-124z" />
    <glyph glyph-name="Lcaron" unicode="&#x13d;" horiz-adv-x="597" 
d="M391 598v102h112v-102q0 -55 -31.5 -81t-80.5 -26v58q47 0 47 49h-47zM75 0v700h130v-584h346v-116h-476z" />
    <glyph glyph-name="lcaron" unicode="&#x13e;" horiz-adv-x="362" 
d="M240 598v102h112v-102q0 -55 -31.5 -81t-80.5 -26v58q47 0 47 49h-47zM66 0v700h124v-700h-124z" />
    <glyph glyph-name="Ldot" unicode="&#x13f;" horiz-adv-x="597" 
d="M75 0v700h130v-584h346v-116h-476zM413 282v136h136v-136h-136z" />
    <glyph glyph-name="ldot" unicode="&#x140;" horiz-adv-x="402" 
d="M66 0v700h124v-700h-124zM268 282v136h136v-136h-136z" />
    <glyph glyph-name="Lslash" unicode="&#x141;" horiz-adv-x="617" 
d="M95 0v230l-76 -40v122l76 40v348h130v-280l148 78v-122l-148 -78v-182h346v-116h-476z" />
    <glyph glyph-name="lslash" unicode="&#x142;" horiz-adv-x="304" 
d="M90 0v211l-71 -37v116l71 37v373h124v-307l71 38v-116l-71 -38v-277h-124z" />
    <glyph glyph-name="Nacute" unicode="&#x143;" horiz-adv-x="724" 
d="M218 700l305 -494v494h126v-700h-143l-305 494v-494h-126v700h143zM393 751h-96l78 143h147z" />
    <glyph glyph-name="nacute" unicode="&#x144;" 
d="M178 514l12 -66q23 33 67 57.5t99 24.5q89 0 139.5 -52.5t50.5 -146.5v-331h-124v305q0 52 -27 82.5t-77 30.5q-56 0 -92 -43.5t-36 -112.5v-262h-124v514h112zM341 565h-96l78 143h147z" />
    <glyph glyph-name="uni0145" unicode="&#x145;" horiz-adv-x="724" 
d="M301 -178v116h122v-116q0 -59 -34 -87.5t-88 -28.5v63q52 0 52 53h-52zM218 700l305 -494v494h126v-700h-143l-305 494v-494h-126v700h143z" />
    <glyph glyph-name="uni0146" unicode="&#x146;" 
d="M246 -178v116h122v-116q0 -59 -34 -87.5t-88 -28.5v63q52 0 52 53h-52zM178 514l12 -66q23 33 67 57.5t99 24.5q89 0 139.5 -52.5t50.5 -146.5v-331h-124v305q0 52 -27 82.5t-77 30.5q-56 0 -92 -43.5t-36 -112.5v-262h-124v514h112z" />
    <glyph glyph-name="Ncaron" unicode="&#x147;" horiz-adv-x="724" 
d="M218 700l305 -494v494h126v-700h-143l-305 494v-494h-126v700h143zM194 894h95l73 -61l73 61h95l-122 -143h-92z" />
    <glyph glyph-name="ncaron" unicode="&#x148;" 
d="M178 514l12 -66q23 33 67 57.5t99 24.5q89 0 139.5 -52.5t50.5 -146.5v-331h-124v305q0 52 -27 82.5t-77 30.5q-56 0 -92 -43.5t-36 -112.5v-262h-124v514h112zM144 708h95l73 -61l73 61h95l-122 -143h-92z" />
    <glyph glyph-name="napostrophe" unicode="&#x149;" horiz-adv-x="645" 
d="M5 658v102h112v-102q0 -55 -31.5 -81t-80.5 -26v58q47 0 47 49h-47zM211 514l12 -66q23 33 67 57.5t99 24.5q89 0 139.5 -52.5t50.5 -146.5v-331h-124v305q0 52 -27 82.5t-77 30.5q-56 0 -92 -43.5t-36 -112.5v-262h-124v514h112z" />
    <glyph glyph-name="Eng" unicode="&#x14a;" horiz-adv-x="724" 
d="M218 700l305 -486v486h126v-700q0 -45 -10.5 -79.5t-35.5 -63t-72.5 -44t-115.5 -15.5v116q55 0 81.5 18.5t26.5 67.5l-322 494v-494h-126v700h143z" />
    <glyph glyph-name="eng" unicode="&#x14b;" 
d="M178 514l12 -66q23 33 67 57.5t99 24.5q89 0 139.5 -52.5t50.5 -146.5v-356q0 -91 -44.5 -134t-118.5 -43q-21 0 -46 5v105q20 -6 35 -6q24 0 37 16t13 44v343q0 52 -27 82.5t-77 30.5q-56 0 -92 -43.5t-36 -112.5v-262h-124v514h112z" />
    <glyph glyph-name="Omacron" unicode="&#x14c;" horiz-adv-x="772" 
d="M722 350q0 -167 -93.5 -266.5t-242.5 -99.5t-242.5 99.5t-93.5 266.5t93.5 266.5t242.5 99.5t242.5 -99.5t93.5 -266.5zM592 350q0 118 -57.5 184t-148.5 66t-148.5 -66t-57.5 -184t57.5 -184t148.5 -66t148.5 66t57.5 184zM262 780v90h248v-90h-248z" />
    <glyph glyph-name="omacron" unicode="&#x14d;" horiz-adv-x="620" 
d="M310 -16q-111 0 -187.5 74.5t-76.5 198.5t76.5 198.5t187.5 74.5t187.5 -74.5t76.5 -198.5t-76.5 -198.5t-187.5 -74.5zM310 416q-62 0 -100 -44.5t-38 -114.5t38 -114.5t100 -44.5t100 44.5t38 114.5t-38 114.5t-100 44.5zM186 594v90h248v-90h-248z" />
    <glyph glyph-name="Obreve" unicode="&#x14e;" horiz-adv-x="772" 
d="M722 350q0 -167 -93.5 -266.5t-242.5 -99.5t-242.5 99.5t-93.5 266.5t93.5 266.5t242.5 99.5t242.5 -99.5t93.5 -266.5zM592 350q0 118 -57.5 184t-148.5 66t-148.5 -66t-57.5 -184t57.5 -184t148.5 -66t148.5 66t57.5 184zM386 763q-58 0 -91 32t-33 91h86q0 -46 38 -46
t38 46h86q0 -59 -33 -91t-91 -32z" />
    <glyph glyph-name="obreve" unicode="&#x14f;" horiz-adv-x="620" 
d="M310 -16q-111 0 -187.5 74.5t-76.5 198.5t76.5 198.5t187.5 74.5t187.5 -74.5t76.5 -198.5t-76.5 -198.5t-187.5 -74.5zM310 416q-62 0 -100 -44.5t-38 -114.5t38 -114.5t100 -44.5t100 44.5t38 114.5t-38 114.5t-100 44.5zM336 577q-58 0 -91 32t-33 91h86q0 -46 38 -46
t38 46h86q0 -59 -33 -91t-91 -32z" />
    <glyph glyph-name="Ohungarumlaut" unicode="&#x150;" horiz-adv-x="772" 
d="M722 350q0 -167 -93.5 -266.5t-242.5 -99.5t-242.5 99.5t-93.5 266.5t93.5 266.5t242.5 99.5t242.5 -99.5t93.5 -266.5zM592 350q0 118 -57.5 184t-148.5 66t-148.5 -66t-57.5 -184t57.5 -184t148.5 -66t148.5 66t57.5 184zM496 751h-79l43 143h137zM328 751h-79l43 143
h137z" />
    <glyph glyph-name="ohungarumlaut" unicode="&#x151;" horiz-adv-x="620" 
d="M310 -16q-111 0 -187.5 74.5t-76.5 198.5t76.5 198.5t187.5 74.5t187.5 -74.5t76.5 -198.5t-76.5 -198.5t-187.5 -74.5zM310 416q-62 0 -100 -44.5t-38 -114.5t38 -114.5t100 -44.5t100 44.5t38 114.5t-38 114.5t-100 44.5zM424 565h-79l43 143h137zM256 565h-79l43 143
h137z" />
    <glyph glyph-name="OE" unicode="&#x152;" horiz-adv-x="1117" 
d="M592 0v84q-31 -47 -85 -73.5t-121 -26.5q-149 0 -242.5 99.5t-93.5 266.5t93.5 266.5t242.5 99.5q64 0 119 -24.5t87 -68.5v77h466v-116h-336v-174h310v-114h-310v-180h344v-116h-474zM592 350q0 118 -57.5 184t-148.5 66t-148.5 -66t-57.5 -184t57.5 -184t148.5 -66
t148.5 66t57.5 184z" />
    <glyph glyph-name="oe" unicode="&#x153;" horiz-adv-x="1013" 
d="M310 -16q-111 0 -187.5 74.5t-76.5 198.5t76.5 198.5t187.5 74.5q123 0 204 -103q82 103 202 103q107 0 177 -68.5t70 -193.5v-46h-386q9 -59 47 -93.5t96 -34.5q87 0 122 82l115 -38q-29 -76 -90 -115t-147 -39q-67 0 -120.5 29t-86.5 75q-79 -104 -203 -104zM310 416
q-62 0 -100 -44.5t-38 -114.5t38 -114.5t100 -44.5t100 44.5t38 114.5t-38 114.5t-100 44.5zM716 426q-50 0 -86 -30.5t-49 -80.5h262q-7 52 -39.5 81.5t-87.5 29.5z" />
    <glyph glyph-name="Racute" unicode="&#x154;" horiz-adv-x="668" 
d="M466 0l-146 262h-115v-262h-130v700h263q108 0 178.5 -60t70.5 -159q0 -75 -34.5 -120t-97.5 -76l160 -285h-149zM205 584v-206h135q55 0 86 27t31 76t-31 76t-86 27h-135zM322 751h-96l78 143h147z" />
    <glyph glyph-name="racute" unicode="&#x155;" horiz-adv-x="387" 
d="M361 522l-22 -111q-18 7 -41 7q-45 0 -76.5 -40.5t-31.5 -100.5v-277h-124v514h112l12 -67q16 37 48.5 60t79.5 23q25 0 43 -8zM220 565h-96l78 143h147z" />
    <glyph glyph-name="uni0156" unicode="&#x156;" horiz-adv-x="668" 
d="M268 -178v116h122v-116q0 -59 -34 -87.5t-88 -28.5v63q52 0 52 53h-52zM466 0l-146 262h-115v-262h-130v700h263q108 0 178.5 -60t70.5 -159q0 -75 -34.5 -120t-97.5 -76l160 -285h-149zM205 584v-206h135q55 0 86 27t31 76t-31 76t-86 27h-135z" />
    <glyph glyph-name="uni0157" unicode="&#x157;" horiz-adv-x="387" 
d="M67 -178v116h122v-116q0 -59 -34 -87.5t-88 -28.5v63q52 0 52 53h-52zM361 522l-22 -111q-18 7 -41 7q-45 0 -76.5 -40.5t-31.5 -100.5v-277h-124v514h112l12 -67q16 37 48.5 60t79.5 23q25 0 43 -8z" />
    <glyph glyph-name="Rcaron" unicode="&#x158;" horiz-adv-x="668" 
d="M466 0l-146 262h-115v-262h-130v700h263q108 0 178.5 -60t70.5 -159q0 -75 -34.5 -120t-97.5 -76l160 -285h-149zM205 584v-206h135q55 0 86 27t31 76t-31 76t-86 27h-135zM117 894h95l73 -61l73 61h95l-122 -143h-92z" />
    <glyph glyph-name="rcaron" unicode="&#x159;" horiz-adv-x="391" 
d="M363 522l-22 -111q-18 7 -41 7q-45 0 -76.5 -40.5t-31.5 -100.5v-277h-124v514h112l12 -67q16 37 48.5 60t79.5 23q25 0 43 -8zM46 708h95l73 -61l73 61h95l-122 -143h-92z" />
    <glyph glyph-name="Sacute" unicode="&#x15a;" horiz-adv-x="683" 
d="M483 197q0 48 -40 74t-132 36q-104 11 -164.5 66.5t-60.5 143.5q0 91 72 145t178 54q114 0 181 -56.5t81 -151.5l-121 -24q-11 58 -51 90t-93 32q-49 0 -83 -22.5t-34 -63.5q0 -42 36 -67.5t120 -36.5q128 -17 184.5 -67.5t56.5 -140.5q0 -95 -71.5 -159.5t-188.5 -64.5
q-124 0 -200 66.5t-92 177.5l129 25q28 -155 165 -155q56 0 92 27.5t36 71.5zM367 751h-96l78 143h147z" />
    <glyph glyph-name="sacute" unicode="&#x15b;" horiz-adv-x="549" 
d="M373 152q0 29 -24.5 44t-87.5 22q-86 10 -135 51.5t-49 109.5q0 70 56 110.5t141 40.5q89 0 140.5 -43.5t62.5 -117.5l-112 -19q-6 40 -31 61.5t-63 21.5q-34 0 -56 -14t-22 -39q0 -56 112 -68q187 -20 187 -153q0 -76 -56.5 -125.5t-149.5 -49.5q-98 0 -160 52t-71 136
l114 22q10 -50 36.5 -76t79.5 -26q40 0 64 15.5t24 44.5zM301 565h-96l78 143h147z" />
    <glyph glyph-name="Scircumflex" unicode="&#x15c;" horiz-adv-x="683" 
d="M483 197q0 48 -40 74t-132 36q-104 11 -164.5 66.5t-60.5 143.5q0 91 72 145t178 54q114 0 181 -56.5t81 -151.5l-121 -24q-11 58 -51 90t-93 32q-49 0 -83 -22.5t-34 -63.5q0 -42 36 -67.5t120 -36.5q128 -17 184.5 -67.5t56.5 -140.5q0 -95 -71.5 -159.5t-188.5 -64.5
q-124 0 -200 66.5t-92 177.5l129 25q28 -155 165 -155q56 0 92 27.5t36 71.5zM272 751h-95l122 143h92l122 -143h-95l-73 61z" />
    <glyph glyph-name="scircumflex" unicode="&#x15d;" horiz-adv-x="549" 
d="M373 152q0 29 -24.5 44t-87.5 22q-86 10 -135 51.5t-49 109.5q0 70 56 110.5t141 40.5q89 0 140.5 -43.5t62.5 -117.5l-112 -19q-6 40 -31 61.5t-63 21.5q-34 0 -56 -14t-22 -39q0 -56 112 -68q187 -20 187 -153q0 -76 -56.5 -125.5t-149.5 -49.5q-98 0 -160 52t-71 136
l114 22q10 -50 36.5 -76t79.5 -26q40 0 64 15.5t24 44.5zM204 565h-95l122 143h92l122 -143h-95l-73 61z" />
    <glyph glyph-name="Scedilla" unicode="&#x15e;" horiz-adv-x="683" 
d="M263 -79l16 70q-92 18 -148 81t-70 156l129 25q28 -155 165 -155q56 0 92 27.5t36 71.5q0 48 -40 74t-132 36q-104 11 -164.5 66.5t-60.5 143.5q0 91 72 145t178 54q114 0 181 -56.5t81 -151.5l-121 -24q-11 58 -51 90t-93 32q-49 0 -83 -22.5t-34 -63.5q0 -42 36 -67.5
t120 -36.5q128 -17 184.5 -67.5t56.5 -140.5q0 -95 -71.5 -159.5t-188.5 -64.5h-14l-17 -33q20 15 47 15q37 0 59 -22t22 -60q0 -40 -27.5 -63t-71.5 -23q-59 0 -85 47l54 36q7 -24 31 -24q11 0 19 7t8 20t-8.5 20t-19.5 7q-17 0 -26 -16z" />
    <glyph glyph-name="scedilla" unicode="&#x15f;" horiz-adv-x="549" 
d="M203 -79l17 70q-71 16 -114 64t-51 117l114 22q10 -50 36.5 -76t79.5 -26q40 0 64 15.5t24 44.5t-24.5 44t-87.5 22q-86 10 -135 51.5t-49 109.5q0 70 56 110.5t141 40.5q89 0 140.5 -43.5t62.5 -117.5l-112 -19q-6 40 -31 61.5t-63 21.5q-34 0 -56 -14t-22 -39
q0 -56 112 -68q187 -20 187 -153q0 -76 -56.5 -125.5t-149.5 -49.5h-8l-16 -33q20 15 47 15q37 0 59 -22t22 -60q0 -40 -27.5 -63t-71.5 -23q-59 0 -85 47l54 36q7 -24 31 -24q11 0 19 7t8 20t-8.5 20t-19.5 7q-17 0 -26 -16z" />
    <glyph glyph-name="Scaron" unicode="&#x160;" horiz-adv-x="683" 
d="M483 197q0 48 -40 74t-132 36q-104 11 -164.5 66.5t-60.5 143.5q0 91 72 145t178 54q114 0 181 -56.5t81 -151.5l-121 -24q-11 58 -51 90t-93 32q-49 0 -83 -22.5t-34 -63.5q0 -42 36 -67.5t120 -36.5q128 -17 184.5 -67.5t56.5 -140.5q0 -95 -71.5 -159.5t-188.5 -64.5
q-124 0 -200 66.5t-92 177.5l129 25q28 -155 165 -155q56 0 92 27.5t36 71.5zM167 894h95l73 -61l73 61h95l-122 -143h-92z" />
    <glyph glyph-name="scaron" unicode="&#x161;" horiz-adv-x="549" 
d="M373 152q0 29 -24.5 44t-87.5 22q-86 10 -135 51.5t-49 109.5q0 70 56 110.5t141 40.5q89 0 140.5 -43.5t62.5 -117.5l-112 -19q-6 40 -31 61.5t-63 21.5q-34 0 -56 -14t-22 -39q0 -56 112 -68q187 -20 187 -153q0 -76 -56.5 -125.5t-149.5 -49.5q-98 0 -160 52t-71 136
l114 22q10 -50 36.5 -76t79.5 -26q40 0 64 15.5t24 44.5zM108 708h95l73 -61l73 61h95l-122 -143h-92z" />
    <glyph glyph-name="uni0162" unicode="&#x162;" horiz-adv-x="620" 
d="M249 -178v116h122v-116q0 -59 -34 -87.5t-88 -28.5v63q52 0 52 53h-52zM28 584v116h564v-116h-217v-584h-130v584h-217z" />
    <glyph glyph-name="uni0163" unicode="&#x163;" horiz-adv-x="382" 
d="M176 -178v116h122v-116q0 -59 -34 -87.5t-88 -28.5v63q52 0 52 53h-52zM117 646h124v-132h98v-99h-98v-241q0 -72 59 -72q20 0 41 7v-109q-24 -8 -67 -8q-71 0 -114 40t-43 125v258h-76v99h76v132z" />
    <glyph glyph-name="Tcaron" unicode="&#x164;" horiz-adv-x="620" 
d="M28 584v116h564v-116h-217v-584h-130v584h-217zM142 894h95l73 -61l73 61h95l-122 -143h-92z" />
    <glyph glyph-name="tcaron" unicode="&#x165;" horiz-adv-x="402" 
d="M294 677v101h106v-101q0 -52 -30 -77.5t-76 -25.5v55q47 0 47 48h-47zM117 646h124v-132h98v-99h-98v-241q0 -72 59 -72q20 0 41 7v-109q-24 -8 -67 -8q-71 0 -114 40t-43 125v258h-76v99h76v132z" />
    <glyph glyph-name="Tbar" unicode="&#x166;" horiz-adv-x="620" 
d="M28 584v116h564v-116h-217v-147h155v-92h-155v-345h-130v345h-155v92h155v147h-217z" />
    <glyph glyph-name="tbar" unicode="&#x167;" horiz-adv-x="382" 
d="M117 646h124v-132h98v-99h-98v-90h97v-81h-97v-70q0 -72 59 -72q20 0 41 7v-109q-24 -8 -67 -8q-71 0 -114 40t-43 125v87h-75v81h75v90h-76v99h76v132z" />
    <glyph glyph-name="Utilde" unicode="&#x168;" horiz-adv-x="696" 
d="M66 266v434h130v-440q0 -72 41 -116t111 -44t111 44t41 116v440h130v-434q0 -138 -79.5 -210t-202.5 -72t-202.5 71.5t-79.5 210.5zM271 753h-74q0 52 25.5 83t70.5 31q30 0 57 -17.5t44 -17.5q12 0 21 9t10 24h74q0 -52 -25.5 -83t-70.5 -31q-30 0 -57 17.5t-44 17.5
q-12 0 -21 -9t-10 -24z" />
    <glyph glyph-name="utilde" unicode="&#x169;" 
d="M430 0l-10 66q-59 -82 -156 -82q-94 0 -146 54.5t-52 157.5v318h124v-303q0 -53 26.5 -84t77.5 -31q59 0 93.5 43t34.5 113v262h124v-514h-116zM224 567h-74q0 52 25.5 83t70.5 31q30 0 57 -17.5t44 -17.5q12 0 21 9t10 24h74q0 -52 -25.5 -83t-70.5 -31q-30 0 -57 17.5
t-44 17.5q-12 0 -21 -9t-10 -24z" />
    <glyph glyph-name="Umacron" unicode="&#x16a;" horiz-adv-x="696" 
d="M66 266v434h130v-440q0 -72 41 -116t111 -44t111 44t41 116v440h130v-434q0 -138 -79.5 -210t-202.5 -72t-202.5 71.5t-79.5 210.5zM224 780v90h248v-90h-248z" />
    <glyph glyph-name="umacron" unicode="&#x16b;" 
d="M430 0l-10 66q-59 -82 -156 -82q-94 0 -146 54.5t-52 157.5v318h124v-303q0 -53 26.5 -84t77.5 -31q59 0 93.5 43t34.5 113v262h124v-514h-116zM182 594v90h248v-90h-248z" />
    <glyph glyph-name="Ubreve" unicode="&#x16c;" horiz-adv-x="696" 
d="M66 266v434h130v-440q0 -72 41 -116t111 -44t111 44t41 116v440h130v-434q0 -138 -79.5 -210t-202.5 -72t-202.5 71.5t-79.5 210.5zM348 763q-58 0 -91 32t-33 91h86q0 -46 38 -46t38 46h86q0 -59 -33 -91t-91 -32z" />
    <glyph glyph-name="ubreve" unicode="&#x16d;" 
d="M430 0l-10 66q-59 -82 -156 -82q-94 0 -146 54.5t-52 157.5v318h124v-303q0 -53 26.5 -84t77.5 -31q59 0 93.5 43t34.5 113v262h124v-514h-116zM305 577q-58 0 -91 32t-33 91h86q0 -46 38 -46t38 46h86q0 -59 -33 -91t-91 -32z" />
    <glyph glyph-name="Uring" unicode="&#x16e;" horiz-adv-x="696" 
d="M66 266v434h130v-440q0 -72 41 -116t111 -44t111 44t41 116v440h130v-434q0 -138 -79.5 -210t-202.5 -72t-202.5 71.5t-79.5 210.5zM238 866q0 46 31.5 78t78.5 32t78.5 -32t31.5 -78t-31.5 -78t-78.5 -32t-78.5 32t-31.5 78zM306 866q0 -18 12 -30t30 -12t30 12t12 30
t-12 30t-30 12t-30 -12t-12 -30z" />
    <glyph glyph-name="uring" unicode="&#x16f;" 
d="M430 0l-10 66q-59 -82 -156 -82q-94 0 -146 54.5t-52 157.5v318h124v-303q0 -53 26.5 -84t77.5 -31q59 0 93.5 43t34.5 113v262h124v-514h-116zM199 680q0 46 31.5 78t78.5 32t78.5 -32t31.5 -78t-31.5 -78t-78.5 -32t-78.5 32t-31.5 78zM267 680q0 -18 12 -30t30 -12
t30 12t12 30t-12 30t-30 12t-30 -12t-12 -30z" />
    <glyph glyph-name="Uhungarumlaut" unicode="&#x170;" horiz-adv-x="696" 
d="M66 266v434h130v-440q0 -72 41 -116t111 -44t111 44t41 116v440h130v-434q0 -138 -79.5 -210t-202.5 -72t-202.5 71.5t-79.5 210.5zM464 751h-79l43 143h137zM296 751h-79l43 143h137z" />
    <glyph glyph-name="uhungarumlaut" unicode="&#x171;" 
d="M430 0l-10 66q-59 -82 -156 -82q-94 0 -146 54.5t-52 157.5v318h124v-303q0 -53 26.5 -84t77.5 -31q59 0 93.5 43t34.5 113v262h124v-514h-116zM409 565h-79l43 143h137zM241 565h-79l43 143h137z" />
    <glyph glyph-name="Uogonek" unicode="&#x172;" horiz-adv-x="696" 
d="M66 266v434h130v-440q0 -72 41 -116t111 -44t111 44t41 116v440h130v-434q0 -203 -176 -266q-22 -8 -35 -24.5t-13 -34.5q0 -13 8 -21t21 -8q7 0 19 4l7 -66q-20 -10 -48 -10q-38 0 -63 21.5t-25 57.5q0 38 29 65h-6q-123 0 -202.5 71.5t-79.5 210.5z" />
    <glyph glyph-name="uogonek" unicode="&#x173;" horiz-adv-x="606" 
d="M430 0l-10 66q-59 -82 -156 -82q-94 0 -146 54.5t-52 157.5v318h124v-303q0 -53 26.5 -84t77.5 -31q59 0 93.5 43t34.5 113v262h124v-514q-48 -26 -48 -59q0 -13 8 -21t21 -8q7 0 19 4l7 -66q-20 -10 -48 -10q-38 0 -63 21.5t-25 57.5q0 48 50 81h-37z" />
    <glyph glyph-name="Wcircumflex" unicode="&#x174;" horiz-adv-x="1004" 
d="M293 182l134 518h150l134 -522l142 522h140l-206 -700h-146l-139 534l-139 -534h-146l-206 700h140zM429 751h-95l122 143h92l122 -143h-95l-73 61z" />
    <glyph glyph-name="wcircumflex" unicode="&#x175;" horiz-adv-x="816" 
d="M470 514l105 -342l103 342h127l-168 -514h-121l-108 362l-108 -362h-121l-168 514h127l103 -342l105 342h124zM335 565h-95l122 143h92l122 -143h-95l-73 61z" />
    <glyph glyph-name="Ycircumflex" unicode="&#x176;" horiz-adv-x="642" 
d="M256 0v255l-248 445h149l164 -305l164 305h149l-248 -445v-255h-130zM248 751h-95l122 143h92l122 -143h-95l-73 61z" />
    <glyph glyph-name="ycircumflex" unicode="&#x177;" horiz-adv-x="570" 
d="M209 -34l17 44l-209 504h142l130 -336l128 336h140l-236 -587q-52 -129 -162 -129q-50 0 -90 20l31 113q26 -12 51 -12q40 0 58 47zM213 565h-95l122 143h92l122 -143h-95l-73 61z" />
    <glyph glyph-name="Ydieresis" unicode="&#x178;" horiz-adv-x="642" 
d="M256 0v255l-248 445h149l164 -305l164 305h149l-248 -445v-255h-130zM352 778v116h112v-116h-112zM178 778v116h112v-116h-112z" />
    <glyph glyph-name="Zacute" unicode="&#x179;" horiz-adv-x="604" 
d="M54 584v116h497v-93l-351 -491h361v-116h-517v93l353 491h-343zM311 751h-96l78 143h147z" />
    <glyph glyph-name="zacute" unicode="&#x17a;" horiz-adv-x="499" 
d="M49 417v97h404v-89l-275 -327h286v-98h-427v90l277 327h-265zM262 565h-96l78 143h147z" />
    <glyph glyph-name="Zdotaccent" unicode="&#x17b;" horiz-adv-x="604" 
d="M54 584v116h497v-93l-351 -491h361v-116h-517v93l353 491h-343zM233 771v129h132v-129h-132z" />
    <glyph glyph-name="zdotaccent" unicode="&#x17c;" horiz-adv-x="499" 
d="M49 417v97h404v-89l-275 -327h286v-98h-427v90l277 327h-265zM189 585v129h132v-129h-132z" />
    <glyph glyph-name="Zcaron" unicode="&#x17d;" horiz-adv-x="604" 
d="M54 584v116h497v-93l-351 -491h361v-116h-517v93l353 491h-343zM132 894h95l73 -61l73 61h95l-122 -143h-92z" />
    <glyph glyph-name="zcaron" unicode="&#x17e;" horiz-adv-x="499" 
d="M49 417v97h404v-89l-275 -327h286v-98h-427v90l277 327h-265zM82 708h95l73 -61l73 61h95l-122 -143h-92z" />
    <glyph glyph-name="longs" unicode="&#x17f;" horiz-adv-x="353" 
d="M105 0v415h-72v99h72v28q0 88 46 131t119 43q20 0 60 -5v-108q-21 7 -42 7q-26 0 -42.5 -16t-16.5 -48v-546h-124z" />
    <glyph glyph-name="uni018E" unicode="&#x18e;" horiz-adv-x="600" 
d="M538 700v-700h-466v116h336v174h-310v114h310v180h-344v116h474z" />
    <glyph glyph-name="florin" unicode="&#x192;" horiz-adv-x="357" 
d="M36 415v99h72v28q0 88 46 131t119 43q20 0 60 -5v-108q-21 7 -42 7q-26 0 -42.5 -16t-16.5 -48v-32h102v-99h-102v-443q0 -89 -41 -131.5t-110 -42.5q-26 0 -58 6v107q21 -7 41 -7q19 0 31.5 15t12.5 41v455h-72z" />
    <glyph glyph-name="uni01DD" unicode="&#x1dd;" horiz-adv-x="606" 
d="M57 292h386q-7 59 -44 93.5t-94 34.5q-92 0 -127 -82l-115 38q31 74 94 114t148 40q120 0 191 -76.5t71 -196.5q0 -118 -76.5 -195.5t-186.5 -77.5q-107 0 -177 68.5t-70 193.5v46zM304 88q52 0 87 30t48 81h-262q15 -111 127 -111z" />
    <glyph glyph-name="AEacute" unicode="&#x1fc;" horiz-adv-x="968" 
d="M642 751h-96l78 143h147zM443 0v147h-222l-64 -147h-147l324 700h575v-116h-336v-174h310v-114h-310v-180h344v-116h-474zM414 584l-142 -321h171v321h-29z" />
    <glyph glyph-name="aeacute" unicode="&#x1fd;" horiz-adv-x="1016" 
d="M966 222h-386q7 -59 44 -93.5t94 -34.5q92 0 127 82l115 -38q-31 -74 -94 -114t-148 -40q-39 0 -79.5 16.5t-66.5 41.5l-9 -42h-97l-14 60q-60 -76 -157 -76q-102 0 -175.5 74.5t-73.5 198.5q0 123 74.5 198t173.5 75q103 0 158 -72l14 56h97l9 -47q22 28 64.5 45.5
t88.5 17.5q103 0 172 -68.5t69 -193.5v-46zM313 416q-61 0 -102 -44t-41 -115t41 -115t102 -44t102 44t41 115t-41 115t-102 44zM719 426q-52 0 -87 -30t-48 -81h262q-15 111 -127 111zM563 565h-96l78 143h147z" />
    <glyph glyph-name="circumflex" unicode="&#x2c6;" horiz-adv-x="452" 
d="M153 565h-95l122 143h92l122 -143h-95l-73 61z" />
    <glyph glyph-name="caron" unicode="&#x2c7;" horiz-adv-x="452" 
d="M58 708h95l73 -61l73 61h95l-122 -143h-92z" />
    <glyph glyph-name="breve" unicode="&#x2d8;" horiz-adv-x="420" 
d="M210 577q-58 0 -91 32t-33 91h86q0 -46 38 -46t38 46h86q0 -59 -33 -91t-91 -32z" />
    <glyph glyph-name="dotaccent" unicode="&#x2d9;" horiz-adv-x="256" 
d="M62 585v129h132v-129h-132z" />
    <glyph glyph-name="ring" unicode="&#x2da;" horiz-adv-x="388" 
d="M84 680q0 46 31.5 78t78.5 32t78.5 -32t31.5 -78t-31.5 -78t-78.5 -32t-78.5 32t-31.5 78zM152 680q0 -18 12 -30t30 -12t30 12t12 30t-12 30t-30 12t-30 -12t-12 -30z" />
    <glyph glyph-name="ogonek" unicode="&#x2db;" horiz-adv-x="276" 
d="M131 0h79q-48 -26 -48 -59q0 -13 8 -21t21 -8q7 0 19 4l7 -66q-20 -10 -48 -10q-38 0 -63 21.5t-25 57.5q0 48 50 81z" />
    <glyph glyph-name="tilde" unicode="&#x2dc;" horiz-adv-x="384" 
d="M115 567h-74q0 52 25.5 83t70.5 31q30 0 57 -17.5t44 -17.5q12 0 21 9t10 24h74q0 -52 -25.5 -83t-70.5 -31q-30 0 -57 17.5t-44 17.5q-12 0 -21 -9t-10 -24z" />
    <glyph glyph-name="hungarumlaut" unicode="&#x2dd;" horiz-adv-x="410" 
d="M278 565h-79l43 143h137zM110 565h-79l43 143h137z" />
    <glyph glyph-name="uni0374" unicode="&#x374;" horiz-adv-x="327" 
d="M162 595h-86l33 175h142z" />
    <glyph glyph-name="uni0375" unicode="&#x375;" horiz-adv-x="309" 
d="M156 115h86l-33 -175h-142z" />
    <glyph glyph-name="uni037A" unicode="&#x37a;" horiz-adv-x="250" 
d="M204 -58v-86q-20 -6 -41 -6q-56 0 -86.5 26.5t-30.5 93.5v50h98v-40q0 -43 35 -43q10 0 25 5z" />
    <glyph glyph-name="uni037E" unicode="&#x37e;" horiz-adv-x="242" 
d="M53 0v136h136v-136q0 -66 -38.5 -97.5t-97.5 -31.5v73q57 0 58 56h-58zM53 331v136h136v-136h-136z" />
    <glyph glyph-name="tonos" unicode="&#x384;" horiz-adv-x="337" 
d="M165 565h-84l37 143h138z" />
    <glyph glyph-name="dieresistonos" unicode="&#x385;" horiz-adv-x="504" 
d="M361 592v116h112v-116h-112zM31 592v116h112v-116h-112zM249 579h-81l35 146h138z" />
    <glyph glyph-name="Alphatonos" unicode="&#x386;" horiz-adv-x="728" 
d="M10 0l285 700h138l285 -700h-147l-57 147h-300l-57 -147h-147zM364 539l-106 -276h212zM142 565h-84l37 143h138z" />
    <glyph glyph-name="anoteleia" unicode="&#x387;" horiz-adv-x="242" 
d="M53 282v136h136v-136h-136z" />
    <glyph glyph-name="Epsilontonos" unicode="&#x388;" horiz-adv-x="746" 
d="M221 0v700h466v-116h-336v-174h310v-114h-310v-180h344v-116h-474zM105 565h-84l37 143h138z" />
    <glyph glyph-name="Etatonos" unicode="&#x389;" horiz-adv-x="844" 
d="M221 0v700h130v-289h288v289h130v-700h-130v295h-288v-295h-130zM105 565h-84l37 143h138z" />
    <glyph glyph-name="Iotatonos" unicode="&#x38a;" horiz-adv-x="426" 
d="M221 0v700h130v-700h-130zM105 565h-84l37 143h138z" />
    <glyph glyph-name="Omicrontonos" unicode="&#x38c;" horiz-adv-x="840" 
d="M790 350q0 -167 -93.5 -266.5t-242.5 -99.5t-242.5 99.5t-93.5 266.5t93.5 266.5t242.5 99.5t242.5 -99.5t93.5 -266.5zM660 350q0 118 -57.5 184t-148.5 66t-148.5 -66t-57.5 -184t57.5 -184t148.5 -66t148.5 66t57.5 184zM105 565h-84l37 143h138z" />
    <glyph glyph-name="Upsilontonos" unicode="&#x38e;" horiz-adv-x="849" 
d="M463 0v255l-248 445h149l164 -305l164 305h149l-248 -445v-255h-130zM105 565h-84l37 143h138z" />
    <glyph glyph-name="Omegatonos" unicode="&#x38f;" horiz-adv-x="886" 
d="M475 600q-86 0 -148 -57t-62 -159q0 -86 46.5 -161.5t114.5 -121.5v-101h-269v110h108q-58 51 -94 128.5t-36 155.5q0 149 96 235.5t244 86.5t244 -86.5t96 -235.5q0 -78 -36 -155.5t-94 -128.5h108v-110h-269v101q68 46 114.5 121.5t46.5 161.5q0 102 -62 159t-148 57z
M105 565h-84l37 143h138z" />
    <glyph glyph-name="iotadieresistonos" unicode="&#x390;" horiz-adv-x="427" 
d="M139 514h124v-344q0 -68 56 -68q20 0 41 7v-109q-29 -8 -67 -8q-70 0 -112 40t-42 125v357zM319 592v116h112v-116h-112zM-11 592v116h112v-116h-112zM207 579h-81l35 146h138z" />
    <glyph glyph-name="Alpha" unicode="&#x391;" horiz-adv-x="728" 
d="M10 0l285 700h138l285 -700h-147l-57 147h-300l-57 -147h-147zM364 539l-106 -276h212z" />
    <glyph glyph-name="Beta" unicode="&#x392;" horiz-adv-x="673" 
d="M75 0v700h308q89 0 152.5 -47t63.5 -132q0 -92 -84 -150q50 -22 81 -63.5t31 -95.5q0 -101 -72.5 -156.5t-172.5 -55.5h-307zM205 302v-186h183q49 0 79 23.5t30 69.5t-30 69.5t-79 23.5h-183zM205 590v-176h170q44 0 71 22.5t27 65.5t-27.5 65.5t-70.5 22.5h-170z" />
    <glyph glyph-name="Gamma" unicode="&#x393;" horiz-adv-x="603" 
d="M75 0v700h486v-116h-356v-584h-130z" />
    <glyph glyph-name="uni0394" unicode="&#x394;" horiz-adv-x="728" 
d="M10 0l284 700h140l284 -700h-708zM364 534l-162 -418h324z" />
    <glyph glyph-name="Epsilon" unicode="&#x395;" horiz-adv-x="600" 
d="M75 0v700h466v-116h-336v-174h310v-114h-310v-180h344v-116h-474z" />
    <glyph glyph-name="Zeta" unicode="&#x396;" horiz-adv-x="604" 
d="M54 584v116h497v-93l-351 -491h361v-116h-517v93l353 491h-343z" />
    <glyph glyph-name="Eta" unicode="&#x397;" horiz-adv-x="698" 
d="M75 0v700h130v-289h288v289h130v-700h-130v295h-288v-295h-130z" />
    <glyph glyph-name="Theta" unicode="&#x398;" horiz-adv-x="694" 
d="M644 350q0 -170 -78.5 -268t-218.5 -98t-218.5 98t-78.5 268t78.5 268t218.5 98t218.5 -98t78.5 -268zM347 600q-69 0 -111.5 -49.5t-52.5 -142.5h328q-10 93 -52.5 142.5t-111.5 49.5zM347 100q69 0 111.5 49.5t52.5 142.5h-328q10 -93 52.5 -142.5t111.5 -49.5z" />
    <glyph glyph-name="Iota" unicode="&#x399;" horiz-adv-x="280" 
d="M75 0v700h130v-700h-130z" />
    <glyph glyph-name="Kappa" unicode="&#x39a;" horiz-adv-x="640" 
d="M75 0v700h130v-290l244 290h157l-285 -333l309 -367h-164l-261 310v-310h-130z" />
    <glyph glyph-name="Lambda" unicode="&#x39b;" horiz-adv-x="698" 
d="M542 0l-193 533l-193 -533h-146l268 700h142l268 -700h-146z" />
    <glyph glyph-name="Mu" unicode="&#x39c;" horiz-adv-x="870" 
d="M435 144l211 556h149v-700h-126v440l-167 -440h-134l-167 440v-440h-126v700h149z" />
    <glyph glyph-name="Nu" unicode="&#x39d;" horiz-adv-x="724" 
d="M218 700l305 -494v494h126v-700h-143l-305 494v-494h-126v700h143z" />
    <glyph glyph-name="Xi" unicode="&#x39e;" horiz-adv-x="603" 
d="M552 0h-501v116h501v-116zM544 700v-116h-485v116h485zM518 296h-433v114h433v-114z" />
    <glyph glyph-name="Omicron" unicode="&#x39f;" horiz-adv-x="772" 
d="M722 350q0 -167 -93.5 -266.5t-242.5 -99.5t-242.5 99.5t-93.5 266.5t93.5 266.5t242.5 99.5t242.5 -99.5t93.5 -266.5zM592 350q0 118 -57.5 184t-148.5 66t-148.5 -66t-57.5 -184t57.5 -184t148.5 -66t148.5 66t57.5 184z" />
    <glyph glyph-name="Pi" unicode="&#x3a0;" horiz-adv-x="698" 
d="M75 0v700h548v-700h-130v584h-288v-584h-130z" />
    <glyph glyph-name="Rho" unicode="&#x3a1;" horiz-adv-x="627" 
d="M75 0v700h262q110 0 179.5 -59.5t69.5 -166.5t-69.5 -166.5t-179.5 -59.5h-132v-248h-130zM205 584v-220h126q60 0 92.5 28t32.5 82t-32.5 82t-92.5 28h-126z" />
    <glyph glyph-name="Sigma" unicode="&#x3a3;" horiz-adv-x="601" 
d="M233 356l-185 247v97h497v-116h-339l170 -228l-179 -240h361v-116h-519v98z" />
    <glyph glyph-name="Tau" unicode="&#x3a4;" horiz-adv-x="620" 
d="M28 584v116h564v-116h-217v-584h-130v584h-217z" />
    <glyph glyph-name="Upsilon" unicode="&#x3a5;" horiz-adv-x="642" 
d="M256 0v255l-248 445h149l164 -305l164 305h149l-248 -445v-255h-130z" />
    <glyph glyph-name="Phi" unicode="&#x3a6;" horiz-adv-x="802" 
d="M466 72v-72h-130v72q-130 2 -212.5 77.5t-82.5 200.5t82.5 200.5t212.5 77.5v72h130v-72q130 -2 212.5 -77.5t82.5 -200.5t-82.5 -200.5t-212.5 -77.5zM631 350q0 76 -45.5 118t-119.5 44v-324q74 2 119.5 44t45.5 118zM336 188v324q-74 -2 -119.5 -44t-45.5 -118
t45.5 -118t119.5 -44z" />
    <glyph glyph-name="Chi" unicode="&#x3a7;" horiz-adv-x="659" 
d="M199 700l130 -215l131 215h156l-210 -331l232 -369h-156l-153 249l-152 -249h-156l231 369l-210 331h157z" />
    <glyph glyph-name="Psi" unicode="&#x3a8;" horiz-adv-x="802" 
d="M336 0v159q-114 2 -189.5 72.5t-75.5 198.5v270h130v-278q0 -68 36.5 -107.5t98.5 -39.5v425h130v-425q62 0 98.5 39.5t36.5 107.5v278h130v-270q0 -128 -75.5 -198.5t-189.5 -72.5v-159h-130z" />
    <glyph glyph-name="uni03A9" unicode="&#x3a9;" horiz-adv-x="782" 
d="M391 600q-86 0 -148 -57t-62 -159q0 -86 46.5 -161.5t114.5 -121.5v-101h-269v110h108q-58 51 -94 128.5t-36 155.5q0 149 96 235.5t244 86.5t244 -86.5t96 -235.5q0 -78 -36 -155.5t-94 -128.5h108v-110h-269v101q68 46 114.5 121.5t46.5 161.5q0 102 -62 159t-148 57z
" />
    <glyph glyph-name="Iotadieresis" unicode="&#x3aa;" horiz-adv-x="294" 
d="M82 0v700h130v-700h-130zM179 778v116h112v-116h-112zM5 778v116h112v-116h-112z" />
    <glyph glyph-name="Upsilondieresis" unicode="&#x3ab;" horiz-adv-x="642" 
d="M256 0v255l-248 445h149l164 -305l164 305h149l-248 -445v-255h-130zM352 778v116h112v-116h-112zM178 778v116h112v-116h-112z" />
    <glyph glyph-name="alphatonos" unicode="&#x3ac;" horiz-adv-x="687" 
d="M654 98v-114q-73 0 -109.5 24.5t-59.5 78.5q-29 -51 -79 -77t-107 -26q-108 0 -178.5 73.5t-70.5 199.5q0 125 72 199t175 74q134 0 183 -102l25 86h131l-81 -273l21 -70q12 -39 30 -56t48 -17zM303 98q60 0 94 43t34 116t-34 116t-94 43t-94.5 -43.5t-34.5 -115.5
t34.5 -115.5t94.5 -43.5zM355 565h-84l37 143h138z" />
    <glyph glyph-name="epsilontonos" unicode="&#x3ad;" horiz-adv-x="501" 
d="M432 380l-112 -16q-2 31 -21.5 50t-50.5 19q-29 0 -47.5 -14.5t-18.5 -37.5q0 -29 22.5 -44t55.5 -15h32v-86h-37q-41 0 -64.5 -20t-23.5 -54q0 -33 23.5 -52t60.5 -19q78 0 91 87l111 -22q-13 -78 -63.5 -125t-140.5 -47q-87 0 -145 49t-58 121q0 97 86 134
q-62 37 -62 108q0 60 49 97t130 37t128.5 -42t54.5 -108zM278 565h-84l37 143h138z" />
    <glyph glyph-name="etatonos" unicode="&#x3ae;" 
d="M178 514l12 -66q23 33 67 57.5t99 24.5q89 0 139.5 -52.5t50.5 -146.5v-517h-124v491q0 52 -27 82.5t-77 30.5q-56 0 -92 -43.5t-36 -112.5v-262h-124v514h112zM345 565h-84l37 143h138z" />
    <glyph glyph-name="iotatonos" unicode="&#x3af;" horiz-adv-x="318" 
d="M66 514h124v-344q0 -68 56 -68q20 0 41 7v-109q-29 -8 -67 -8q-70 0 -112 40t-42 125v357zM152 565h-84l37 143h138z" />
    <glyph glyph-name="upsilondieresistonos" unicode="&#x3b0;" 
d="M546 514v-303q0 -110 -66.5 -168.5t-173.5 -58.5t-173.5 58.5t-66.5 168.5v303h124v-292q0 -58 31.5 -92t84.5 -34t84.5 34t31.5 92v292h124zM415 592v116h112v-116h-112zM85 592v116h112v-116h-112zM303 579h-81l35 146h138z" />
    <glyph glyph-name="alpha" unicode="&#x3b1;" horiz-adv-x="687" 
d="M654 98v-114q-73 0 -109.5 24.5t-59.5 78.5q-29 -51 -79 -77t-107 -26q-108 0 -178.5 73.5t-70.5 199.5q0 125 72 199t175 74q134 0 183 -102l25 86h131l-81 -273l21 -70q12 -39 30 -56t48 -17zM303 98q60 0 94 43t34 116t-34 116t-94 43t-94.5 -43.5t-34.5 -115.5
t34.5 -115.5t94.5 -43.5z" />
    <glyph glyph-name="beta" unicode="&#x3b2;" horiz-adv-x="573" 
d="M66 -186v694q0 97 60 152.5t152 55.5t146 -45.5t54 -118.5q0 -50 -27 -88.5t-69 -58.5q62 -22 103.5 -70.5t41.5 -126.5q0 -101 -65 -162.5t-164 -61.5q-60 0 -108 20v-190h-124zM190 509v-391q54 -28 96 -28q49 0 83 30t34 90q0 65 -37 99t-99 34h-27v101h21
q42 0 70 23.5t28 62.5q0 36 -21.5 57t-57.5 21q-41 0 -65.5 -27t-24.5 -72z" />
    <glyph glyph-name="gamma" unicode="&#x3b3;" horiz-adv-x="580" 
d="M228 -186v201l-218 499h138l142 -342l142 342h138l-218 -499v-201h-124z" />
    <glyph glyph-name="delta" unicode="&#x3b4;" horiz-adv-x="606" 
d="M560 247q0 -123 -73.5 -193t-181.5 -70q-107 0 -183 69t-76 179q0 107 71.5 176t167.5 74l-167 130v88h362v-88h-197l133 -108q144 -117 144 -257zM303 368q-55 0 -93 -37t-38 -99q0 -61 38 -97.5t93 -36.5q56 0 93.5 35.5t37.5 97.5t-38 99.5t-93 37.5z" />
    <glyph glyph-name="epsilon" unicode="&#x3b5;" horiz-adv-x="501" 
d="M432 380l-112 -16q-2 31 -21.5 50t-50.5 19q-29 0 -47.5 -14.5t-18.5 -37.5q0 -29 22.5 -44t55.5 -15h32v-86h-37q-41 0 -64.5 -20t-23.5 -54q0 -33 23.5 -52t60.5 -19q78 0 91 87l111 -22q-13 -78 -63.5 -125t-140.5 -47q-87 0 -145 49t-58 121q0 97 86 134
q-62 37 -62 108q0 60 49 97t130 37t128.5 -42t54.5 -108z" />
    <glyph glyph-name="zeta" unicode="&#x3b6;" horiz-adv-x="504" 
d="M419 -157l-94 59q22 28 22 49q0 39 -51 51q-99 22 -169.5 86t-70.5 165q0 186 242 351h-252v96h434v-85q-164 -104 -230 -186.5t-66 -160.5q0 -71 47.5 -107.5t133.5 -62.5q118 -36 118 -127q0 -64 -64 -128z" />
    <glyph glyph-name="eta" unicode="&#x3b7;" 
d="M178 514l12 -66q23 33 67 57.5t99 24.5q89 0 139.5 -52.5t50.5 -146.5v-517h-124v491q0 52 -27 82.5t-77 30.5q-56 0 -92 -43.5t-36 -112.5v-262h-124v514h112z" />
    <glyph glyph-name="theta" unicode="&#x3b8;" horiz-adv-x="626" 
d="M313 -16q-122 0 -194.5 97.5t-72.5 268.5t72.5 268.5t194.5 97.5t194.5 -97.5t72.5 -268.5t-72.5 -268.5t-194.5 -97.5zM313 602q-55 0 -92 -51t-45 -144h274q-8 93 -45 144t-92 51zM313 98q55 0 92 51t45 144h-274q8 -93 45 -144t92 -51z" />
    <glyph glyph-name="iota" unicode="&#x3b9;" horiz-adv-x="318" 
d="M66 514h124v-344q0 -68 56 -68q20 0 41 7v-109q-29 -8 -67 -8q-70 0 -112 40t-42 125v357z" />
    <glyph glyph-name="kappa" unicode="&#x3ba;" horiz-adv-x="551" 
d="M66 514h124v-191l163 191h156l-204 -232l227 -282h-156l-186 229v-229h-124v514z" />
    <glyph glyph-name="lambda" unicode="&#x3bb;" horiz-adv-x="570" 
d="M222 503l-17 45q-18 47 -58 47q-26 0 -51 -12l-31 113q40 20 90 20q110 0 162 -129l236 -587h-140l-128 336l-130 -336h-142z" />
    <glyph glyph-name="uni03BC" unicode="&#x3bc;" 
d="M66 -186v700h124v-303q0 -53 27 -84t78 -31q59 0 93 43t34 113v262h124v-514h-116l-10 66q-59 -82 -155 -82q-40 0 -75 11v-181h-124z" />
    <glyph glyph-name="nu" unicode="&#x3bd;" horiz-adv-x="580" 
d="M570 514l-217 -514h-126l-217 514h138l142 -349l142 349h138z" />
    <glyph glyph-name="xi" unicode="&#x3be;" horiz-adv-x="525" 
d="M46 221q0 110 114 167q-43 24 -66 62.5t-23 80.5q0 79 59 132t156 53q96 0 153.5 -47.5t66.5 -125.5l-116 -27q-16 90 -105 90q-44 0 -69 -24.5t-25 -60.5q0 -43 32.5 -68t89.5 -25h15v-97h-30q-55 0 -90.5 -28.5t-35.5 -71.5q0 -56 48.5 -86.5t147.5 -45.5
q61 -9 91 -43.5t30 -78.5q0 -71 -66 -132l-94 57q23 27 23 50q0 45 -52 50q-115 12 -184.5 69t-69.5 150z" />
    <glyph glyph-name="omicron" unicode="&#x3bf;" horiz-adv-x="620" 
d="M310 -16q-111 0 -187.5 74.5t-76.5 198.5t76.5 198.5t187.5 74.5t187.5 -74.5t76.5 -198.5t-76.5 -198.5t-187.5 -74.5zM310 416q-62 0 -100 -44.5t-38 -114.5t38 -114.5t100 -44.5t100 44.5t38 114.5t-38 114.5t-100 44.5z" />
    <glyph glyph-name="pi" unicode="&#x3c0;" horiz-adv-x="685" 
d="M41 415v99h593v-99h-98v-254q0 -59 53 -59q17 0 34 7v-109q-32 -8 -60 -8q-151 0 -151 155v268h-148v-415h-124v415h-99z" />
    <glyph glyph-name="rho" unicode="&#x3c1;" horiz-adv-x="630" 
d="M66 -186v445q0 126 71.5 198.5t183.5 72.5q116 0 189.5 -73.5t73.5 -199.5q0 -125 -72 -199t-177 -74q-44 0 -84 17.5t-61 47.5v-235h-124zM321 98q61 0 100 43.5t39 115.5t-39 115.5t-100 43.5t-100 -43.5t-39 -115.5t39 -115.5t100 -43.5z" />
    <glyph glyph-name="sigma1" unicode="&#x3c2;" horiz-adv-x="589" 
d="M444 -169l-89 76q13 20 13 35q0 36 -56 43q-106 14 -186 85t-80 187q0 124 76 198.5t187 74.5q93 0 154.5 -46.5t77.5 -133.5l-116 -24q-8 40 -39.5 65t-77.5 25q-62 0 -100 -44.5t-38 -114.5q0 -62 50 -105t141 -58q150 -25 150 -133q0 -67 -67 -130z" />
    <glyph glyph-name="sigma" unicode="&#x3c3;" horiz-adv-x="633" 
d="M310 -16q-111 0 -187.5 74.5t-76.5 198.5q0 125 78.5 199t201.5 74h250v-102h-89q87 -65 87 -171q0 -124 -76.5 -198.5t-187.5 -74.5zM310 416q-62 0 -100 -44.5t-38 -114.5t38 -114.5t100 -44.5t100 44.5t38 114.5t-38 114.5t-100 44.5z" />
    <glyph glyph-name="tau" unicode="&#x3c4;" horiz-adv-x="466" 
d="M19 415v99h414v-99h-148v-241q0 -72 59 -72q24 0 45 7v-109q-24 -8 -71 -8q-71 0 -114 40.5t-43 126.5v256h-142z" />
    <glyph glyph-name="upsilon" unicode="&#x3c5;" 
d="M546 514v-303q0 -110 -66.5 -168.5t-173.5 -58.5t-173.5 58.5t-66.5 168.5v303h124v-292q0 -58 31.5 -92t84.5 -34t84.5 34t31.5 92v292h124z" />
    <glyph glyph-name="phi" unicode="&#x3c6;" horiz-adv-x="744" 
d="M434 0v-186h-124v186q-109 0 -186.5 71.5t-77.5 185.5q0 116 79 186.5t203 70.5h88q124 0 203 -70.5t79 -186.5q0 -114 -77.5 -185.5t-186.5 -71.5zM574 257q0 67 -38.5 105t-101.5 38v-286q63 0 101.5 38t38.5 105zM310 114v286q-63 0 -101.5 -38t-38.5 -105t38.5 -105
t101.5 -38z" />
    <glyph glyph-name="chi" unicode="&#x3c7;" horiz-adv-x="590" 
d="M574 -79l23 -106q-32 -17 -77 -17q-81 0 -124 87l-92 188l-131 -259h-142l203 388l-81 171q-16 34 -47 34q-18 0 -40 -14l-39 104q43 33 97 33q85 0 122 -76l64 -131l94 191h141l-165 -321l113 -240q18 -39 50 -39q16 0 31 7z" />
    <glyph glyph-name="psi" unicode="&#x3c8;" horiz-adv-x="750" 
d="M313 -186v170q-111 0 -179 62t-68 175v293h124v-285q0 -65 32.5 -100t90.5 -35v420h124v-420q58 0 90.5 35t32.5 100v285h124v-293q0 -113 -68 -175t-179 -62v-170h-124z" />
    <glyph glyph-name="omega" unicode="&#x3c9;" horiz-adv-x="832" 
d="M574 476l109 54q98 -160 98 -301q0 -115 -57 -180t-151 -65q-52 0 -92.5 28t-64.5 74q-24 -46 -64.5 -74t-92.5 -28q-94 0 -151 65t-57 180q0 141 98 301l109 -54q-81 -131 -81 -251q0 -56 23.5 -91.5t63.5 -35.5q89 0 89 122v136h126v-136q0 -122 89 -122
q40 0 63.5 35.5t23.5 91.5q0 120 -81 251z" />
    <glyph glyph-name="iotadieresis" unicode="&#x3ca;" horiz-adv-x="325" 
d="M73 514h124v-344q0 -68 56 -68q20 0 41 7v-109q-29 -8 -67 -8q-70 0 -112 40t-42 125v357zM166 592v116h112v-116h-112zM-8 592v116h112v-116h-112z" />
    <glyph glyph-name="upsilondieresis" unicode="&#x3cb;" 
d="M546 514v-303q0 -110 -66.5 -168.5t-173.5 -58.5t-173.5 58.5t-66.5 168.5v303h124v-292q0 -58 31.5 -92t84.5 -34t84.5 34t31.5 92v292h124zM337 592v116h112v-116h-112zM163 592v116h112v-116h-112z" />
    <glyph glyph-name="omicrontonos" unicode="&#x3cc;" horiz-adv-x="620" 
d="M310 -16q-111 0 -187.5 74.5t-76.5 198.5t76.5 198.5t187.5 74.5t187.5 -74.5t76.5 -198.5t-76.5 -198.5t-187.5 -74.5zM310 416q-62 0 -100 -44.5t-38 -114.5t38 -114.5t100 -44.5t100 44.5t38 114.5t-38 114.5t-100 44.5zM337 565h-84l37 143h138z" />
    <glyph glyph-name="upsilontonos" unicode="&#x3cd;" 
d="M546 514v-303q0 -110 -66.5 -168.5t-173.5 -58.5t-173.5 58.5t-66.5 168.5v303h124v-292q0 -58 31.5 -92t84.5 -34t84.5 34t31.5 92v292h124zM333 565h-84l37 143h138z" />
    <glyph glyph-name="omegatonos" unicode="&#x3ce;" horiz-adv-x="832" 
d="M574 476l109 54q98 -160 98 -301q0 -115 -57 -180t-151 -65q-52 0 -92.5 28t-64.5 74q-24 -46 -64.5 -74t-92.5 -28q-94 0 -151 65t-57 180q0 141 98 301l109 -54q-81 -131 -81 -251q0 -56 23.5 -91.5t63.5 -35.5q89 0 89 122v136h126v-136q0 -122 89 -122
q40 0 63.5 35.5t23.5 91.5q0 120 -81 251zM442 565h-84l37 143h138z" />
    <glyph glyph-name="uni0400" unicode="&#x400;" horiz-adv-x="600" 
d="M75 0v700h466v-116h-336v-174h310v-114h-310v-180h344v-116h-474zM387 751h-96l-129 143h147z" />
    <glyph glyph-name="uni0401" unicode="&#x401;" horiz-adv-x="600" 
d="M75 0v700h466v-116h-336v-174h310v-114h-310v-180h344v-116h-474zM344 778v116h112v-116h-112zM170 778v116h112v-116h-112z" />
    <glyph glyph-name="uni0402" unicode="&#x402;" horiz-adv-x="808" 
d="M28 584v116h564v-116h-217v-132h128q115 0 186 -60.5t71 -165.5q0 -104 -71 -165t-186 -61h-73v106h62q64 0 104 31t40 89q0 120 -144 120h-117v-346h-130v584h-217z" />
    <glyph glyph-name="uni0403" unicode="&#x403;" horiz-adv-x="603" 
d="M75 0v700h486v-116h-356v-584h-130zM326 751h-96l78 143h147z" />
    <glyph glyph-name="uni0404" unicode="&#x404;" horiz-adv-x="715" 
d="M514 402v-106h-331q13 -92 67.5 -144t129.5 -52q140 0 179 149l125 -27q-33 -121 -108 -179.5t-200 -58.5q-143 0 -234.5 100t-91.5 266q0 168 89 267t240 99q121 0 198.5 -57.5t104.5 -162.5l-123 -33q-17 65 -65.5 101t-111.5 36q-77 0 -132 -52t-67 -146h331z" />
    <glyph glyph-name="uni0405" unicode="&#x405;" horiz-adv-x="683" 
d="M483 197q0 48 -40 74t-132 36q-104 11 -164.5 66.5t-60.5 143.5q0 91 72 145t178 54q114 0 181 -56.5t81 -151.5l-121 -24q-11 58 -51 90t-93 32q-49 0 -83 -22.5t-34 -63.5q0 -42 36 -67.5t120 -36.5q128 -17 184.5 -67.5t56.5 -140.5q0 -95 -71.5 -159.5t-188.5 -64.5
q-124 0 -200 66.5t-92 177.5l129 25q28 -155 165 -155q56 0 92 27.5t36 71.5z" />
    <glyph glyph-name="uni0406" unicode="&#x406;" horiz-adv-x="280" 
d="M75 0v700h130v-700h-130z" />
    <glyph glyph-name="uni0407" unicode="&#x407;" horiz-adv-x="294" 
d="M82 0v700h130v-700h-130zM178 778v116h112v-116h-112zM4 778v116h112v-116h-112z" />
    <glyph glyph-name="uni0408" unicode="&#x408;" horiz-adv-x="583" 
d="M391 229v471h130v-465q0 -118 -62 -184.5t-172 -66.5q-98 0 -160.5 52.5t-75.5 148.5l121 25q12 -58 40 -84t74 -26q51 0 78 34.5t27 94.5z" />
    <glyph glyph-name="uni0409" unicode="&#x409;" horiz-adv-x="1037" 
d="M139 301v399h447v-286h160q102 0 173.5 -52t71.5 -153t-72 -155t-173 -54h-290v584h-187v-288q0 -156 -46.5 -234t-148.5 -78q-36 0 -64 13v109q20 -6 40 -6q52 0 70.5 47t18.5 154zM586 302v-186h166q49 0 79 23.5t30 69.5t-30 69.5t-79 23.5h-166z" />
    <glyph glyph-name="uni040A" unicode="&#x40a;" horiz-adv-x="1074" 
d="M75 0v700h130v-289h288v289h130v-289h160q102 0 173.5 -52t71.5 -153t-72 -153.5t-173 -52.5h-290v295h-288v-295h-130zM623 295v-179h166q50 0 79.5 22.5t29.5 67.5t-29.5 67t-79.5 22h-166z" />
    <glyph glyph-name="uni040B" unicode="&#x40b;" horiz-adv-x="773" 
d="M28 584v116h567v-116h-257v-198q24 34 68.5 58t99.5 24q93 0 145 -54.5t52 -152.5v-261h-126v235q0 119 -109 119q-55 0 -92.5 -43.5t-37.5 -110.5v-200h-130v584h-180z" />
    <glyph glyph-name="uni040C" unicode="&#x40c;" horiz-adv-x="640" 
d="M75 0v700h130v-290l244 290h157l-285 -333l309 -367h-164l-261 310v-310h-130zM355 751h-96l78 143h147z" />
    <glyph glyph-name="uni040D" unicode="&#x40d;" horiz-adv-x="724" 
d="M506 700l-305 -505v505h-126v-700h143l305 505v-505h126v700h-143zM362 763q-58 0 -91 32t-33 91h86q0 -46 38 -46t38 46h86q0 -59 -33 -91t-91 -32z" />
    <glyph glyph-name="uni040E" unicode="&#x40e;" horiz-adv-x="620" 
d="M8 700h139l172 -353l161 353h132l-321 -700h-130l93 204zM317 763q-58 0 -91 32t-33 91h86q0 -46 38 -46t38 46h86q0 -59 -33 -91t-91 -32z" />
    <glyph glyph-name="uni040F" unicode="&#x40f;" horiz-adv-x="698" 
d="M75 0v700h130v-584h288v584h130v-700h-209v-114h-130v114h-209z" />
    <glyph glyph-name="uni0410" unicode="&#x410;" horiz-adv-x="728" 
d="M10 0l285 700h138l285 -700h-147l-57 147h-300l-57 -147h-147zM364 539l-106 -276h212z" />
    <glyph glyph-name="uni0411" unicode="&#x411;" horiz-adv-x="673" 
d="M205 302v-186h183q49 0 79 23.5t30 69.5t-30 69.5t-79 23.5h-183zM382 414q102 0 173.5 -52t71.5 -153t-72 -155t-173 -54h-307v700h490v-110h-360v-176h177z" />
    <glyph glyph-name="uni0412" unicode="&#x412;" horiz-adv-x="673" 
d="M75 0v700h308q89 0 152.5 -47t63.5 -132q0 -92 -84 -150q50 -22 81 -63.5t31 -95.5q0 -101 -72.5 -156.5t-172.5 -55.5h-307zM205 302v-186h183q49 0 79 23.5t30 69.5t-30 69.5t-79 23.5h-183zM205 590v-176h170q44 0 71 22.5t27 65.5t-27.5 65.5t-70.5 22.5h-170z" />
    <glyph glyph-name="uni0413" unicode="&#x413;" horiz-adv-x="603" 
d="M75 0v700h486v-116h-356v-584h-130z" />
    <glyph glyph-name="uni0414" unicode="&#x414;" horiz-adv-x="782" 
d="M185 469v231h471v-584h87v-230h-130v114h-444v-114h-130v230h71q40 81 57.5 156.5t17.5 196.5zM315 462q0 -172 -61 -346h272v472h-211v-126z" />
    <glyph glyph-name="uni0415" unicode="&#x415;" horiz-adv-x="600" 
d="M75 0v700h466v-116h-336v-174h310v-114h-310v-180h344v-116h-474z" />
    <glyph glyph-name="uni0416" unicode="&#x416;" horiz-adv-x="960" 
d="M191 700l224 -280v280h130v-280l224 280h159l-267 -331l289 -369h-164l-241 308v-308h-130v308l-241 -308h-164l289 369l-267 331h159z" />
    <glyph glyph-name="uni0417" unicode="&#x417;" horiz-adv-x="623" 
d="M184 498l-112 28q15 86 79 138t157 52q101 0 165 -50.5t64 -131.5q0 -49 -26.5 -90.5t-69.5 -63.5q56 -20 88.5 -64.5t32.5 -108.5q0 -96 -68.5 -159.5t-178.5 -63.5q-116 0 -184 65t-85 164l126 31q9 -63 46 -103.5t95 -40.5q53 0 87 29t34 81t-41 80.5t-107 28.5h-12
v101h14q59 0 93.5 26.5t34.5 72.5q0 37 -30.5 62.5t-82.5 25.5q-44 0 -77 -31t-42 -78z" />
    <glyph glyph-name="uni0418" unicode="&#x418;" horiz-adv-x="724" 
d="M201 195l305 505h143v-700h-126v505l-305 -505h-143v700h126v-505z" />
    <glyph glyph-name="uni0419" unicode="&#x419;" horiz-adv-x="724" 
d="M506 700l-305 -505v505h-126v-700h143l305 505v-505h126v700h-143zM362 763q-58 0 -91 32t-33 91h86q0 -46 38 -46t38 46h86q0 -59 -33 -91t-91 -32z" />
    <glyph glyph-name="uni041A" unicode="&#x41a;" horiz-adv-x="640" 
d="M75 0v700h130v-290l244 290h157l-285 -333l309 -367h-164l-261 310v-310h-130z" />
    <glyph glyph-name="uni041B" unicode="&#x41b;" horiz-adv-x="702" 
d="M139 301v399h488v-700h-130v584h-228v-288q0 -156 -46.5 -234t-148.5 -78q-36 0 -64 13v109q20 -6 40 -6q52 0 70.5 47t18.5 154z" />
    <glyph glyph-name="uni041C" unicode="&#x41c;" horiz-adv-x="870" 
d="M435 144l211 556h149v-700h-126v440l-167 -440h-134l-167 440v-440h-126v700h149z" />
    <glyph glyph-name="uni041D" unicode="&#x41d;" horiz-adv-x="698" 
d="M75 0v700h130v-289h288v289h130v-700h-130v295h-288v-295h-130z" />
    <glyph glyph-name="uni041E" unicode="&#x41e;" horiz-adv-x="772" 
d="M722 350q0 -167 -93.5 -266.5t-242.5 -99.5t-242.5 99.5t-93.5 266.5t93.5 266.5t242.5 99.5t242.5 -99.5t93.5 -266.5zM592 350q0 118 -57.5 184t-148.5 66t-148.5 -66t-57.5 -184t57.5 -184t148.5 -66t148.5 66t57.5 184z" />
    <glyph glyph-name="uni041F" unicode="&#x41f;" horiz-adv-x="698" 
d="M75 0v700h548v-700h-130v584h-288v-584h-130z" />
    <glyph glyph-name="uni0420" unicode="&#x420;" horiz-adv-x="627" 
d="M75 0v700h262q110 0 179.5 -59.5t69.5 -166.5t-69.5 -166.5t-179.5 -59.5h-132v-248h-130zM205 584v-220h126q60 0 92.5 28t32.5 82t-32.5 82t-92.5 28h-126z" />
    <glyph glyph-name="uni0421" unicode="&#x421;" horiz-adv-x="714" 
d="M558 251l125 -26q-25 -113 -103 -177t-195 -64q-148 0 -241.5 99.5t-93.5 266.5q0 166 94.5 266t241.5 100q118 0 196.5 -59.5t98.5 -166.5l-128 -26q-16 64 -59.5 100t-107.5 36q-91 0 -148.5 -66t-57.5 -184q0 -116 58 -183t149 -67q68 0 110.5 41t60.5 110z" />
    <glyph glyph-name="uni0422" unicode="&#x422;" horiz-adv-x="620" 
d="M28 584v116h564v-116h-217v-584h-130v584h-217z" />
    <glyph glyph-name="uni0423" unicode="&#x423;" horiz-adv-x="620" 
d="M8 700h139l172 -353l161 353h132l-321 -700h-130l93 204z" />
    <glyph glyph-name="uni0424" unicode="&#x424;" horiz-adv-x="802" 
d="M466 72v-72h-130v72q-130 2 -212.5 77.5t-82.5 200.5t82.5 200.5t212.5 77.5v72h130v-72q130 -2 212.5 -77.5t82.5 -200.5t-82.5 -200.5t-212.5 -77.5zM631 350q0 76 -45.5 118t-119.5 44v-324q74 2 119.5 44t45.5 118zM336 188v324q-74 -2 -119.5 -44t-45.5 -118
t45.5 -118t119.5 -44z" />
    <glyph glyph-name="uni0425" unicode="&#x425;" horiz-adv-x="659" 
d="M199 700l130 -215l131 215h156l-210 -331l232 -369h-156l-153 249l-152 -249h-156l231 369l-210 331h157z" />
    <glyph glyph-name="uni0426" unicode="&#x426;" horiz-adv-x="725" 
d="M75 0v700h130v-584h288v584h130v-584h63v-230h-130v114h-481z" />
    <glyph glyph-name="uni0427" unicode="&#x427;" horiz-adv-x="647" 
d="M442 0v272q-58 -82 -161 -82q-99 0 -157 59.5t-58 172.5v278h130v-266q0 -60 29 -94t83 -34q61 0 97.5 42.5t36.5 113.5v238h130v-700h-130z" />
    <glyph glyph-name="uni0428" unicode="&#x428;" horiz-adv-x="884" 
d="M75 0v700h130v-584h172v584h130v-584h172v584h130v-700h-734z" />
    <glyph glyph-name="uni0429" unicode="&#x429;" horiz-adv-x="911" 
d="M75 0v700h130v-584h172v584h130v-584h172v584h130v-584h63v-230h-130v114h-667z" />
    <glyph glyph-name="uni042A" unicode="&#x42a;" horiz-adv-x="789" 
d="M191 0v590h-163v110h293v-286h177q102 0 173.5 -52t71.5 -153t-72 -155t-173 -54h-307zM321 302v-186h183q49 0 79 23.5t30 69.5t-30 69.5t-79 23.5h-183z" />
    <glyph glyph-name="uni042B" unicode="&#x42b;" horiz-adv-x="901" 
d="M75 700h130v-286h177q102 0 173.5 -52t71.5 -153t-72 -155t-173 -54h-307v700zM205 302v-186h183q49 0 79 23.5t30 69.5t-30 69.5t-79 23.5h-183zM696 0v700h130v-700h-130z" />
    <glyph glyph-name="uni042C" unicode="&#x42c;" horiz-adv-x="673" 
d="M75 700h130v-286h177q102 0 173.5 -52t71.5 -153t-72 -155t-173 -54h-307v700zM205 302v-186h183q49 0 79 23.5t30 69.5t-30 69.5t-79 23.5h-183z" />
    <glyph glyph-name="uni042D" unicode="&#x42d;" horiz-adv-x="724" 
d="M210 296v106h330q-12 94 -65.5 146t-127.5 52q-62 0 -110.5 -38t-68.5 -100l-126 34q32 102 112 161t193 59q150 0 238.5 -99t88.5 -267q0 -166 -91.5 -266t-234.5 -100q-123 0 -203.5 63t-107.5 175l128 27q39 -149 184 -149q72 0 125 52.5t66 143.5h-330z" />
    <glyph glyph-name="uni042E" unicode="&#x42e;" horiz-adv-x="998" 
d="M948 350q0 -167 -93.5 -266.5t-242.5 -99.5q-135 0 -226 82.5t-107 225.5h-74v-292h-130v700h130v-292h74q16 142 107 225t226 83q149 0 242.5 -99.5t93.5 -266.5zM818 350q0 118 -57.5 184t-148.5 66t-148.5 -66t-57.5 -184t57.5 -184t148.5 -66t148.5 66t57.5 184z" />
    <glyph glyph-name="uni042F" unicode="&#x42f;" horiz-adv-x="668" 
d="M348 262l-146 -262h-149l160 285q-63 31 -97.5 76t-34.5 120q0 99 70.5 159t178.5 60h263v-700h-130v262h-115zM463 378v206h-135q-55 0 -86 -27t-31 -76t31 -76t86 -27h135z" />
    <glyph glyph-name="uni0430" unicode="&#x430;" horiz-adv-x="636" 
d="M466 514h104v-514h-104l-14 60q-60 -76 -157 -76q-102 0 -175.5 74.5t-73.5 198.5q0 123 74.5 198t173.5 75q103 0 158 -72zM313 416q-61 0 -102 -44t-41 -115t41 -115t102 -44t102 44t41 115t-41 115t-102 44z" />
    <glyph glyph-name="uni0431" unicode="&#x431;" horiz-adv-x="642" 
d="M46 321q0 168 74 266.5t213 108.5q55 4 73.5 12t23.5 28h111q-3 -74 -45 -105t-145 -36q-149 -7 -186 -168q25 45 74.5 74t109.5 29q108 0 177.5 -75.5t69.5 -198.5t-78 -197.5t-195 -74.5q-116 0 -196.5 90t-80.5 247zM324 416q-62 0 -103.5 -45t-41.5 -116
q0 -70 41 -113.5t104 -43.5t104 43.5t41 114.5t-41.5 115.5t-103.5 44.5z" />
    <glyph glyph-name="uni0432" unicode="&#x432;" horiz-adv-x="525" 
d="M301 0h-235v514h223q83 0 129.5 -38t46.5 -95q0 -77 -71 -118q37 -13 61 -45t24 -71q0 -68 -48 -107.5t-130 -39.5zM190 424v-118h94q29 0 47 15.5t18 43.5t-18 43.5t-47 15.5h-94zM190 216v-120h94q34 0 54 15.5t20 44.5t-20 44.5t-54 15.5h-94z" />
    <glyph glyph-name="uni0433" unicode="&#x433;" horiz-adv-x="472" 
d="M431 514v-106h-241v-408h-124v514h365z" />
    <glyph glyph-name="uni0434" unicode="&#x434;" horiz-adv-x="649" 
d="M546 514v-414h72v-215h-116v115h-355v-115h-116v215h76q23 54 33 102t10 122v190h396zM231 100h199v320h-164v-114q0 -118 -35 -206z" />
    <glyph glyph-name="uni0435" unicode="&#x435;" horiz-adv-x="606" 
d="M556 222h-386q7 -59 44 -93.5t94 -34.5q92 0 127 82l115 -38q-31 -74 -94 -114t-148 -40q-120 0 -191 76.5t-71 196.5q0 118 76.5 195.5t186.5 77.5q107 0 177 -68.5t70 -193.5v-46zM309 426q-52 0 -87 -30t-48 -81h262q-15 111 -127 111z" />
    <glyph glyph-name="uni0436" unicode="&#x436;" horiz-adv-x="822" 
d="M349 514h124v-190l157 190h151l-201 -229l223 -285h-151l-179 227v-227h-124v227l-179 -227h-151l223 285l-201 229h151l157 -190v190z" />
    <glyph glyph-name="uni0437" unicode="&#x437;" horiz-adv-x="501" 
d="M172 364l-111 16q9 64 58.5 107t125.5 43q79 0 126.5 -37t47.5 -97q0 -70 -59 -108q39 -16 62.5 -51.5t23.5 -80.5q0 -73 -54.5 -122.5t-141.5 -49.5q-90 0 -142.5 49.5t-63.5 122.5l113 22q6 -39 30.5 -62.5t62.5 -23.5q34 0 54.5 18t20.5 49q0 36 -23 56.5t-65 20.5
h-16v86h21q28 0 46.5 15t18.5 44q0 23 -17 37.5t-46 14.5q-30 0 -49 -18.5t-23 -50.5z" />
    <glyph glyph-name="uni0438" unicode="&#x438;" horiz-adv-x="602" 
d="M66 0v514h122v-344l210 344h138v-514h-122v344l-210 -344h-138z" />
    <glyph glyph-name="uni0439" unicode="&#x439;" horiz-adv-x="602" 
d="M66 0v514h122v-344l210 344h138v-514h-122v344l-210 -344h-138zM283 577q-58 0 -91 32t-33 91h86q0 -46 38 -46t38 46h86q0 -59 -33 -91t-91 -32z" />
    <glyph glyph-name="uni043A" unicode="&#x43a;" horiz-adv-x="551" 
d="M66 514h124v-191l163 191h156l-204 -232l227 -282h-156l-186 229v-229h-124v514z" />
    <glyph glyph-name="uni043B" unicode="&#x43b;" horiz-adv-x="606" 
d="M28 -2v108q16 -4 31 -4q70 0 70 186v226h411v-514h-124v408h-161v-137q0 -149 -47 -214t-123 -65q-28 0 -57 6z" />
    <glyph glyph-name="uni043C" unicode="&#x43c;" horiz-adv-x="698" 
d="M66 0v514h132l151 -384l151 384h132v-514h-121v272l-104 -272h-116l-104 272v-272h-121z" />
    <glyph glyph-name="uni043D" unicode="&#x43d;" horiz-adv-x="585" 
d="M190 514v-201h205v201h124v-514h-124v207h-205v-207h-124v514h124z" />
    <glyph glyph-name="uni043E" unicode="&#x43e;" horiz-adv-x="620" 
d="M310 -16q-111 0 -187.5 74.5t-76.5 198.5t76.5 198.5t187.5 74.5t187.5 -74.5t76.5 -198.5t-76.5 -198.5t-187.5 -74.5zM310 416q-62 0 -100 -44.5t-38 -114.5t38 -114.5t100 -44.5t100 44.5t38 114.5t-38 114.5t-100 44.5z" />
    <glyph glyph-name="uni043F" unicode="&#x43f;" horiz-adv-x="589" 
d="M66 514h457v-514h-124v408h-209v-408h-124v514z" />
    <glyph glyph-name="uni0440" unicode="&#x440;" horiz-adv-x="630" 
d="M66 -186v700h105l14 -59q23 31 65 53t96 22q100 0 169 -74t69 -199t-72 -199t-177 -74q-44 0 -84 17.5t-61 47.5v-235h-124zM320 98q61 0 100.5 43.5t39.5 115.5t-39.5 115.5t-100.5 43.5t-100.5 -43.5t-39.5 -115.5t39.5 -115.5t100.5 -43.5z" />
    <glyph glyph-name="uni0441" unicode="&#x441;" horiz-adv-x="591" 
d="M424 192l119 -41q-57 -167 -236 -167q-111 0 -186 74.5t-75 198.5t75.5 198.5t186.5 74.5q93 0 154.5 -46.5t77.5 -133.5l-114 -23q-10 39 -42 64t-77 25q-62 0 -99.5 -44.5t-37.5 -114.5t38 -114.5t99 -44.5q89 0 117 94z" />
    <glyph glyph-name="uni0442" unicode="&#x442;" horiz-adv-x="442" 
d="M283 0h-124v408h-146v106h416v-106h-146v-408z" />
    <glyph glyph-name="uni0443" unicode="&#x443;" horiz-adv-x="570" 
d="M209 -34l17 44l-209 504h142l130 -336l128 336h140l-236 -587q-52 -129 -162 -129q-50 0 -90 20l31 113q26 -12 51 -12q40 0 58 47z" />
    <glyph glyph-name="uni0444" unicode="&#x444;" horiz-adv-x="942" 
d="M533 700v-225q61 55 139 55q94 0 159 -74t65 -199t-67 -199t-163 -74q-91 0 -133 62v-232h-124v232q-47 -62 -133 -62q-97 0 -163.5 74t-66.5 199q0 124 67 198.5t161 74.5q86 0 135 -55v225h124zM650 98q57 0 89.5 45.5t32.5 113.5t-32.5 113.5t-89.5 45.5
q-58 0 -90 -42.5t-32 -116.5t32 -116.5t90 -42.5zM292 98q58 0 90 42.5t32 116.5t-32 116.5t-90 42.5q-57 0 -89.5 -45.5t-32.5 -113.5t32.5 -113.5t89.5 -45.5z" />
    <glyph glyph-name="uni0445" unicode="&#x445;" horiz-adv-x="511" 
d="M169 514l86 -139l86 139h142l-156 -242l171 -272h-143l-100 166l-100 -166h-142l172 272l-156 242h140z" />
    <glyph glyph-name="uni0446" unicode="&#x446;" horiz-adv-x="619" 
d="M522 514v-408h66v-221h-116v115h-406v514h124v-408h208v408h124z" />
    <glyph glyph-name="uni0447" unicode="&#x447;" horiz-adv-x="601" 
d="M411 0v187q-27 -29 -69.5 -48t-86.5 -19q-90 0 -142 53t-52 157v184h124v-161q0 -119 102 -119q70 0 124 70v210h124v-514h-124z" />
    <glyph glyph-name="uni0448" unicode="&#x448;" horiz-adv-x="810" 
d="M744 0h-678v514h124v-408h153v408h124v-408h153v408h124v-514z" />
    <glyph glyph-name="uni0449" unicode="&#x449;" horiz-adv-x="841" 
d="M66 0v514h124v-408h153v408h124v-408h153v408h124v-408h66v-221h-116v115h-628z" />
    <glyph glyph-name="uni044A" unicode="&#x44a;" horiz-adv-x="571" 
d="M237 306h110q83 0 130.5 -39.5t47.5 -110.5q0 -72 -48 -114t-130 -42h-234v424h-103v90h227v-208zM237 216v-120h93q34 0 54 15.5t20 44.5t-20 44.5t-54 15.5h-93z" />
    <glyph glyph-name="uni044B" unicode="&#x44b;" horiz-adv-x="744" 
d="M66 514h124v-208h110q83 0 130.5 -39.5t47.5 -110.5q0 -72 -48 -114t-130 -42h-234v514zM190 216v-120h93q34 0 54 15.5t20 44.5t-20 44.5t-54 15.5h-93zM554 0v514h124v-514h-124z" />
    <glyph glyph-name="uni044C" unicode="&#x44c;" horiz-adv-x="524" 
d="M66 514h124v-208h110q83 0 130.5 -39.5t47.5 -110.5q0 -72 -48 -114t-130 -42h-234v514zM190 216v-120h93q34 0 54 15.5t20 44.5t-20 44.5t-54 15.5h-93z" />
    <glyph glyph-name="uni044D" unicode="&#x44d;" horiz-adv-x="601" 
d="M215 211v92h211q-11 53 -45.5 83t-85.5 30q-45 0 -81 -25.5t-48 -66.5l-114 31q24 81 89.5 128t151.5 47q115 0 188.5 -74t73.5 -199q0 -126 -72.5 -199.5t-190.5 -73.5q-90 0 -154 43.5t-90 123.5l121 41q28 -94 125 -94q50 0 85.5 30t46.5 83h-211z" />
    <glyph glyph-name="uni044E" unicode="&#x44e;" horiz-adv-x="816" 
d="M511 -16q-98 0 -169 59t-86 161h-64v-204h-126v514h126v-204h64q15 102 86 161t169 59q111 0 185 -74.5t74 -198.5t-74 -198.5t-185 -74.5zM511 416q-63 0 -98 -43.5t-35 -115.5t35 -115.5t98 -43.5t98 43.5t35 115.5t-35 115.5t-98 43.5z" />
    <glyph glyph-name="uni044F" unicode="&#x44f;" horiz-adv-x="537" 
d="M284 188l-106 -188h-135l115 205q-90 50 -90 146q0 75 50.5 119t130.5 44h222v-514h-124v188h-63zM347 286v132h-76q-37 0 -58 -17.5t-21 -48.5t21 -48.5t58 -17.5h76z" />
    <glyph glyph-name="uni0450" unicode="&#x450;" horiz-adv-x="606" 
d="M556 222h-386q7 -59 44 -93.5t94 -34.5q92 0 127 82l115 -38q-31 -74 -94 -114t-148 -40q-120 0 -191 76.5t-71 196.5q0 118 76.5 195.5t186.5 77.5q107 0 177 -68.5t70 -193.5v-46zM309 426q-52 0 -87 -30t-48 -81h262q-15 111 -127 111zM373 565h-96l-129 143h147z" />
    <glyph glyph-name="uni0451" unicode="&#x451;" horiz-adv-x="606" 
d="M556 222h-386q7 -59 44 -93.5t94 -34.5q92 0 127 82l115 -38q-31 -74 -94 -114t-148 -40q-120 0 -191 76.5t-71 196.5q0 118 76.5 195.5t186.5 77.5q107 0 177 -68.5t70 -193.5v-46zM309 426q-52 0 -87 -30t-48 -81h262q-15 111 -127 111zM341 592v116h112v-116h-112z
M167 592v116h112v-116h-112z" />
    <glyph glyph-name="uni0452" unicode="&#x452;" horiz-adv-x="624" 
d="M193 700v-46h139v-81h-139v-126q24 35 68.5 59t99.5 24q93 0 145 -54.5t52 -152.5v-348q0 -91 -44.5 -134t-118.5 -43q-21 0 -46 5v105q20 -6 35 -6q24 0 37 16t13 44v335q0 59 -28.5 90t-82.5 31q-56 0 -93 -44t-37 -112v-262h-124v573h-56v81h56v46h124z" />
    <glyph glyph-name="uni0453" unicode="&#x453;" horiz-adv-x="472" 
d="M431 514v-106h-241v-408h-124v514h365zM260 565h-96l78 143h147z" />
    <glyph glyph-name="uni0454" unicode="&#x454;" horiz-adv-x="601" 
d="M434 192l119 -41q-59 -167 -244 -167q-116 0 -189.5 74t-73.5 199q0 124 76 198.5t191 74.5q90 0 151.5 -45.5t83.5 -128.5l-112 -29q-12 41 -45 65t-79 24q-48 0 -85.5 -31t-50.5 -82h210v-92h-210q12 -51 48.5 -82t85.5 -31q93 0 124 94z" />
    <glyph glyph-name="uni0455" unicode="&#x455;" horiz-adv-x="549" 
d="M373 152q0 29 -24.5 44t-87.5 22q-86 10 -135 51.5t-49 109.5q0 70 56 110.5t141 40.5q89 0 140.5 -43.5t62.5 -117.5l-112 -19q-6 40 -31 61.5t-63 21.5q-34 0 -56 -14t-22 -39q0 -56 112 -68q187 -20 187 -153q0 -76 -56.5 -125.5t-149.5 -49.5q-98 0 -160 52t-71 136
l114 22q10 -50 36.5 -76t79.5 -26q40 0 64 15.5t24 44.5z" />
    <glyph glyph-name="uni0456" unicode="&#x456;" horiz-adv-x="256" 
d="M66 0v514h124v-514h-124zM62 585v129h132v-129h-132z" />
    <glyph glyph-name="uni0457" unicode="&#x457;" horiz-adv-x="268" 
d="M72 0v514h124v-514h-124zM165 592v116h112v-116h-112zM-9 592v116h112v-116h-112z" />
    <glyph glyph-name="uni0458" unicode="&#x458;" horiz-adv-x="261" 
d="M195 514v-539q0 -91 -44.5 -134t-118.5 -43q-21 0 -46 5v105q20 -6 35 -6q24 0 37 16t13 44v552h124zM67 585v129h132v-129h-132z" />
    <glyph glyph-name="uni0459" unicode="&#x459;" horiz-adv-x="824" 
d="M28 -2v108q16 -4 31 -4q70 0 70 186v226h365v-208h106q83 0 130.5 -39.5t47.5 -110.5q0 -72 -48 -114t-130 -42h-230v408h-115v-137q0 -149 -47 -214t-123 -65q-28 0 -57 6zM494 216v-120h89q34 0 54 15.5t20 44.5t-20 44.5t-54 15.5h-89z" />
    <glyph glyph-name="uni045A" unicode="&#x45a;" horiz-adv-x="848" 
d="M190 514v-201h200v201h124v-201h110q82 0 130 -43t48 -118q0 -74 -47.5 -113t-130.5 -39h-234v207h-200v-207h-124v514h124zM514 207v-111h93q74 0 74 56q0 55 -74 55h-93z" />
    <glyph glyph-name="uni045B" unicode="&#x45b;" horiz-adv-x="624" 
d="M193 700v-46h139v-81h-139v-126q24 35 68.5 59t99.5 24q93 0 145 -54.5t52 -152.5v-323h-124v297q0 59 -28.5 90t-82.5 31q-56 0 -93 -44t-37 -112v-262h-124v573h-56v81h56v46h124z" />
    <glyph glyph-name="uni045C" unicode="&#x45c;" horiz-adv-x="551" 
d="M66 514h124v-191l163 191h156l-204 -232l227 -282h-156l-186 229v-229h-124v514zM301 565h-96l78 143h147z" />
    <glyph glyph-name="uni045D" unicode="&#x45d;" horiz-adv-x="602" 
d="M66 0v514h122v-344l210 344h138v-514h-122v344l-210 -344h-138zM301 577q-58 0 -91 32t-33 91h86q0 -46 38 -46t38 46h86q0 -59 -33 -91t-91 -32z" />
    <glyph glyph-name="uni045E" unicode="&#x45e;" horiz-adv-x="570" 
d="M209 -34l17 44l-209 504h142l130 -336l128 336h140l-236 -587q-52 -129 -162 -129q-50 0 -90 20l31 113q26 -12 51 -12q40 0 58 47zM289 577q-58 0 -91 32t-33 91h86q0 -46 38 -46t38 46h86q0 -59 -33 -91t-91 -32z" />
    <glyph glyph-name="uni045F" unicode="&#x45f;" horiz-adv-x="590" 
d="M66 0v514h124v-408h210v408h124v-514h-171v-115h-116v115h-171z" />
    <glyph glyph-name="endash" unicode="&#x2013;" horiz-adv-x="586" 
d="M41 233v110h504v-110h-504z" />
    <glyph glyph-name="emdash" unicode="&#x2014;" horiz-adv-x="828" 
d="M41 233v110h746v-110h-746z" />
    <glyph glyph-name="quoteleft" unicode="&#x2018;" horiz-adv-x="215" 
d="M178 574v-128h-128v128q0 64 35.5 95t92.5 31v-68q-52 0 -52 -58h52z" />
    <glyph glyph-name="quoteright" unicode="&#x2019;" horiz-adv-x="215" 
d="M37 572v128h128v-128q0 -64 -35.5 -95t-92.5 -31v68q52 0 52 58h-52z" />
    <glyph glyph-name="quotesinglbase" unicode="&#x201a;" horiz-adv-x="215" 
d="M50 0v128h128v-128q0 -64 -35.5 -95t-92.5 -31v68q52 0 52 58h-52z" />
    <glyph glyph-name="quotedblleft" unicode="&#x201c;" horiz-adv-x="381" 
d="M178 574v-128h-128v128q0 64 35.5 95t92.5 31v-68q-52 0 -52 -58h52zM344 574v-128h-128v128q0 64 35.5 95t92.5 31v-68q-52 0 -52 -58h52z" />
    <glyph glyph-name="quotedblright" unicode="&#x201d;" horiz-adv-x="381" 
d="M203 572v128h128v-128q0 -64 -35.5 -95t-92.5 -31v68q52 0 52 58h-52zM37 572v128h128v-128q0 -64 -35.5 -95t-92.5 -31v68q52 0 52 58h-52z" />
    <glyph glyph-name="quotedblbase" unicode="&#x201e;" horiz-adv-x="381" 
d="M216 0v128h128v-128q0 -64 -35.5 -95t-92.5 -31v68q52 0 52 58h-52zM50 0v128h128v-128q0 -64 -35.5 -95t-92.5 -31v68q52 0 52 58h-52z" />
    <glyph glyph-name="dagger" unicode="&#x2020;" horiz-adv-x="416" 
d="M21 410v104h131v186h112v-186h131v-104h-131v-570h-112v570h-131z" />
    <glyph glyph-name="daggerdbl" unicode="&#x2021;" horiz-adv-x="416" 
d="M21 410v104h131v186h112v-186h131v-104h-131v-280h131v-104h-131v-186h-112v186h-131v104h131v280h-131z" />
    <glyph glyph-name="bullet" unicode="&#x2022;" horiz-adv-x="350" 
d="M64 350q0 46 32.5 78.5t78.5 32.5t78.5 -32.5t32.5 -78.5t-32.5 -78.5t-78.5 -32.5t-78.5 32.5t-32.5 78.5z" />
    <glyph glyph-name="ellipsis" unicode="&#x2026;" horiz-adv-x="662" 
d="M53 0v136h136v-136h-136zM263 0v136h136v-136h-136zM473 0v136h136v-136h-136z" />
    <glyph glyph-name="perthousand" unicode="&#x2030;" horiz-adv-x="1351" 
d="M1129 -16q-81 0 -131.5 54.5t-50.5 147.5t50.5 147.5t131.5 54.5t131 -54.5t50 -147.5t-50 -147.5t-131 -54.5zM1129 302q-41 0 -65 -30.5t-24 -85.5t24 -85.5t65 -30.5t65 30.5t24 85.5t-24 85.5t-65 30.5zM223 312q-81 0 -131.5 54.5t-50.5 147.5t50.5 147.5
t131.5 54.5t131 -54.5t50 -147.5t-50 -147.5t-131 -54.5zM223 630q-41 0 -65 -30.5t-24 -85.5t24 -85.5t65 -30.5t65 30.5t24 85.5t-24 85.5t-65 30.5zM172 0l483 700h112l-483 -700h-112zM717 -16q-81 0 -131.5 54.5t-50.5 147.5t50.5 147.5t131.5 54.5t131 -54.5
t50 -147.5t-50 -147.5t-131 -54.5zM717 302q-41 0 -65 -30.5t-24 -85.5t24 -85.5t65 -30.5t65 30.5t24 85.5t-24 85.5t-65 30.5z" />
    <glyph glyph-name="guilsinglleft" unicode="&#x2039;" horiz-adv-x="341" 
d="M184 457h124l-134 -188l134 -188h-124l-134 188z" />
    <glyph glyph-name="guilsinglright" unicode="&#x203a;" horiz-adv-x="341" 
d="M33 457h124l134 -188l-134 -188h-124l134 188z" />
    <glyph glyph-name="fraction" unicode="&#x2044;" horiz-adv-x="631" 
d="M18 0l483 700h112l-483 -700h-112z" />
    <glyph glyph-name="zerosuperior" unicode="&#x2070;" horiz-adv-x="394" 
d="M353 525q0 -86 -43 -134.5t-113 -48.5t-113 48.5t-43 134.5q0 85 43 134t113 49t113 -49t43 -134zM269 525q0 48 -20 76.5t-52 28.5q-33 0 -52.5 -28.5t-19.5 -76.5t19.5 -76.5t52.5 -28.5q32 0 52 28.5t20 76.5z" />
    <glyph glyph-name="foursuperior" unicode="&#x2074;" horiz-adv-x="342" 
d="M28 407v72l160 221h84v-221h45v-72h-45v-57h-81v57h-163zM117 479h74v103z" />
    <glyph glyph-name="fivesuperior" unicode="&#x2075;" horiz-adv-x="324" 
d="M40 519l27 181h209v-66h-147l-14 -64q25 18 62 18q54 0 85 -33t31 -87q0 -56 -35 -91t-93 -35q-55 0 -88 28.5t-41 72.5l78 17q11 -43 49 -43q21 0 35 13.5t14 37.5q0 22 -14 35.5t-34 13.5q-32 0 -54 -28z" />
    <glyph glyph-name="sixsuperior" unicode="&#x2076;" horiz-adv-x="328" 
d="M32 512q0 93 41.5 144.5t104.5 51.5q98 0 118 -84l-73 -18q-9 34 -49 34q-23 0 -39.5 -21.5t-22.5 -60.5q24 28 70 28q49 0 83.5 -32.5t34.5 -90.5q0 -54 -37.5 -87.5t-95.5 -33.5t-96.5 43.5t-38.5 126.5zM169 517q-23 0 -37 -14.5t-14 -39.5t14 -40t37 -15
q22 0 36.5 15t14.5 40t-14.5 39.5t-36.5 14.5z" />
    <glyph glyph-name="sevensuperior" unicode="&#x2077;" horiz-adv-x="276" 
d="M251 634l-112 -284h-83l109 276h-143v74h229v-66z" />
    <glyph glyph-name="eightsuperior" unicode="&#x2078;" horiz-adv-x="316" 
d="M290 453q0 -53 -38 -82t-94 -29t-94 29t-38 82q0 30 17 53.5t42 34.5q-17 8 -31 28t-14 44q0 44 35 69.5t83 25.5t83 -25.5t35 -69.5q0 -24 -14 -44t-31 -28q25 -11 42 -34.5t17 -53.5zM207 459q0 20 -13.5 32.5t-35.5 12.5t-35.5 -12.5t-13.5 -32.5t13.5 -32.5
t35.5 -12.5t35.5 12.5t13.5 32.5zM198 605q0 17 -11.5 27t-28.5 10t-28.5 -10t-11.5 -27t11.5 -27t28.5 -10t28.5 10t11.5 27z" />
    <glyph glyph-name="ninesuperior" unicode="&#x2079;" horiz-adv-x="328" 
d="M296 544q0 -101 -37.5 -151.5t-103.5 -50.5q-97 0 -122 84l74 18q14 -34 47 -34q60 0 67 85q-23 -31 -73 -31q-49 0 -84.5 33t-35.5 90q0 55 37.5 88t95.5 33q62 0 98.5 -42.5t36.5 -121.5zM159 533q23 0 37 15t14 39t-14.5 39.5t-36.5 15.5q-21 0 -36 -15.5t-15 -39.5
t15 -39t36 -15z" />
    <glyph glyph-name="zeroinferior" unicode="&#x2080;" horiz-adv-x="394" 
d="M353 -11q0 -86 -43 -134.5t-113 -48.5t-113 48.5t-43 134.5q0 85 43 134t113 49t113 -49t43 -134zM269 -11q0 48 -20 76.5t-52 28.5q-33 0 -52.5 -28.5t-19.5 -76.5t19.5 -76.5t52.5 -28.5q32 0 52 28.5t20 76.5z" />
    <glyph glyph-name="oneinferior" unicode="&#x2081;" horiz-adv-x="222" 
d="M29 7v97l77 60h86v-350h-86v253z" />
    <glyph glyph-name="twoinferior" unicode="&#x2082;" horiz-adv-x="319" 
d="M44 -186v23q0 59 30 95.5t91 68.5q25 13 34 26.5t9 33.5q0 17 -11.5 28t-31.5 11q-18 0 -30 -10.5t-12 -29.5q0 -6 1 -12l-77 -26q-9 18 -9 40q0 44 34 77t91 33q63 0 95.5 -29t32.5 -78q0 -40 -20 -68t-65 -52q-58 -32 -60 -60h152v-71h-254z" />
    <glyph glyph-name="threeinferior" unicode="&#x2083;" horiz-adv-x="313" 
d="M28 -84l78 20q10 -54 54 -54q18 0 32 13t14 34t-13.5 34.5t-34.5 13.5q-14 0 -28 -8l-39 53l81 74h-132v68h227v-60l-72 -62q41 -7 66.5 -36t25.5 -77q0 -56 -34.5 -89.5t-92.5 -33.5t-91.5 31t-40.5 79z" />
    <glyph glyph-name="fourinferior" unicode="&#x2084;" horiz-adv-x="327" 
d="M22 -129v72l160 221h84v-221h45v-72h-45v-57h-81v57h-163zM111 -57h74v103z" />
    <glyph glyph-name="fiveinferior" unicode="&#x2085;" horiz-adv-x="302" 
d="M28 -17l27 181h209v-66h-147l-14 -64q25 18 62 18q54 0 85 -33t31 -87q0 -56 -35 -91t-93 -35q-55 0 -88 28.5t-41 72.5l78 17q11 -43 49 -43q21 0 35 13.5t14 37.5q0 22 -14 35.5t-34 13.5q-32 0 -54 -28z" />
    <glyph glyph-name="sixinferior" unicode="&#x2086;" horiz-adv-x="311" 
d="M23 -24q0 93 41.5 144.5t104.5 51.5q98 0 118 -84l-73 -18q-9 34 -49 34q-23 0 -39.5 -21.5t-22.5 -60.5q24 28 70 28q49 0 83.5 -32.5t34.5 -90.5q0 -54 -37.5 -87.5t-95.5 -33.5t-96.5 43.5t-38.5 126.5zM160 -19q-23 0 -37 -14.5t-14 -39.5t14 -40t37 -15
q22 0 36.5 15t14.5 40t-14.5 39.5t-36.5 14.5z" />
    <glyph glyph-name="seveninferior" unicode="&#x2087;" horiz-adv-x="258" 
d="M240 98l-112 -284h-83l109 276h-143v74h229v-66z" />
    <glyph glyph-name="eightinferior" unicode="&#x2088;" horiz-adv-x="310" 
d="M287 -83q0 -53 -38 -82t-94 -29t-94 29t-38 82q0 30 17 53.5t42 34.5q-17 8 -31 28t-14 44q0 44 35 69.5t83 25.5t83 -25.5t35 -69.5q0 -24 -14 -44t-31 -28q25 -11 42 -34.5t17 -53.5zM204 -77q0 20 -13.5 32.5t-35.5 12.5t-35.5 -12.5t-13.5 -32.5t13.5 -32.5
t35.5 -12.5t35.5 12.5t13.5 32.5zM195 69q0 17 -11.5 27t-28.5 10t-28.5 -10t-11.5 -27t11.5 -27t28.5 -10t28.5 10t11.5 27z" />
    <glyph glyph-name="nineinferior" unicode="&#x2089;" horiz-adv-x="319" 
d="M293 8q0 -101 -37.5 -151.5t-103.5 -50.5q-97 0 -122 84l74 18q14 -34 47 -34q60 0 67 85q-23 -31 -73 -31q-49 0 -84.5 33t-35.5 90q0 55 37.5 88t95.5 33q62 0 98.5 -42.5t36.5 -121.5zM156 -3q23 0 37 15t14 39t-14.5 39.5t-36.5 15.5q-21 0 -36 -15.5t-15 -39.5
t15 -39t36 -15z" />
    <glyph glyph-name="Euro" unicode="&#x20ac;" horiz-adv-x="739" 
d="M13 377l46 100h55q33 111 118 175t195 64q97 0 168 -44.5t109 -127.5l-109 -63q-26 58 -71 88.5t-100 30.5q-56 0 -102.5 -32t-71.5 -91h231l-46 -100h-207q-1 -9 -1 -27t1 -27h253l-46 -100h-186q24 -60 71 -91.5t106 -31.5q58 0 103.5 33.5t69.5 97.5l107 -55
q-90 -192 -283 -192q-112 0 -195 63.5t-115 175.5h-100l46 100h39q-1 9 -1 27t1 27h-85z" />
    <glyph glyph-name="trademark" unicode="&#x2122;" horiz-adv-x="420" 
d="M210 514v186h22l65 -168l65 168h22v-186h-19v145l-56 -145h-24l-56 145v-145h-19zM37 683v17h143v-17h-62v-169h-19v169h-62z" />
    <glyph glyph-name="Omega" unicode="&#x2126;" horiz-adv-x="780" 
d="M390 600q-86 0 -148 -57t-62 -159q0 -86 46.5 -161.5t114.5 -121.5v-101h-269v110h108q-58 51 -94 128.5t-36 155.5q0 149 96 235.5t244 86.5t244 -86.5t96 -235.5q0 -78 -36 -155.5t-94 -128.5h108v-110h-269v101q68 46 114.5 121.5t46.5 161.5q0 102 -62 159t-148 57z
" />
    <glyph glyph-name="onethird" unicode="&#x2153;" horiz-adv-x="775" 
d="M463 102l78 20q10 -54 54 -54q18 0 32 13t14 34t-13.5 34.5t-34.5 13.5q-14 0 -28 -8l-39 53l81 74h-132v68h227v-60l-72 -62q41 -7 66.5 -36t25.5 -77q0 -56 -34.5 -89.5t-92.5 -33.5t-91.5 31t-40.5 79zM54 0l483 700h112l-483 -700h-112zM41 543v97l77 60h86v-350h-86
v253z" />
    <glyph glyph-name="twothirds" unicode="&#x2154;" horiz-adv-x="845" 
d="M134 0l483 700h112l-483 -700h-112zM533 102l78 20q10 -54 54 -54q18 0 32 13t14 34t-13.5 34.5t-34.5 13.5q-14 0 -28 -8l-39 53l81 74h-132v68h227v-60l-72 -62q41 -7 66.5 -36t25.5 -77q0 -56 -34.5 -89.5t-92.5 -33.5t-91.5 31t-40.5 79zM62 350v23q0 59 30 95.5
t91 68.5q25 13 34 26.5t9 33.5q0 17 -11.5 28t-31.5 11q-18 0 -30 -10.5t-12 -29.5q0 -6 1 -12l-77 -26q-9 18 -9 40q0 44 34 77t91 33q63 0 95.5 -29t32.5 -78q0 -40 -20 -68t-65 -52q-58 -32 -60 -60h152v-71h-254z" />
    <glyph glyph-name="oneeighth" unicode="&#x215b;" horiz-adv-x="762" 
d="M711 103q0 -53 -38 -82t-94 -29t-94 29t-38 82q0 30 17 53.5t42 34.5q-17 8 -31 28t-14 44q0 44 35 69.5t83 25.5t83 -25.5t35 -69.5q0 -24 -14 -44t-31 -28q25 -11 42 -34.5t17 -53.5zM628 109q0 20 -13.5 32.5t-35.5 12.5t-35.5 -12.5t-13.5 -32.5t13.5 -32.5
t35.5 -12.5t35.5 12.5t13.5 32.5zM619 255q0 17 -11.5 27t-28.5 10t-28.5 -10t-11.5 -27t11.5 -27t28.5 -10t28.5 10t11.5 27zM41 543v97l77 60h86v-350h-86v253zM54 0l483 700h112l-483 -700h-112z" />
    <glyph glyph-name="threeeighths" unicode="&#x215c;" horiz-adv-x="814" 
d="M46 452l78 20q10 -54 54 -54q18 0 32 13t14 34t-13.5 34.5t-34.5 13.5q-14 0 -28 -8l-39 53l81 74h-132v68h227v-60l-72 -62q41 -7 66.5 -36t25.5 -77q0 -56 -34.5 -89.5t-92.5 -33.5t-91.5 31t-40.5 79zM106 0l483 700h112l-483 -700h-112zM763 103q0 -53 -38 -82
t-94 -29t-94 29t-38 82q0 30 17 53.5t42 34.5q-17 8 -31 28t-14 44q0 44 35 69.5t83 25.5t83 -25.5t35 -69.5q0 -24 -14 -44t-31 -28q25 -11 42 -34.5t17 -53.5zM680 109q0 20 -13.5 32.5t-35.5 12.5t-35.5 -12.5t-13.5 -32.5t13.5 -32.5t35.5 -12.5t35.5 12.5t13.5 32.5z
M671 255q0 17 -11.5 27t-28.5 10t-28.5 -10t-11.5 -27t11.5 -27t28.5 -10t28.5 10t11.5 27z" />
    <glyph glyph-name="fiveeighths" unicode="&#x215d;" horiz-adv-x="804" 
d="M53 519l27 181h209v-66h-147l-14 -64q25 18 62 18q54 0 85 -33t31 -87q0 -56 -35 -91t-93 -35q-55 0 -88 28.5t-41 72.5l78 17q11 -43 49 -43q21 0 35 13.5t14 37.5q0 22 -14 35.5t-34 13.5q-32 0 -54 -28zM106 0l483 700h112l-483 -700h-112zM753 103q0 -53 -38 -82
t-94 -29t-94 29t-38 82q0 30 17 53.5t42 34.5q-17 8 -31 28t-14 44q0 44 35 69.5t83 25.5t83 -25.5t35 -69.5q0 -24 -14 -44t-31 -28q25 -11 42 -34.5t17 -53.5zM670 109q0 20 -13.5 32.5t-35.5 12.5t-35.5 -12.5t-13.5 -32.5t13.5 -32.5t35.5 -12.5t35.5 12.5t13.5 32.5z
M661 255q0 17 -11.5 27t-28.5 10t-28.5 -10t-11.5 -27t11.5 -27t28.5 -10t28.5 10t11.5 27z" />
    <glyph glyph-name="seveneighths" unicode="&#x215e;" horiz-adv-x="745" 
d="M278 634l-112 -284h-83l109 276h-143v74h229v-66zM47 0l483 700h112l-483 -700h-112zM694 103q0 -53 -38 -82t-94 -29t-94 29t-38 82q0 30 17 53.5t42 34.5q-17 8 -31 28t-14 44q0 44 35 69.5t83 25.5t83 -25.5t35 -69.5q0 -24 -14 -44t-31 -28q25 -11 42 -34.5t17 -53.5
zM611 109q0 20 -13.5 32.5t-35.5 12.5t-35.5 -12.5t-13.5 -32.5t13.5 -32.5t35.5 -12.5t35.5 12.5t13.5 32.5zM602 255q0 17 -11.5 27t-28.5 10t-28.5 -10t-11.5 -27t11.5 -27t28.5 -10t28.5 10t11.5 27z" />
    <glyph glyph-name="partialdiff" unicode="&#x2202;" horiz-adv-x="628" 
d="M282 -16q-98 0 -167 62t-69 164q0 113 72.5 187.5t186.5 74.5q51 0 91.5 -19.5t63.5 -49.5q-2 90 -39 145.5t-99 55.5q-89 0 -123 -86l-103 34q27 81 90 122.5t147 41.5q112 0 180.5 -89t68.5 -265q0 -102 -33 -186t-102.5 -138t-164.5 -54zM313 364q-62 0 -101.5 -45
t-39.5 -105q0 -59 35 -91.5t88 -32.5q59 0 97.5 44t38.5 104t-32.5 93t-85.5 33z" />
    <glyph glyph-name="Delta" unicode="&#x2206;" horiz-adv-x="728" 
d="M10 0l284 700h140l284 -700h-708zM364 534l-162 -418h324z" />
    <glyph glyph-name="product" unicode="&#x220f;" horiz-adv-x="676" 
d="M75 0v700h526v-700h-130v584h-266v-584h-130z" />
    <glyph glyph-name="summation" unicode="&#x2211;" horiz-adv-x="591" 
d="M374 305l-186 -291h372v-116h-526v102l195 305l-186 292v103h502v-116h-346z" />
    <glyph glyph-name="minus" unicode="&#x2212;" horiz-adv-x="568" 
d="M41 249v110h486v-110h-486z" />
    <glyph glyph-name="radical" unicode="&#x221a;" horiz-adv-x="624" 
d="M41 255v107h185l71 -200l192 538h125l-255 -700h-122l-94 255h-102z" />
    <glyph glyph-name="infinity" unicode="&#x221e;" horiz-adv-x="826" 
d="M243 520q57 0 102.5 -28t67.5 -76q22 48 67.5 76t102.5 28q90 0 148 -57t58 -143t-58 -143t-148 -57q-56 0 -102.5 27.5t-67.5 76.5q-22 -48 -67.5 -76t-102.5 -28q-90 0 -148 57t-58 143t58 143t148 57zM248 412q-37 0 -63.5 -26.5t-26.5 -65.5t26.5 -65.5t63.5 -26.5
q71 0 110 92q-39 92 -110 92zM578 412q-71 0 -110 -92q39 -92 110 -92q37 0 63.5 26.5t26.5 65.5t-26.5 65.5t-63.5 26.5z" />
    <glyph glyph-name="integral" unicode="&#x222b;" horiz-adv-x="356" 
d="M108 -40v582q0 88 46 131t119 43q20 0 60 -5v-108q-21 7 -42 7q-26 0 -42.5 -16t-16.5 -48v-574q0 -89 -41 -131.5t-110 -42.5q-26 0 -58 6v107q21 -7 41 -7q19 0 31.5 15t12.5 41z" />
    <glyph glyph-name="approxequal" unicode="&#x2248;" horiz-adv-x="459" 
d="M134 184h-93q0 65 32 103t88 38q35 0 71.5 -23.5t57.5 -23.5q15 0 25 12t10 30h93q0 -65 -32 -103t-88 -38q-35 0 -71.5 23.5t-57.5 23.5q-15 0 -25 -12t-10 -30zM134 367h-93q0 65 32 103t88 38q35 0 71.5 -23.5t57.5 -23.5q15 0 25 12t10 30h93q0 -65 -32 -103t-88 -38
q-35 0 -71.5 23.5t-57.5 23.5q-15 0 -25 -12t-10 -30z" />
    <glyph glyph-name="notequal" unicode="&#x2260;" horiz-adv-x="568" 
d="M41 357v110h270l90 158l96 -55l-59 -103h89v-110h-152l-55 -96h207v-110h-270l-90 -158l-96 55l59 103h-89v110h152l55 96h-207z" />
    <glyph glyph-name="lessequal" unicode="&#x2264;" horiz-adv-x="568" 
d="M41 0v110h486v-110h-486zM68 380v102l433 218v-122l-302 -147l302 -147v-122z" />
    <glyph glyph-name="greaterequal" unicode="&#x2265;" horiz-adv-x="568" 
d="M41 0v110h486v-110h-486zM501 482v-102l-433 -218v122l302 147l-302 147v122z" />
    <glyph glyph-name="lozenge" unicode="&#x25ca;" horiz-adv-x="664" 
d="M265 0l-226 350l226 350h134l226 -350l-226 -350h-134zM332 111l156 239l-156 239l-156 -239z" />
    <glyph glyph-name="zero.tn" horiz-adv-x="602" 
d="M588 350q0 -171 -78.5 -268.5t-208.5 -97.5t-208.5 97.5t-78.5 268.5t78.5 268.5t208.5 97.5t208.5 -97.5t78.5 -268.5zM458 350q0 122 -41 186t-116 64t-116 -64t-41 -186t41 -186t116 -64t116 64t41 186z" />
    <glyph glyph-name="one.tn" horiz-adv-x="602" 
d="M121 448v142l142 110h130v-590h143v-110h-415v110h142v448z" />
    <glyph glyph-name="two.tn" horiz-adv-x="602" 
d="M63 0v37q0 118 57 186.5t173 127.5q64 33 90.5 66t26.5 80q0 48 -31.5 78.5t-83.5 30.5q-45 0 -78.5 -28t-33.5 -74q0 -15 4 -30l-115 -48q-15 33 -15 75q0 88 64.5 151.5t173.5 63.5q116 0 180.5 -58t64.5 -150q0 -78 -39 -135t-126 -103q-86 -46 -123 -82.5t-38 -77.5
h343v-110h-494z" />
    <glyph glyph-name="three.tn" horiz-adv-x="602" 
d="M39 208l125 30q7 -64 43 -101t99 -37q52 0 87.5 34t35.5 93q0 60 -36 93.5t-97 33.5q-40 0 -70 -15l-61 79l191 176h-289v106h449v-99l-159 -145q83 -11 140.5 -70.5t57.5 -159.5q0 -106 -69 -174t-184 -68q-113 0 -180.5 64.5t-82.5 159.5z" />
    <glyph glyph-name="four.tn" horiz-adv-x="602" 
d="M31 135v112l314 453h131v-453h88v-112h-88v-135h-124v135h-321zM172 247h180v264z" />
    <glyph glyph-name="five.tn" horiz-adv-x="602" 
d="M50 340l55 360h408v-106h-309l-27 -158q59 41 139 41q108 0 171 -66.5t63 -174.5q0 -111 -69.5 -181.5t-184.5 -70.5q-110 0 -173.5 57t-80.5 145l120 31q32 -117 136 -117q57 0 91.5 36t34.5 100q0 62 -35 97.5t-93 35.5q-87 0 -141 -77z" />
    <glyph glyph-name="six.tn" horiz-adv-x="602" 
d="M37 313q0 194 82.5 298.5t204.5 104.5q175 0 220 -164l-107 -34q-25 86 -115 86q-62 0 -104.5 -53t-53.5 -144q25 28 69.5 46.5t89.5 18.5q100 0 167.5 -64t67.5 -181q0 -108 -73 -175.5t-184 -67.5q-115 0 -189.5 84.5t-74.5 244.5zM305 364q-56 0 -92.5 -37t-36.5 -100
t36.5 -100t92.5 -37t92 36.5t36 100.5t-36 100.5t-92 36.5z" />
    <glyph glyph-name="seven.tn" horiz-adv-x="602" 
d="M522 608l-220 -608h-128l211 592h-324v108h461v-92z" />
    <glyph glyph-name="eight.tn" horiz-adv-x="602" 
d="M552 206q0 -106 -72 -164t-183 -58t-183 58t-72 164q0 60 35 107t84 69q-32 17 -60.5 57.5t-28.5 87.5q0 88 64.5 138.5t160.5 50.5t160.5 -50.5t64.5 -138.5q0 -47 -28.5 -87.5t-60.5 -57.5q49 -22 84 -69t35 -107zM422 208q0 53 -33.5 83.5t-91.5 30.5t-91.5 -30.5
t-33.5 -83.5t33.5 -83.5t91.5 -30.5t91.5 30.5t33.5 83.5zM403 522q0 43 -28.5 68.5t-77.5 25.5t-77.5 -25.5t-28.5 -68.5t28.5 -68.5t77.5 -25.5t77.5 25.5t28.5 68.5z" />
    <glyph glyph-name="nine.tn" horiz-adv-x="602" 
d="M562 387q0 -195 -80 -299t-207 -104q-175 0 -220 164l107 34q25 -86 116 -86q61 0 104 53t53 144q-23 -27 -67 -46t-92 -19q-97 0 -166 65t-69 180q0 108 73 175.5t184 67.5q120 0 192 -83.5t72 -245.5zM294 336q56 0 92.5 37t36.5 100t-36.5 100t-92.5 37t-92 -36.5
t-36 -100.5t36 -100.5t92 -36.5z" />
    <glyph glyph-name="zero.slash" horiz-adv-x="714" 
d="M666 350q0 -169 -87 -267.5t-222 -98.5t-222 98.5t-87 267.5t87 267.5t222 98.5t222 -98.5t87 -267.5zM178 350q0 -96 33 -159l206 398q-30 11 -60 11q-79 0 -129 -65t-50 -185zM536 350q0 94 -33 157l-206 -396q25 -11 60 -11q79 0 129 65t50 185z" />
    <glyph glyph-name="zero.tn.slash" horiz-adv-x="602" 
d="M588 350q0 -171 -78.5 -268.5t-208.5 -97.5t-208.5 97.5t-78.5 268.5t78.5 268.5t208.5 97.5t208.5 -97.5t78.5 -268.5zM458 350q0 84 -20 141l-196 -379q27 -12 59 -12q75 0 116 64t41 186zM144 350q0 -84 20 -141l196 379q-27 12 -59 12q-75 0 -116 -64t-41 -186z" />
    </font>
</defs>
</svg>
